<svg width="1920" height="400" viewBox="0 0 1920 400" fill="none" xmlns="http://www.w3.org/2000/svg">
<rect width="1920" height="400" fill="#F7F7F7"/>
<mask id="mask0_189_1173" style="mask-type:alpha" maskUnits="userSpaceOnUse" x="0" y="0" width="1920" height="400">
<rect width="1920" height="400" fill="#F7F7F7"/>
</mask>
<g mask="url(#mask0_189_1173)">
<rect x="-40" y="-107" width="1987" height="1325" fill="#9FAAB7"/>
<rect opacity="0.85" width="1920" height="400" fill="#0F2239"/>
<path opacity="0.5" d="M2300.43 -245.05C2212.22 -242.147 2115.62 -219.648 2033.81 -154.485C1952.74 -89.9159 1885.28 17.2796 1855.41 191.335L1854.71 195.459C1844.49 256.579 1785.02 296.292 1724.76 282.984L1723.33 282.659C1631.02 260.999 1495.29 245.528 1374.54 295.088C1254.6 344.318 1147.68 458.479 1113.8 700.059C1104.47 766.556 1037.32 808.038 973.726 787.578L972.225 787.082C881.818 756.578 757.956 735.258 655.696 791.342C554.069 847.078 470.521 981.227 465.016 1269.46C463.177 1365.77 509.371 1474.27 591.601 1583.89C673.721 1693.36 791.188 1803.13 930.377 1901.8C1208.84 2099.18 1573.03 2251.24 1912.38 2267.87C2251.32 2284.47 2564.75 2166.08 2744.71 1823.27C2925.14 1479.57 2972.33 908.77 2773.46 18.5253C2751.47 -79.9194 2670.33 -147.049 2574.99 -189.139C2479.76 -231.18 2372.08 -247.409 2300.43 -245.05Z" stroke="#0D5EF4" stroke-width="16"/>
<path opacity="0.2" fill-rule="evenodd" clip-rule="evenodd" d="M2308.63 -238.258C2130.01 -232.379 1914.8 -147.054 1855.28 208.929C1845.75 265.941 1789.9 302.867 1733.63 289.66C1547.87 246.074 1182.73 226.062 1114.34 713.736C1105.65 775.747 1042.58 814.309 983.25 794.29C801.394 732.93 476.541 705.249 465.486 1284.09C450.385 2074.91 3585.75 3594.93 2789.73 31.5697C2744.14 -172.502 2454.23 -243.052 2308.63 -238.258Z" fill="#0D5EF4"/>
<path d="M47.2129 -846.746C-205.389 -990.274 -526.935 -1088.28 -816.298 -1073.53C-1105.61 -1058.78 -1362.66 -931.335 -1486.66 -623.99C-1610.71 -316.53 -1601.7 171.162 -1358.2 906.583C-1330.45 990.388 -1254.16 1041.11 -1169.3 1068.84C-1084.45 1096.57 -991.252 1101.23 -930.112 1093.06C-855.071 1083.04 -774.077 1055.51 -709.338 992.417C-644.611 929.337 -596.025 830.602 -585.981 677.954C-582.724 628.418 -538.162 592.086 -488.946 598.551C-408.734 609.085 -291.326 610.826 -191.955 557.901C-92.6802 505.028 -11.1949 397.477 -2.98047 188.941C-0.862183 135.202 49.7243 96.8577 102.134 108.881C181.461 127.078 289.971 135.073 373.672 77.6211C457.298 20.22 516.541 -102.798 496.703 -347.542C489.95 -430.869 440.797 -519.766 361.654 -605.826C282.527 -691.87 173.508 -774.986 47.2129 -846.746Z" stroke="#0D5EF4" stroke-width="2"/>
<path d="M37.2129 -861.746C-215.389 -1005.27 -536.935 -1103.28 -826.298 -1088.53C-1115.61 -1073.78 -1372.66 -946.335 -1496.66 -638.99C-1620.71 -331.53 -1611.7 156.162 -1368.2 891.583C-1340.45 975.388 -1264.16 1026.11 -1179.3 1053.84C-1094.45 1081.57 -1001.25 1086.23 -940.112 1078.06C-865.071 1068.04 -784.077 1040.51 -719.338 977.417C-654.611 914.337 -606.025 815.602 -595.981 662.954C-592.724 613.418 -548.162 577.086 -498.946 583.551C-418.734 594.085 -301.326 595.826 -201.955 542.901C-102.68 490.028 -21.1949 382.477 -12.9805 173.941C-10.8622 120.202 39.7243 81.8577 92.1338 93.8809C171.461 112.078 279.971 120.073 363.672 62.6211C447.298 5.22 506.541 -117.798 486.703 -362.542C479.95 -445.869 430.797 -534.766 351.654 -620.826C272.527 -706.87 163.508 -789.986 37.2129 -861.746Z" stroke="#0D5EF4" stroke-width="2"/>
<path fill-rule="evenodd" clip-rule="evenodd" d="M1754.89 295.996C1754.3 295.996 1753.72 296.17 1753.23 296.497C1752.74 296.823 1752.36 297.288 1752.14 297.832C1751.91 298.376 1751.85 298.974 1751.97 299.552C1752.08 300.129 1752.37 300.66 1752.78 301.076C1753.2 301.493 1753.73 301.776 1754.31 301.891C1754.88 302.006 1755.48 301.948 1756.03 301.722C1756.57 301.497 1757.03 301.116 1757.36 300.626C1757.69 300.137 1757.86 299.561 1757.86 298.972C1757.86 298.184 1757.55 297.427 1756.99 296.87C1756.43 296.312 1755.68 295.997 1754.89 295.996ZM1777.91 295.996C1777.32 295.996 1776.74 296.17 1776.25 296.497C1775.76 296.823 1775.38 297.288 1775.16 297.832C1774.93 298.376 1774.87 298.974 1774.99 299.552C1775.1 300.129 1775.38 300.66 1775.8 301.076C1776.22 301.493 1776.75 301.776 1777.32 301.891C1777.9 302.006 1778.5 301.948 1779.04 301.722C1779.59 301.497 1780.05 301.116 1780.38 300.626C1780.71 300.137 1780.88 299.561 1780.88 298.972C1780.88 298.184 1780.57 297.427 1780.01 296.87C1779.45 296.312 1778.7 295.997 1777.91 295.996ZM1800.93 295.996C1800.34 295.996 1799.76 296.17 1799.27 296.497C1798.78 296.823 1798.4 297.288 1798.18 297.832C1797.95 298.376 1797.89 298.974 1798.01 299.552C1798.12 300.129 1798.4 300.66 1798.82 301.076C1799.24 301.493 1799.77 301.776 1800.34 301.891C1800.92 302.006 1801.52 301.948 1802.06 301.722C1802.61 301.497 1803.07 301.116 1803.4 300.626C1803.73 300.137 1803.9 299.561 1803.9 298.972C1803.9 298.184 1803.59 297.428 1803.03 296.87C1802.47 296.312 1801.72 295.998 1800.93 295.996ZM1823.89 295.996C1823.1 295.997 1822.34 296.312 1821.78 296.871C1821.23 297.43 1820.92 298.188 1820.92 298.977C1820.92 299.767 1821.23 300.523 1821.79 301.08C1822.35 301.638 1823.11 301.95 1823.9 301.949H1823.97C1824.36 301.948 1824.75 301.87 1825.11 301.72C1825.47 301.57 1825.8 301.35 1826.08 301.074C1826.63 300.515 1826.94 299.757 1826.94 298.968C1826.94 298.178 1826.63 297.422 1826.07 296.864C1825.51 296.307 1824.75 295.995 1823.96 295.996H1823.89ZM1754.89 319.025C1754.3 319.026 1753.73 319.2 1753.24 319.527C1752.75 319.854 1752.37 320.319 1752.14 320.862C1751.92 321.406 1751.86 322.004 1751.97 322.581C1752.09 323.158 1752.37 323.688 1752.79 324.104C1753.2 324.519 1753.73 324.802 1754.31 324.917C1754.89 325.031 1755.49 324.972 1756.03 324.747C1756.57 324.521 1757.04 324.14 1757.36 323.65C1757.69 323.161 1757.86 322.586 1757.86 321.997C1757.86 321.209 1757.55 320.454 1756.99 319.896C1756.43 319.339 1755.68 319.026 1754.89 319.025ZM1777.91 319.025C1777.32 319.026 1776.74 319.2 1776.26 319.527C1775.77 319.854 1775.39 320.319 1775.16 320.862C1774.94 321.406 1774.88 322.004 1774.99 322.581C1775.11 323.158 1775.39 323.688 1775.81 324.104C1776.22 324.519 1776.75 324.802 1777.33 324.917C1777.91 325.031 1778.5 324.972 1779.05 324.747C1779.59 324.521 1780.06 324.14 1780.38 323.65C1780.71 323.161 1780.88 322.586 1780.88 321.997C1780.88 321.209 1780.57 320.454 1780.01 319.896C1779.45 319.339 1778.7 319.026 1777.91 319.025ZM1800.93 319.025C1800.34 319.026 1799.76 319.2 1799.27 319.527C1798.79 319.854 1798.4 320.319 1798.18 320.862C1797.95 321.406 1797.9 322.004 1798.01 322.581C1798.13 323.158 1798.41 323.688 1798.82 324.104C1799.24 324.519 1799.77 324.802 1800.35 324.917C1800.93 325.031 1801.52 324.972 1802.07 324.747C1802.61 324.521 1803.07 324.14 1803.4 323.65C1803.73 323.161 1803.9 322.586 1803.9 321.997C1803.9 321.209 1803.59 320.454 1803.03 319.896C1802.47 319.339 1801.72 319.026 1800.93 319.025ZM1823.89 319.025C1823.1 319.027 1822.35 319.342 1821.79 319.901C1821.23 320.46 1820.92 321.217 1820.92 322.006C1820.93 322.794 1821.24 323.55 1821.8 324.107C1822.36 324.664 1823.12 324.975 1823.9 324.974H1823.96C1824.75 324.974 1825.51 324.66 1826.07 324.103C1826.63 323.545 1826.94 322.788 1826.94 322C1826.94 321.211 1826.63 320.454 1826.07 319.897C1825.51 319.339 1824.75 319.025 1823.96 319.025H1823.89H1823.89ZM1754.89 342.051C1754.3 342.05 1753.73 342.224 1753.24 342.551C1752.75 342.878 1752.36 343.343 1752.14 343.887C1751.91 344.431 1751.85 345.029 1751.97 345.607C1752.08 346.184 1752.37 346.715 1752.78 347.131C1753.2 347.547 1753.73 347.831 1754.31 347.946C1754.88 348.061 1755.48 348.002 1756.03 347.777C1756.57 347.552 1757.04 347.17 1757.36 346.681C1757.69 346.191 1757.87 345.616 1757.87 345.027C1757.86 344.238 1757.55 343.481 1756.99 342.923C1756.43 342.365 1755.68 342.051 1754.89 342.051H1754.89ZM1777.91 342.051C1777.32 342.05 1776.75 342.224 1776.26 342.551C1775.77 342.878 1775.38 343.343 1775.16 343.887C1774.93 344.431 1774.87 345.029 1774.99 345.607C1775.1 346.184 1775.39 346.715 1775.8 347.131C1776.22 347.547 1776.75 347.831 1777.33 347.946C1777.9 348.061 1778.5 348.002 1779.05 347.777C1779.59 347.552 1780.06 347.17 1780.38 346.681C1780.71 346.191 1780.88 345.616 1780.88 345.027C1780.88 344.238 1780.57 343.481 1780.01 342.923C1779.45 342.365 1778.7 342.051 1777.91 342.051H1777.91ZM1800.93 342.051C1800.34 342.05 1799.76 342.224 1799.27 342.551C1798.78 342.878 1798.4 343.343 1798.18 343.887C1797.95 344.431 1797.89 345.029 1798.01 345.607C1798.12 346.184 1798.41 346.715 1798.82 347.131C1799.24 347.547 1799.77 347.831 1800.35 347.946C1800.92 348.061 1801.52 348.002 1802.07 347.777C1802.61 347.552 1803.07 347.17 1803.4 346.681C1803.73 346.191 1803.9 345.616 1803.9 345.027C1803.9 344.238 1803.59 343.481 1803.03 342.923C1802.47 342.365 1801.72 342.051 1800.93 342.051H1800.93ZM1823.89 342.051C1823.5 342.051 1823.12 342.128 1822.76 342.278C1822.39 342.428 1822.07 342.648 1821.79 342.925C1821.51 343.201 1821.3 343.53 1821.15 343.891C1821 344.252 1820.92 344.639 1820.92 345.03C1820.92 345.421 1821 345.808 1821.15 346.169C1821.3 346.53 1821.52 346.858 1821.79 347.134C1822.07 347.41 1822.4 347.629 1822.76 347.778C1823.12 347.927 1823.51 348.004 1823.9 348.003H1823.97C1824.76 348.002 1825.52 347.687 1826.07 347.128C1826.63 346.569 1826.94 345.811 1826.94 345.022C1826.94 344.232 1826.63 343.476 1826.07 342.919C1825.51 342.361 1824.75 342.049 1823.96 342.051H1823.89H1823.89ZM1754.89 365.076C1754.3 365.075 1753.73 365.25 1753.24 365.576C1752.75 365.903 1752.37 366.368 1752.14 366.912C1751.91 367.456 1751.85 368.054 1751.97 368.632C1752.08 369.209 1752.37 369.74 1752.78 370.156C1753.2 370.573 1753.73 370.856 1754.31 370.971C1754.89 371.086 1755.48 371.027 1756.03 370.802C1756.57 370.577 1757.04 370.195 1757.36 369.706C1757.69 369.216 1757.87 368.641 1757.87 368.052C1757.87 367.263 1757.55 366.506 1756.99 365.948C1756.44 365.39 1755.68 365.076 1754.89 365.076H1754.89ZM1777.91 365.076C1777.32 365.075 1776.75 365.25 1776.26 365.576C1775.77 365.903 1775.38 366.368 1775.16 366.912C1774.93 367.456 1774.87 368.054 1774.99 368.632C1775.1 369.209 1775.39 369.74 1775.8 370.156C1776.22 370.573 1776.75 370.856 1777.33 370.971C1777.9 371.086 1778.5 371.027 1779.05 370.802C1779.59 370.577 1780.06 370.195 1780.38 369.706C1780.71 369.216 1780.89 368.641 1780.89 368.052C1780.88 367.263 1780.57 366.506 1780.01 365.948C1779.45 365.39 1778.7 365.076 1777.91 365.076H1777.91ZM1800.93 365.076C1800.34 365.075 1799.76 365.25 1799.27 365.576C1798.79 365.903 1798.4 366.368 1798.18 366.912C1797.95 367.456 1797.89 368.054 1798.01 368.632C1798.12 369.209 1798.41 369.74 1798.82 370.156C1799.24 370.573 1799.77 370.856 1800.35 370.971C1800.92 371.086 1801.52 371.027 1802.07 370.802C1802.61 370.577 1803.07 370.195 1803.4 369.706C1803.73 369.216 1803.9 368.641 1803.9 368.052C1803.9 367.263 1803.59 366.506 1803.03 365.948C1802.47 365.39 1801.72 365.076 1800.93 365.076H1800.93ZM1823.89 365.076C1823.1 365.077 1822.35 365.391 1821.79 365.95C1821.23 366.509 1820.92 367.266 1820.92 368.056C1820.92 368.845 1821.24 369.602 1821.8 370.159C1822.35 370.717 1823.11 371.029 1823.9 371.028H1823.98C1824.76 371.027 1825.52 370.713 1826.08 370.154C1826.64 369.595 1826.95 368.838 1826.95 368.048C1826.95 367.259 1826.63 366.502 1826.07 365.945C1825.51 365.387 1824.76 365.075 1823.97 365.076H1823.89ZM1846.93 295.996C1846.34 295.996 1845.77 296.17 1845.28 296.497C1844.79 296.823 1844.41 297.288 1844.18 297.832C1843.96 298.376 1843.9 298.974 1844.01 299.552C1844.13 300.129 1844.41 300.66 1844.83 301.076C1845.24 301.493 1845.77 301.776 1846.35 301.891C1846.93 302.006 1847.53 301.948 1848.07 301.722C1848.61 301.497 1849.08 301.116 1849.41 300.626C1849.73 300.137 1849.91 299.561 1849.91 298.972C1849.91 298.183 1849.59 297.426 1849.03 296.868C1848.48 296.31 1847.72 295.996 1846.93 295.996H1846.93ZM1869.95 295.996C1869.36 295.996 1868.79 296.17 1868.3 296.497C1867.81 296.823 1867.43 297.288 1867.2 297.832C1866.98 298.376 1866.92 298.974 1867.03 299.552C1867.15 300.129 1867.43 300.66 1867.85 301.076C1868.26 301.493 1868.79 301.776 1869.37 301.891C1869.95 302.006 1870.55 301.948 1871.09 301.722C1871.63 301.497 1872.1 301.116 1872.43 300.626C1872.75 300.137 1872.93 299.561 1872.93 298.972C1872.93 298.183 1872.61 297.426 1872.05 296.868C1871.5 296.31 1870.74 295.996 1869.95 295.996H1869.95ZM1892.97 295.996C1892.38 295.996 1891.81 296.17 1891.32 296.497C1890.83 296.823 1890.45 297.288 1890.22 297.832C1889.99 298.376 1889.94 298.974 1890.05 299.552C1890.16 300.129 1890.45 300.66 1890.86 301.076C1891.28 301.493 1891.81 301.776 1892.39 301.891C1892.97 302.006 1893.56 301.948 1894.11 301.722C1894.65 301.497 1895.12 301.116 1895.44 300.626C1895.77 300.137 1895.95 299.561 1895.95 298.972C1895.95 298.183 1895.63 297.426 1895.07 296.868C1894.51 296.31 1893.76 295.996 1892.97 295.996H1892.97ZM1846.93 319.025C1846.35 319.026 1845.77 319.2 1845.28 319.527C1844.79 319.854 1844.41 320.319 1844.19 320.862C1843.96 321.406 1843.9 322.004 1844.02 322.581C1844.13 323.158 1844.42 323.688 1844.83 324.104C1845.25 324.519 1845.78 324.802 1846.36 324.917C1846.93 325.031 1847.53 324.972 1848.07 324.747C1848.62 324.521 1849.08 324.14 1849.41 323.65C1849.73 323.161 1849.91 322.586 1849.91 321.997C1849.91 321.208 1849.59 320.452 1849.03 319.895C1848.48 319.338 1847.72 319.025 1846.93 319.025H1846.93ZM1869.95 319.025C1869.36 319.026 1868.79 319.2 1868.3 319.527C1867.81 319.854 1867.43 320.319 1867.2 320.862C1866.98 321.406 1866.92 322.004 1867.04 322.581C1867.15 323.158 1867.43 323.688 1867.85 324.104C1868.27 324.519 1868.8 324.802 1869.37 324.917C1869.95 325.031 1870.55 324.972 1871.09 324.747C1871.64 324.521 1872.1 324.14 1872.43 323.65C1872.75 323.161 1872.93 322.586 1872.93 321.997C1872.93 321.208 1872.61 320.452 1872.05 319.895C1871.49 319.338 1870.74 319.025 1869.95 319.025H1869.95ZM1892.97 319.025C1892.38 319.026 1891.81 319.2 1891.32 319.527C1890.83 319.854 1890.45 320.319 1890.22 320.862C1890 321.406 1889.94 322.004 1890.05 322.581C1890.17 323.158 1890.45 323.688 1890.87 324.104C1891.29 324.519 1891.82 324.802 1892.39 324.917C1892.97 325.031 1893.57 324.972 1894.11 324.747C1894.66 324.521 1895.12 324.14 1895.45 323.65C1895.77 323.161 1895.95 322.586 1895.95 321.997C1895.94 321.208 1895.63 320.452 1895.07 319.895C1894.51 319.338 1893.76 319.025 1892.97 319.025H1892.97ZM1846.93 342.051C1846.34 342.05 1845.77 342.224 1845.28 342.551C1844.79 342.878 1844.41 343.343 1844.18 343.887C1843.96 344.431 1843.9 345.029 1844.01 345.607C1844.13 346.184 1844.41 346.715 1844.83 347.131C1845.24 347.547 1845.77 347.831 1846.35 347.946C1846.93 348.061 1847.53 348.002 1848.07 347.777C1848.61 347.552 1849.08 347.17 1849.41 346.681C1849.73 346.191 1849.91 345.616 1849.91 345.027C1849.91 344.237 1849.59 343.48 1849.04 342.922C1848.48 342.364 1847.72 342.05 1846.93 342.051H1846.93ZM1869.95 342.051C1869.36 342.05 1868.79 342.224 1868.3 342.551C1867.81 342.878 1867.43 343.343 1867.2 343.887C1866.98 344.431 1866.92 345.029 1867.03 345.607C1867.15 346.184 1867.43 346.715 1867.85 347.131C1868.26 347.547 1868.79 347.831 1869.37 347.946C1869.95 348.061 1870.55 348.002 1871.09 347.777C1871.63 347.552 1872.1 347.17 1872.43 346.681C1872.75 346.191 1872.93 345.616 1872.93 345.027C1872.93 344.237 1872.61 343.48 1872.05 342.922C1871.5 342.364 1870.74 342.05 1869.95 342.051H1869.95ZM1892.97 342.051C1892.38 342.05 1891.81 342.224 1891.32 342.551C1890.83 342.878 1890.45 343.343 1890.22 343.887C1889.99 344.431 1889.94 345.029 1890.05 345.607C1890.16 346.184 1890.45 346.715 1890.86 347.131C1891.28 347.547 1891.81 347.831 1892.39 347.946C1892.97 348.061 1893.56 348.002 1894.11 347.777C1894.65 347.552 1895.12 347.17 1895.44 346.681C1895.77 346.191 1895.95 345.616 1895.95 345.027C1895.95 344.237 1895.63 343.48 1895.07 342.922C1894.51 342.364 1893.76 342.05 1892.97 342.051H1892.97ZM1846.93 365.076C1846.34 365.075 1845.77 365.25 1845.28 365.576C1844.79 365.903 1844.41 366.368 1844.18 366.912C1843.96 367.456 1843.9 368.054 1844.01 368.632C1844.13 369.209 1844.41 369.74 1844.83 370.156C1845.24 370.573 1845.77 370.856 1846.35 370.971C1846.93 371.086 1847.53 371.027 1848.07 370.802C1848.61 370.577 1849.08 370.195 1849.41 369.706C1849.73 369.216 1849.91 368.641 1849.91 368.052C1849.91 367.262 1849.59 366.505 1849.04 365.947C1848.48 365.389 1847.72 365.076 1846.93 365.076H1846.93ZM1869.95 365.076C1869.36 365.075 1868.79 365.25 1868.3 365.576C1867.81 365.903 1867.43 366.368 1867.2 366.912C1866.98 367.456 1866.92 368.054 1867.03 368.632C1867.15 369.209 1867.43 369.74 1867.85 370.156C1868.26 370.573 1868.79 370.856 1869.37 370.971C1869.95 371.086 1870.55 371.027 1871.09 370.802C1871.63 370.577 1872.1 370.195 1872.43 369.706C1872.75 369.216 1872.93 368.641 1872.93 368.052C1872.93 367.262 1872.61 366.505 1872.05 365.947C1871.5 365.389 1870.74 365.076 1869.95 365.076H1869.95ZM1892.97 365.076C1892.38 365.075 1891.81 365.25 1891.32 365.576C1890.83 365.903 1890.45 366.368 1890.22 366.912C1889.99 367.456 1889.94 368.054 1890.05 368.632C1890.16 369.209 1890.45 369.74 1890.86 370.156C1891.28 370.573 1891.81 370.856 1892.39 370.971C1892.97 371.086 1893.56 371.027 1894.11 370.802C1894.65 370.577 1895.12 370.195 1895.44 369.706C1895.77 369.216 1895.95 368.641 1895.95 368.052C1895.95 367.262 1895.63 366.505 1895.07 365.947C1894.51 365.389 1893.76 365.076 1892.97 365.076H1892.97Z" fill="white"/>
<path fill-rule="evenodd" clip-rule="evenodd" d="M81.0002 318L66.5002 292.999L52.0002 318H81.0002ZM81.0002 292.999L66.5002 268.001L52.0002 292.999H81.0002ZM73.987 263.971L66.5002 251.063L59.0135 263.971H73.987ZM81.0002 268.001H52.0002L66.5002 243L81.0002 268.001Z" fill="white"/>
</g>
</svg>
