<svg width="11" height="11" viewBox="0 0 11 11" fill="none" xmlns="http://www.w3.org/2000/svg">
<path d="M5.625 0.25C5.9375 0.265625 6.20312 0.375 6.42188 0.578125C6.625 0.796875 6.73438 1.0625 6.75 1.375V9.625C6.73438 9.9375 6.625 10.2031 6.42188 10.4219C6.20312 10.625 5.9375 10.7344 5.625 10.75H4.875C4.5625 10.7344 4.29688 10.625 4.07812 10.4219C3.875 10.2031 3.76562 9.9375 3.75 9.625V1.375C3.76562 1.0625 3.875 0.796875 4.07812 0.578125C4.29688 0.375 4.5625 0.265625 4.875 0.25H5.625ZM5.625 1H4.875C4.64062 1.01563 4.51562 1.14062 4.5 1.375V9.625C4.51562 9.85938 4.64062 9.98438 4.875 10H5.625C5.85938 9.98438 5.98438 9.85938 6 9.625V1.375C5.98438 1.14062 5.85938 1.01563 5.625 1ZM1.875 4.75C2.1875 4.76562 2.45312 4.875 2.67188 5.07812C2.875 5.29688 2.98438 5.5625 3 5.875V9.625C2.98438 9.9375 2.875 10.2031 2.67188 10.4219C2.45312 10.625 2.1875 10.7344 1.875 10.75H1.125C0.8125 10.7344 0.546875 10.625 0.328125 10.4219C0.125 10.2031 0.015625 9.9375 0 9.625V5.875C0.015625 5.5625 0.125 5.29688 0.328125 5.07812C0.546875 4.875 0.8125 4.76562 1.125 4.75H1.875ZM1.875 5.5H1.125C0.890625 5.51562 0.765625 5.64062 0.75 5.875V9.625C0.765625 9.85938 0.890625 9.98438 1.125 10H1.875C2.10938 9.98438 2.23438 9.85938 2.25 9.625V5.875C2.23438 5.64062 2.10938 5.51562 1.875 5.5ZM7.5 2.875C7.51562 2.5625 7.625 2.29687 7.82812 2.07812C8.04688 1.875 8.3125 1.76563 8.625 1.75H9.375C9.6875 1.76563 9.95312 1.875 10.1719 2.07812C10.375 2.29687 10.4844 2.5625 10.5 2.875V9.625C10.4844 9.9375 10.375 10.2031 10.1719 10.4219C9.95312 10.625 9.6875 10.7344 9.375 10.75H8.625C8.3125 10.7344 8.04688 10.625 7.82812 10.4219C7.625 10.2031 7.51562 9.9375 7.5 9.625V2.875ZM8.25 2.875V9.625C8.26562 9.85938 8.39062 9.98438 8.625 10H9.375C9.60938 9.98438 9.73438 9.85938 9.75 9.625V2.875C9.73438 2.64062 9.60938 2.51563 9.375 2.5H8.625C8.39062 2.51563 8.26562 2.64062 8.25 2.875Z" fill="#4D5765"/>
</svg>
