<svg width="21" height="20" viewBox="0 0 21 20" fill="none" xmlns="http://www.w3.org/2000/svg">
<path d="M0.046875 10C0.109375 10.6875 0.484375 11.0625 1.17188 11.125H17.0625L10.8281 17.0781C10.3906 17.5781 10.3906 18.1094 10.8281 18.6719C11.3281 19.1094 11.8594 19.1094 12.4219 18.6719L20.6719 10.7969C20.8906 10.5781 21 10.3125 21 10C21 9.6875 20.8906 9.42188 20.6719 9.20312L12.4219 1.32812C11.8594 0.890625 11.3281 0.890625 10.8281 1.32812C10.3906 1.89062 10.3906 2.42187 10.8281 2.92188L17.0625 8.875H1.125C0.46875 8.9375 0.109375 9.3125 0.046875 10Z" fill="white"/>
</svg>
