<svg width="16" height="16" viewBox="0 0 16 16" fill="none" xmlns="http://www.w3.org/2000/svg">
<path d="M6.10352e-05 8C6.10352e-05 3.59375 3.56256 0 8.00006 0C12.4063 0 16.0001 3.59375 16.0001 8C16.0001 12.4375 12.4063 16 8.00006 16C3.56256 16 6.10352e-05 12.4375 6.10352e-05 8ZM11.5938 6.625C11.9376 6.28125 11.9376 5.75 11.5938 5.40625C11.2501 5.0625 10.7188 5.0625 10.3751 5.40625L7.00006 8.78125L5.59381 7.40625C5.25006 7.0625 4.71881 7.0625 4.37506 7.40625C4.03131 7.75 4.03131 8.28125 4.37506 8.625L6.37506 10.625C6.71881 10.9688 7.25006 10.9688 7.59381 10.625L11.5938 6.625Z" fill="#0D5EF4"/>
</svg>
