<svg width="171" height="16" viewBox="0 0 171 16" fill="none" xmlns="http://www.w3.org/2000/svg">
<path d="M25.248 2.8H27.136V14H25.248V2.8ZM26.368 4.464V2.8H28.624C29.4347 2.8 30.1387 2.944 30.736 3.232C31.344 3.50933 31.8133 3.90933 32.144 4.432C32.4747 4.944 32.64 5.55733 32.64 6.272C32.64 6.98667 32.4747 7.60533 32.144 8.128C31.8133 8.65067 31.344 9.056 30.736 9.344C30.1387 9.62133 29.4347 9.76 28.624 9.76H26.368V8.096H28.624C29.2747 8.096 29.7973 7.94133 30.192 7.632C30.5867 7.32267 30.784 6.86933 30.784 6.272C30.784 5.67467 30.5867 5.22667 30.192 4.928C29.7973 4.61867 29.2747 4.464 28.624 4.464H26.368ZM35.858 8.4C35.858 9.168 36.018 9.856 36.338 10.464C36.6687 11.0613 37.122 11.5307 37.698 11.872C38.274 12.2133 38.93 12.384 39.666 12.384C40.4127 12.384 41.0687 12.2133 41.634 11.872C42.21 11.5307 42.658 11.0613 42.978 10.464C43.3087 9.856 43.474 9.168 43.474 8.4C43.474 7.632 43.314 6.94933 42.994 6.352C42.674 5.744 42.226 5.26933 41.65 4.928C41.0847 4.58667 40.4233 4.416 39.666 4.416C38.93 4.416 38.274 4.58667 37.698 4.928C37.122 5.26933 36.6687 5.744 36.338 6.352C36.018 6.94933 35.858 7.632 35.858 8.4ZM33.858 8.4C33.858 7.55733 34.002 6.784 34.29 6.08C34.578 5.376 34.9833 4.768 35.506 4.256C36.0393 3.73333 36.658 3.328 37.362 3.04C38.0767 2.752 38.8447 2.608 39.666 2.608C40.5087 2.608 41.282 2.752 41.986 3.04C42.69 3.328 43.3033 3.73333 43.826 4.256C44.3593 4.768 44.77 5.376 45.058 6.08C45.346 6.784 45.49 7.55733 45.49 8.4C45.49 9.232 45.346 10.0053 45.058 10.72C44.77 11.4347 44.3647 12.0533 43.842 12.576C43.3193 13.0987 42.7007 13.5093 41.986 13.808C41.282 14.096 40.5087 14.24 39.666 14.24C38.834 14.24 38.0607 14.096 37.346 13.808C36.6313 13.5093 36.0127 13.0987 35.49 12.576C34.978 12.0533 34.578 11.4347 34.29 10.72C34.002 10.0053 33.858 9.232 33.858 8.4ZM47.3261 2.8H49.2141V14H47.3261V2.8ZM48.4461 4.464V2.8H50.7021C51.5128 2.8 52.2168 2.944 52.8141 3.232C53.4221 3.50933 53.8915 3.90933 54.2221 4.432C54.5528 4.944 54.7181 5.55733 54.7181 6.272C54.7181 6.98667 54.5528 7.60533 54.2221 8.128C53.8915 8.65067 53.4221 9.056 52.8141 9.344C52.2168 9.62133 51.5128 9.76 50.7021 9.76H48.4461V8.096H50.7021C51.3528 8.096 51.8755 7.94133 52.2701 7.632C52.6648 7.32267 52.8621 6.86933 52.8621 6.272C52.8621 5.67467 52.6648 5.22667 52.2701 4.928C51.8755 4.61867 51.3528 4.464 50.7021 4.464H48.4461ZM56.4961 2.8H58.3841V10.24C58.3841 10.9333 58.5655 11.4933 58.9281 11.92C59.3015 12.336 59.8508 12.544 60.5761 12.544C61.2908 12.544 61.8348 12.336 62.2081 11.92C62.5815 11.4933 62.7681 10.9333 62.7681 10.24V2.8H64.6561V10.32C64.6561 10.9387 64.5548 11.4933 64.3521 11.984C64.1601 12.464 63.8828 12.8747 63.5201 13.216C63.1575 13.5573 62.7255 13.8187 62.2241 14C61.7228 14.1813 61.1735 14.272 60.5761 14.272C59.9788 14.272 59.4295 14.1813 58.9281 14C58.4268 13.8187 57.9895 13.5573 57.6161 13.216C57.2535 12.8747 56.9761 12.464 56.7841 11.984C56.5921 11.4933 56.4961 10.9387 56.4961 10.32V2.8ZM67.0761 2.8H68.9641V12.304H73.4121V14H67.0761V2.8ZM76.6076 11.12L76.9596 9.52H82.1596L82.5276 11.12H76.6076ZM79.5356 5.968L77.7756 10.08L77.7436 10.496L76.1916 14H74.0636L79.5356 2.176L85.0076 14H82.8796L81.3596 10.592L81.3116 10.128L79.5356 5.968ZM88.6145 8.656H90.6625L94.4545 14H92.1825L88.6145 8.656ZM86.3105 2.8H88.1985V14H86.3105V2.8ZM87.4305 4.432V2.8H89.7665C90.5772 2.8 91.2812 2.944 91.8785 3.232C92.4865 3.52 92.9558 3.92533 93.2865 4.448C93.6172 4.96 93.7825 5.568 93.7825 6.272C93.7825 6.976 93.6172 7.58933 93.2865 8.112C92.9558 8.63467 92.4865 9.04 91.8785 9.328C91.2812 9.616 90.5772 9.76 89.7665 9.76H87.4305V8.208H89.6865C90.1132 8.208 90.4865 8.13333 90.8065 7.984C91.1372 7.83467 91.3932 7.62133 91.5745 7.344C91.7558 7.056 91.8465 6.71467 91.8465 6.32C91.8465 5.91467 91.7558 5.57333 91.5745 5.296C91.3932 5.01867 91.1372 4.80533 90.8065 4.656C90.4865 4.50667 90.1132 4.432 89.6865 4.432H87.4305ZM102.015 8.4C102.015 9.18933 102.191 9.88267 102.543 10.48C102.906 11.0773 103.375 11.5413 103.951 11.872C104.538 12.192 105.172 12.352 105.855 12.352C106.388 12.352 106.868 12.2827 107.295 12.144C107.722 12.0053 108.106 11.8187 108.447 11.584C108.799 11.3387 109.103 11.0667 109.359 10.768V13.008C108.89 13.392 108.383 13.6853 107.839 13.888C107.295 14.0907 106.612 14.192 105.791 14.192C104.97 14.192 104.202 14.0533 103.487 13.776C102.783 13.4987 102.17 13.0987 101.647 12.576C101.124 12.0533 100.714 11.44 100.415 10.736C100.127 10.0213 99.983 9.24267 99.983 8.4C99.983 7.55733 100.127 6.784 100.415 6.08C100.714 5.36533 101.124 4.74667 101.647 4.224C102.17 3.70133 102.783 3.30133 103.487 3.024C104.202 2.74667 104.97 2.608 105.791 2.608C106.612 2.608 107.295 2.70933 107.839 2.912C108.383 3.11467 108.89 3.408 109.359 3.792V6.032C109.103 5.73333 108.799 5.46667 108.447 5.232C108.106 4.98667 107.722 4.79467 107.295 4.656C106.868 4.51733 106.388 4.448 105.855 4.448C105.172 4.448 104.538 4.61333 103.951 4.944C103.375 5.264 102.906 5.72267 102.543 6.32C102.191 6.90667 102.015 7.6 102.015 8.4ZM113.046 8.4C113.046 9.168 113.206 9.856 113.526 10.464C113.856 11.0613 114.31 11.5307 114.886 11.872C115.462 12.2133 116.118 12.384 116.854 12.384C117.6 12.384 118.256 12.2133 118.822 11.872C119.398 11.5307 119.846 11.0613 120.166 10.464C120.496 9.856 120.662 9.168 120.662 8.4C120.662 7.632 120.502 6.94933 120.182 6.352C119.862 5.744 119.414 5.26933 118.838 4.928C118.272 4.58667 117.611 4.416 116.854 4.416C116.118 4.416 115.462 4.58667 114.886 4.928C114.31 5.26933 113.856 5.744 113.526 6.352C113.206 6.94933 113.046 7.632 113.046 8.4ZM111.046 8.4C111.046 7.55733 111.19 6.784 111.478 6.08C111.766 5.376 112.171 4.768 112.694 4.256C113.227 3.73333 113.846 3.328 114.549 3.04C115.264 2.752 116.032 2.608 116.854 2.608C117.696 2.608 118.47 2.752 119.174 3.04C119.878 3.328 120.491 3.73333 121.014 4.256C121.547 4.768 121.958 5.376 122.246 6.08C122.534 6.784 122.678 7.55733 122.678 8.4C122.678 9.232 122.534 10.0053 122.246 10.72C121.958 11.4347 121.552 12.0533 121.03 12.576C120.507 13.0987 119.888 13.5093 119.174 13.808C118.47 14.096 117.696 14.24 116.854 14.24C116.022 14.24 115.248 14.096 114.534 13.808C113.819 13.5093 113.2 13.0987 112.678 12.576C112.166 12.0533 111.766 11.4347 111.478 10.72C111.19 10.0053 111.046 9.232 111.046 8.4ZM124.434 2.8H126.322V10.24C126.322 10.9333 126.503 11.4933 126.866 11.92C127.239 12.336 127.788 12.544 128.514 12.544C129.228 12.544 129.772 12.336 130.146 11.92C130.519 11.4933 130.706 10.9333 130.706 10.24V2.8H132.594V10.32C132.594 10.9387 132.492 11.4933 132.29 11.984C132.098 12.464 131.82 12.8747 131.458 13.216C131.095 13.5573 130.663 13.8187 130.162 14C129.66 14.1813 129.111 14.272 128.514 14.272C127.916 14.272 127.367 14.1813 126.866 14C126.364 13.8187 125.927 13.5573 125.554 13.216C125.191 12.8747 124.914 12.464 124.722 11.984C124.53 11.4933 124.434 10.9387 124.434 10.32V2.8ZM137.318 8.656H139.366L143.158 14H140.886L137.318 8.656ZM135.014 2.8H136.902V14H135.014V2.8ZM136.134 4.432V2.8H138.47C139.28 2.8 139.984 2.944 140.582 3.232C141.19 3.52 141.659 3.92533 141.99 4.448C142.32 4.96 142.486 5.568 142.486 6.272C142.486 6.976 142.32 7.58933 141.99 8.112C141.659 8.63467 141.19 9.04 140.582 9.328C139.984 9.616 139.28 9.76 138.47 9.76H136.134V8.208H138.39C138.816 8.208 139.19 8.13333 139.51 7.984C139.84 7.83467 140.096 7.62133 140.278 7.344C140.459 7.056 140.55 6.71467 140.55 6.32C140.55 5.91467 140.459 5.57333 140.278 5.296C140.096 5.01867 139.84 4.80533 139.51 4.656C139.19 4.50667 138.816 4.432 138.39 4.432H136.134ZM145.265 10.4C145.511 10.8267 145.772 11.2053 146.049 11.536C146.337 11.856 146.652 12.1067 146.993 12.288C147.335 12.4587 147.719 12.544 148.145 12.544C148.657 12.544 149.073 12.4053 149.393 12.128C149.713 11.8507 149.873 11.4933 149.873 11.056C149.873 10.64 149.772 10.3093 149.569 10.064C149.367 9.808 149.084 9.59467 148.721 9.424C148.369 9.24267 147.959 9.06667 147.489 8.896C147.212 8.8 146.903 8.672 146.561 8.512C146.22 8.34133 145.895 8.13333 145.585 7.888C145.276 7.632 145.02 7.32267 144.817 6.96C144.615 6.58667 144.513 6.13867 144.513 5.616C144.513 5.01867 144.668 4.496 144.977 4.048C145.287 3.58933 145.703 3.23733 146.225 2.992C146.759 2.736 147.361 2.608 148.033 2.608C148.695 2.608 149.271 2.72533 149.761 2.96C150.252 3.19467 150.663 3.49333 150.993 3.856C151.335 4.21867 151.601 4.59733 151.793 4.992L150.257 5.856C150.119 5.57867 149.943 5.32267 149.729 5.088C149.516 4.84267 149.265 4.65067 148.977 4.512C148.7 4.36267 148.375 4.288 148.001 4.288C147.479 4.288 147.095 4.41067 146.849 4.656C146.604 4.89067 146.481 5.168 146.481 5.488C146.481 5.776 146.567 6.03733 146.737 6.272C146.919 6.496 147.196 6.70933 147.569 6.912C147.943 7.11467 148.428 7.32267 149.025 7.536C149.356 7.65333 149.687 7.80267 150.017 7.984C150.359 8.16533 150.668 8.39467 150.945 8.672C151.223 8.93867 151.441 9.25333 151.601 9.616C151.772 9.97867 151.857 10.4053 151.857 10.896C151.857 11.4187 151.756 11.888 151.553 12.304C151.351 12.72 151.073 13.072 150.721 13.36C150.369 13.6373 149.969 13.8507 149.521 14C149.084 14.16 148.625 14.24 148.145 14.24C147.484 14.24 146.871 14.112 146.305 13.856C145.751 13.5893 145.265 13.2373 144.849 12.8C144.433 12.3627 144.103 11.888 143.857 11.376L145.265 10.4ZM154.963 14V12.336H160.611V14H154.963ZM154.963 4.464V2.8H160.611V4.464H154.963ZM154.963 8.816V7.184H160.291V8.816H154.963ZM153.795 2.8H155.651V14H153.795V2.8ZM163.672 10.4C163.917 10.8267 164.178 11.2053 164.456 11.536C164.744 11.856 165.058 12.1067 165.4 12.288C165.741 12.4587 166.125 12.544 166.552 12.544C167.064 12.544 167.48 12.4053 167.8 12.128C168.12 11.8507 168.28 11.4933 168.28 11.056C168.28 10.64 168.178 10.3093 167.976 10.064C167.773 9.808 167.49 9.59467 167.128 9.424C166.776 9.24267 166.365 9.06667 165.896 8.896C165.618 8.8 165.309 8.672 164.968 8.512C164.626 8.34133 164.301 8.13333 163.992 7.888C163.682 7.632 163.426 7.32267 163.224 6.96C163.021 6.58667 162.92 6.13867 162.92 5.616C162.92 5.01867 163.074 4.496 163.384 4.048C163.693 3.58933 164.109 3.23733 164.632 2.992C165.165 2.736 165.768 2.608 166.44 2.608C167.101 2.608 167.677 2.72533 168.168 2.96C168.658 3.19467 169.069 3.49333 169.4 3.856C169.741 4.21867 170.008 4.59733 170.2 4.992L168.664 5.856C168.525 5.57867 168.349 5.32267 168.136 5.088C167.922 4.84267 167.672 4.65067 167.384 4.512C167.106 4.36267 166.781 4.288 166.408 4.288C165.885 4.288 165.501 4.41067 165.256 4.656C165.01 4.89067 164.888 5.168 164.888 5.488C164.888 5.776 164.973 6.03733 165.144 6.272C165.325 6.496 165.602 6.70933 165.976 6.912C166.349 7.11467 166.834 7.32267 167.432 7.536C167.762 7.65333 168.093 7.80267 168.424 7.984C168.765 8.16533 169.074 8.39467 169.352 8.672C169.629 8.93867 169.848 9.25333 170.008 9.616C170.178 9.97867 170.264 10.4053 170.264 10.896C170.264 11.4187 170.162 11.888 169.96 12.304C169.757 12.72 169.48 13.072 169.128 13.36C168.776 13.6373 168.376 13.8507 167.928 14C167.49 14.16 167.032 14.24 166.552 14.24C165.89 14.24 165.277 14.112 164.712 13.856C164.157 13.5893 163.672 13.2373 163.256 12.8C162.84 12.3627 162.509 11.888 162.264 11.376L163.672 10.4Z" fill="#0D5EF4"/>
<path d="M14 11.5V1.5C14 0.6875 13.3125 0 12.5 0H2.5C1.09375 0 0 1.125 0 2.5V14C0 15.125 0.875 16 2 16H13.5C13.75 16 14 15.7812 14 15.5C14 15.25 13.75 15 13.5 15H13V12.9375C13.5625 12.7188 14 12.1562 14 11.5ZM1 2.5C1 1.6875 1.65625 1 2.5 1H3V12H2C1.625 12 1.28125 12.125 1 12.2812V2.5ZM12 15H2C1.4375 15 1 14.5625 1 14C1 13.4688 1.4375 13 2 13H12V15ZM12.5 12H4V1H12.5C12.75 1 13 1.25 13 1.5V11.5C13 11.7812 12.75 12 12.5 12ZM11 4H6C5.71875 4 5.5 4.25 5.5 4.5C5.5 4.78125 5.71875 5 6 5H11C11.25 5 11.5 4.78125 11.5 4.5C11.5 4.25 11.25 4 11 4ZM11 7H6C5.71875 7 5.5 7.25 5.5 7.5C5.5 7.78125 5.71875 8 6 8H11C11.25 8 11.5 7.78125 11.5 7.5C11.5 7.25 11.25 7 11 7Z" fill="#0D5EF4"/>
</svg>
