<svg width="18" height="14" viewBox="0 0 18 14" fill="none" xmlns="http://www.w3.org/2000/svg">
<path d="M1.6875 0.5C1.21875 0.523438 0.820312 0.6875 0.492188 0.992188C0.1875 1.32031 0.0234375 1.71875 0 2.1875C0.0234375 2.75 0.246094 3.19531 0.667969 3.52344L8.33203 9.28906C8.77734 9.57031 9.22266 9.57031 9.66797 9.28906L17.332 3.52344C17.7539 3.19531 17.9766 2.75 18 2.1875C17.9766 1.71875 17.8125 1.32031 17.5078 0.992188C17.1797 0.6875 16.7812 0.523438 16.3125 0.5H1.6875ZM10.3359 10.168C9.9375 10.4727 9.49219 10.625 9 10.625C8.50781 10.625 8.0625 10.4727 7.66406 10.168L0 4.4375V11.75C0.0234375 12.3828 0.246094 12.9102 0.667969 13.332C1.08984 13.7539 1.61719 13.9766 2.25 14H15.75C16.3828 13.9766 16.9102 13.7539 17.332 13.332C17.7539 12.9102 17.9766 12.3828 18 11.75V4.4375L10.3359 10.168Z" fill="white"/>
</svg>
