<svg width="19" height="19" viewBox="0 0 19 19" fill="none" xmlns="http://www.w3.org/2000/svg">
<path d="M17.9648 13.8555L17.1562 17.4062C16.9922 17.9453 16.6289 18.2266 16.0664 18.25C13.0898 18.2266 10.3945 17.4883 7.98047 16.0352C5.56641 14.6055 3.64453 12.6836 2.21484 10.2695C0.761719 7.85547 0.0234375 5.16016 0 2.18359C0.0234375 1.62109 0.304688 1.25781 0.84375 1.09375L4.39453 0.285156C4.95703 0.191406 5.37891 0.402344 5.66016 0.917969L7.27734 4.71484C7.46484 5.23047 7.35938 5.66406 6.96094 6.01562L5.09766 7.52734C5.68359 8.74609 6.45703 9.83594 7.41797 10.7969C8.37891 11.7578 9.46875 12.543 10.6875 13.1523L12.2344 11.2539C12.5859 10.8555 13.0195 10.75 13.5352 10.9375L17.332 12.5547C17.8242 12.8594 18.0352 13.293 17.9648 13.8555Z" fill="white"/>
</svg>
