<svg width="125" height="173" viewBox="0 0 125 173" fill="none" xmlns="http://www.w3.org/2000/svg">
<path d="M3.4478 119.085C4.16534 119.896 4.07275 121.123 3.26262 121.864C2.45249 122.582 1.20256 122.536 0.485017 121.725C-0.232529 120.915 -0.139938 119.687 0.670195 118.946C1.50348 118.228 2.73025 118.298 3.4478 119.085Z" fill="#0D5EF4"/>
<path d="M12.2898 111.187C13.0074 111.998 12.9148 113.226 12.1047 113.967C11.2945 114.685 10.0446 114.638 9.32706 113.828C8.60951 113.017 8.7021 111.79 9.51224 111.049C10.3455 110.331 11.5723 110.4 12.2898 111.187Z" fill="#0D5EF4"/>
<path d="M21.1319 103.313C21.8494 104.124 21.7568 105.351 20.9467 106.092C20.1366 106.81 18.8866 106.764 18.1691 105.953C17.4516 105.143 17.5441 103.915 18.3543 103.174C19.1876 102.433 20.4143 102.502 21.1319 103.313Z" fill="#0D5EF4"/>
<path d="M29.997 95.4155C30.7146 96.2261 30.622 97.4536 29.8119 98.1947C29.0017 98.9127 27.7518 98.8663 27.0343 98.0557C26.3167 97.2451 26.4093 96.0176 27.2194 95.2765C28.0296 94.5354 29.2795 94.6049 29.997 95.4155Z" fill="#0D5EF4"/>
<path d="M38.8389 87.5183C39.5564 88.3289 39.4639 89.5564 38.6537 90.2975C37.8436 91.0154 36.5937 90.9691 35.8761 90.1585C35.1586 89.3479 35.2512 88.1204 36.0613 87.3793C36.8714 86.6382 38.1214 86.7077 38.8389 87.5183Z" fill="#0D5EF4"/>
<path d="M47.6812 79.6208C48.3987 80.4314 48.3062 81.6589 47.496 82.4C46.6859 83.1179 45.436 83.0716 44.7184 82.261C44.0009 81.4504 44.0935 80.2229 44.9036 79.4818C45.7137 78.7407 46.9636 78.8102 47.6812 79.6208Z" fill="#0D5EF4"/>
<path d="M56.523 71.7233C57.2405 72.5339 57.1479 73.7614 56.3378 74.5025C55.5277 75.2204 54.2778 75.1741 53.5602 74.3635C52.8427 73.5529 52.9353 72.3255 53.7454 71.5844C54.5787 70.8433 55.8054 70.9127 56.523 71.7233Z" fill="#0D5EF4"/>
<path d="M65.3651 63.8253C66.0827 64.6359 65.9901 65.8633 65.18 66.6044C64.3699 67.3224 63.1199 67.2761 62.4024 66.4655C61.6848 65.6549 61.7774 64.4274 62.5876 63.6863C63.4208 62.9684 64.6476 63.0147 65.3651 63.8253Z" fill="#0D5EF4"/>
<path d="M74.2071 55.928C74.9246 56.7386 74.832 57.966 74.0219 58.7072C73.2118 59.4251 71.9618 59.3788 71.2443 58.5682C70.5267 57.7576 70.6193 56.5302 71.4295 55.789C72.2628 55.0711 73.5127 55.1174 74.2071 55.928Z" fill="#0D5EF4"/>
<path d="M83.0723 48.0305C83.7898 48.8411 83.6973 50.0686 82.8871 50.8098C82.077 51.5277 80.8271 51.4814 80.1095 50.6708C79.392 49.8602 79.4846 48.6327 80.2947 47.8916C81.1048 47.1736 82.3548 47.2199 83.0723 48.0305Z" fill="#0D5EF4"/>
<path d="M91.9146 40.1321C92.6321 40.9427 92.5395 42.1702 91.7294 42.9113C90.9193 43.6293 89.6694 43.583 88.9518 42.7724C88.2343 41.9618 88.3269 40.7343 89.137 39.9931C89.9471 39.2752 91.197 39.3215 91.9146 40.1321Z" fill="#0D5EF4"/>
<path d="M100.756 32.2346C101.474 33.0452 101.381 34.2727 100.571 35.0139C99.7611 35.7318 98.5112 35.6855 97.7936 34.8749C97.0761 34.0643 97.1687 32.8368 97.9788 32.0957C98.7889 31.3777 100.039 31.424 100.756 32.2346Z" fill="#0D5EF4"/>
<path d="M109.598 24.3372C110.316 25.1478 110.223 26.3753 109.413 27.1164C108.603 27.8344 107.353 27.788 106.635 26.9774C105.918 26.1668 106.01 24.9393 106.821 24.1982C107.654 23.4803 108.881 23.5266 109.598 24.3372Z" fill="#0D5EF4"/>
<path d="M118.44 16.4398C119.158 17.2504 119.065 18.4779 118.255 19.2191C117.445 19.937 116.195 19.8907 115.478 19.0801C114.76 18.2695 114.853 17.042 115.663 16.3009C116.496 15.5829 117.723 15.6292 118.44 16.4398Z" fill="#0D5EF4"/>
<path d="M127.282 8.54238C128 9.35298 127.907 10.5804 127.097 11.3215C126.287 12.0395 125.037 11.9932 124.32 11.1826C123.602 10.372 123.695 9.14454 124.505 8.40342C125.338 7.68546 126.588 7.73178 127.282 8.54238Z" fill="#0D5EF4"/>
<path d="M12.313 129.021C13.0305 129.831 12.9379 131.059 12.1278 131.8C11.3177 132.518 10.0677 132.472 9.35019 131.661C8.63265 130.85 8.72523 129.623 9.53536 128.882C10.3455 128.164 11.5954 128.233 12.313 129.021Z" fill="#0D5EF4"/>
<path d="M21.155 121.123C21.8726 121.934 21.78 123.161 20.9698 123.902C20.1597 124.62 18.9098 124.574 18.1922 123.763C17.4747 122.953 17.5673 121.725 18.3774 120.984C19.1875 120.266 20.4375 120.336 21.155 121.123Z" fill="#0D5EF4"/>
<path d="M29.997 113.226C30.7145 114.036 30.622 115.264 29.8118 116.005C29.0017 116.723 27.7518 116.676 27.0342 115.866C26.3167 115.055 26.4093 113.828 27.2194 113.087C28.0295 112.369 29.2794 112.438 29.997 113.226Z" fill="#0D5EF4"/>
<path d="M38.839 105.328C39.5566 106.139 39.464 107.366 38.6539 108.107C37.8437 108.825 36.5938 108.779 35.8763 107.968C35.1587 107.158 35.2513 105.93 36.0614 105.189C36.8947 104.471 38.1215 104.541 38.839 105.328Z" fill="#0D5EF4"/>
<path d="M47.6811 97.4307C48.3987 98.2413 48.3061 99.4688 47.496 100.21C46.6858 100.928 45.4359 100.882 44.7184 100.071C44.0008 99.2604 44.0934 98.0329 44.9035 97.2918C45.7368 96.5738 46.9636 96.6433 47.6811 97.4307Z" fill="#0D5EF4"/>
<path d="M56.5229 89.5333C57.2405 90.3439 57.1479 91.5713 56.3377 92.3124C55.5276 93.0304 54.2777 92.9841 53.5602 92.1735C52.8426 91.3629 52.9352 90.1354 53.7453 89.3943C54.5786 88.6763 55.8054 88.7458 56.5229 89.5333Z" fill="#0D5EF4"/>
<path d="M65.3882 81.6358C66.1057 82.4464 66.0131 83.6738 65.203 84.4149C64.3928 85.1329 63.1429 85.0866 62.4254 84.276C61.7078 83.4654 61.8004 82.238 62.6106 81.4968C63.4207 80.7789 64.6706 80.8483 65.3882 81.6358Z" fill="#0D5EF4"/>
<path d="M74.2304 73.7374C74.948 74.548 74.8554 75.7754 74.0453 76.5165C73.2351 77.2345 71.9852 77.1882 71.2677 76.3776C70.5501 75.567 70.6427 74.3395 71.4528 73.5984C72.263 72.8804 73.5129 72.9499 74.2304 73.7374Z" fill="#0D5EF4"/>
<path d="M83.0722 65.863C83.7898 66.6736 83.6972 67.9011 82.8871 68.6422C82.0769 69.3602 80.827 69.3138 80.1095 68.5032C79.3919 67.6926 79.4845 66.4652 80.2946 65.7241C81.1048 64.983 82.3547 65.0524 83.0722 65.863Z" fill="#0D5EF4"/>
<path d="M91.9145 57.9656C92.6321 58.7762 92.5395 60.0036 91.7293 60.7447C90.9192 61.4627 89.6693 61.4164 88.9518 60.6058C88.2342 59.7952 88.3268 58.5677 89.1369 57.8266C89.9702 57.0855 91.197 57.155 91.9145 57.9656Z" fill="#0D5EF4"/>
<path d="M100.756 50.0682C101.474 50.8788 101.381 52.1063 100.571 52.8474C99.7611 53.5654 98.5112 53.519 97.7936 52.7084C97.0761 51.8978 97.1687 50.6704 97.9788 49.9293C98.8121 49.1882 100.039 49.2576 100.756 50.0682Z" fill="#0D5EF4"/>
<path d="M109.598 42.1707C110.316 42.9813 110.223 44.2088 109.413 44.9499C108.603 45.6679 107.353 45.6215 106.636 44.8109C105.918 44.0003 106.011 42.7729 106.821 42.0318C107.654 41.2906 108.904 41.3601 109.598 42.1707Z" fill="#0D5EF4"/>
<path d="M118.464 34.2731C119.181 35.0837 119.089 36.3112 118.278 37.0524C117.468 37.7703 116.218 37.724 115.501 36.9134C114.783 36.1028 114.876 34.8753 115.686 34.1342C116.496 33.3931 117.746 33.4625 118.464 34.2731Z" fill="#0D5EF4"/>
<path d="M127.306 26.3756C128.023 27.1862 127.931 28.4137 127.12 29.1548C126.31 29.8727 125.06 29.8264 124.343 29.0158C123.625 28.2052 123.718 26.9777 124.528 26.2366C125.338 25.4955 126.588 25.565 127.306 26.3756Z" fill="#0D5EF4"/>
<path d="M21.1548 138.956C21.8724 139.767 21.7798 140.994 20.9697 141.735C20.1595 142.453 18.9096 142.407 18.1921 141.597C17.4745 140.786 17.5671 139.558 18.3772 138.817C19.2105 138.099 20.4373 138.146 21.1548 138.956Z" fill="#0D5EF4"/>
<path d="M29.9969 131.059C30.7144 131.87 30.6218 133.097 29.8117 133.838C29.0016 134.556 27.7516 134.51 27.0341 133.699C26.3165 132.889 26.4091 131.661 27.2193 130.92C28.0525 130.202 29.2793 130.248 29.9969 131.059Z" fill="#0D5EF4"/>
<path d="M38.8389 123.161C39.5564 123.972 39.4639 125.2 38.6537 125.941C37.8436 126.659 36.5937 126.612 35.8761 125.802C35.1586 124.991 35.2512 123.764 36.0613 123.022C36.8946 122.304 38.1214 122.351 38.8389 123.161Z" fill="#0D5EF4"/>
<path d="M47.7041 115.264C48.4216 116.074 48.329 117.302 47.5189 118.043C46.7088 118.761 45.4589 118.715 44.7413 117.904C44.0238 117.094 44.1163 115.866 44.9265 115.125C45.7366 114.407 46.9865 114.453 47.7041 115.264Z" fill="#0D5EF4"/>
<path d="M56.5461 107.366C57.2636 108.177 57.171 109.404 56.3609 110.146C55.5507 110.863 54.3008 110.817 53.5833 110.007C52.8657 109.196 52.9583 107.968 53.7685 107.227C54.5786 106.509 55.8285 106.556 56.5461 107.366Z" fill="#0D5EF4"/>
<path d="M65.3882 99.469C66.1058 100.28 66.0132 101.507 65.203 102.248C64.3929 102.966 63.143 102.92 62.4254 102.109C61.7079 101.299 61.8005 100.071 62.6106 99.3301C63.4208 98.6121 64.6707 98.6584 65.3882 99.469Z" fill="#0D5EF4"/>
<path d="M74.2301 91.5712C74.9477 92.3818 74.8551 93.6093 74.045 94.3504C73.2348 95.0684 71.9849 95.0221 71.2674 94.2115C70.5498 93.4009 70.6424 92.1734 71.4525 91.4323C72.2858 90.7143 73.5126 90.7838 74.2301 91.5712Z" fill="#0D5EF4"/>
<path d="M83.0722 83.6737C83.7897 84.4843 83.6971 85.7117 82.887 86.4528C82.0769 87.1708 80.827 87.1245 80.1094 86.3139C79.3919 85.5033 79.4845 84.2758 80.2946 83.5346C81.1279 82.8167 82.3546 82.8862 83.0722 83.6737Z" fill="#0D5EF4"/>
<path d="M91.9142 75.7761C92.6317 76.5867 92.5391 77.8141 91.729 78.5553C90.9188 79.2732 89.6689 79.2269 88.9514 78.4163C88.2338 77.6057 88.3264 76.3783 89.1366 75.6372C89.9698 74.9192 91.1966 74.9887 91.9142 75.7761Z" fill="#0D5EF4"/>
<path d="M100.779 67.8789C101.497 68.6895 101.404 69.9169 100.594 70.658C99.784 71.376 98.5341 71.3297 97.8166 70.5191C97.099 69.7085 97.1916 68.4811 98.0017 67.7399C98.8119 67.022 100.062 67.0915 100.779 67.8789Z" fill="#0D5EF4"/>
<path d="M109.622 59.9814C110.339 60.792 110.247 62.0195 109.436 62.7606C108.626 63.4785 107.376 63.4322 106.659 62.6216C105.941 61.811 106.034 60.5836 106.844 59.8425C107.654 59.1245 108.904 59.194 109.622 59.9814Z" fill="#0D5EF4"/>
<path d="M118.463 52.083C119.181 52.8936 119.088 54.1211 118.278 54.8622C117.468 55.5802 116.218 55.5339 115.501 54.7233C114.783 53.9127 114.876 52.6852 115.686 51.944C116.496 51.2261 117.746 51.2956 118.463 52.083Z" fill="#0D5EF4"/>
<path d="M127.305 44.1855C128.023 44.9961 127.93 46.2236 127.12 46.9648C126.31 47.6827 125.06 47.6364 124.342 46.8258C123.625 46.0152 123.717 44.7877 124.528 44.0466C125.361 43.3286 126.588 43.3981 127.305 44.1855Z" fill="#0D5EF4"/>
<path d="M29.997 148.892C30.7146 149.703 30.622 150.93 29.8119 151.671C29.0017 152.389 27.7518 152.343 27.0343 151.532C26.3167 150.722 26.4093 149.494 27.2194 148.753C28.0527 148.012 29.3026 148.081 29.997 148.892Z" fill="#0D5EF4"/>
<path d="M38.8623 140.995C39.5798 141.805 39.4872 143.033 38.6771 143.774C37.867 144.492 36.6171 144.446 35.8995 143.635C35.182 142.824 35.2746 141.597 36.0847 140.856C36.8948 140.115 38.1447 140.184 38.8623 140.995Z" fill="#0D5EF4"/>
<path d="M47.7041 133.097C48.4216 133.908 48.329 135.135 47.5189 135.876C46.7088 136.594 45.4589 136.548 44.7413 135.737C44.0238 134.927 44.1163 133.699 44.9265 132.958C45.7366 132.217 46.9865 132.287 47.7041 133.097Z" fill="#0D5EF4"/>
<path d="M56.5464 125.2C57.2639 126.01 57.1713 127.238 56.3612 127.979C55.5511 128.697 54.3011 128.651 53.5836 127.84C52.866 127.029 52.9586 125.802 53.7688 125.061C54.602 124.32 55.8288 124.389 56.5464 125.2Z" fill="#0D5EF4"/>
<path d="M65.3883 117.302C66.1058 118.112 66.0132 119.34 65.2031 120.081C64.393 120.799 63.1431 120.753 62.4255 119.942C61.708 119.131 61.8006 117.904 62.6107 117.163C63.444 116.445 64.6707 116.491 65.3883 117.302Z" fill="#0D5EF4"/>
<path d="M74.2304 109.404C74.948 110.215 74.8554 111.443 74.0453 112.184C73.2351 112.902 71.9852 112.855 71.2677 112.045C70.5501 111.234 70.6427 110.007 71.4528 109.265C72.2861 108.548 73.5129 108.594 74.2304 109.404Z" fill="#0D5EF4"/>
<path d="M83.0957 101.507C83.8132 102.318 83.7206 103.545 82.9105 104.286C82.1004 105.004 80.8505 104.958 80.1329 104.147C79.4154 103.337 79.5079 102.109 80.3181 101.368C81.1282 100.65 82.3781 100.696 83.0957 101.507Z" fill="#0D5EF4"/>
<path d="M91.9375 93.6085C92.655 94.4191 92.5624 95.6466 91.7523 96.3878C90.9422 97.1057 89.6923 97.0594 88.9747 96.2488C88.2572 95.4382 88.3497 94.2107 89.1599 93.4696C89.97 92.7516 91.2199 92.7979 91.9375 93.6085Z" fill="#0D5EF4"/>
<path d="M100.78 85.7111C101.497 86.5217 101.405 87.7492 100.595 88.4903C99.7845 89.2083 98.5345 89.162 97.817 88.3514C97.0994 87.5408 97.192 86.3132 98.0022 85.5721C98.8123 84.8542 100.062 84.9005 100.78 85.7111Z" fill="#0D5EF4"/>
<path d="M109.622 77.8136C110.339 78.6242 110.247 79.8517 109.436 80.5928C108.626 81.3108 107.376 81.2645 106.659 80.4539C105.941 79.6433 106.034 78.4158 106.844 77.6747C107.677 76.9567 108.904 77.003 109.622 77.8136Z" fill="#0D5EF4"/>
<path d="M118.464 69.9164C119.181 70.727 119.089 71.9544 118.278 72.6956C117.468 73.4135 116.218 73.3672 115.501 72.5566C114.783 71.746 114.876 70.5186 115.686 69.7774C116.519 69.0595 117.746 69.1058 118.464 69.9164Z" fill="#0D5EF4"/>
<path d="M127.306 62.0188C128.023 62.8294 127.931 64.0569 127.12 64.798C126.31 65.5391 125.06 65.4696 124.343 64.659C123.625 63.8484 123.718 62.621 124.528 61.8799C125.361 61.1619 126.588 61.2082 127.306 62.0188Z" fill="#0D5EF4"/>
<path d="M38.8623 158.805C39.5799 159.615 39.4873 160.843 38.6772 161.584C37.867 162.302 36.6171 162.256 35.8996 161.445C35.182 160.634 35.2746 159.407 36.0847 158.666C36.918 157.948 38.1448 158.017 38.8623 158.805Z" fill="#0D5EF4"/>
<path d="M47.7044 150.907C48.4219 151.718 48.3293 152.945 47.5192 153.686C46.7091 154.404 45.4592 154.358 44.7416 153.547C44.0241 152.737 44.1166 151.509 44.9268 150.768C45.7601 150.05 46.9868 150.12 47.7044 150.907Z" fill="#0D5EF4"/>
<path d="M56.5464 143.01C57.264 143.82 57.1714 145.048 56.3612 145.789C55.5511 146.507 54.3012 146.46 53.5837 145.65C52.8661 144.839 52.9587 143.612 53.7688 142.871C54.6021 142.153 55.8289 142.222 56.5464 143.01Z" fill="#0D5EF4"/>
<path d="M65.3884 135.112C66.1059 135.923 66.0134 137.15 65.2032 137.891C64.3931 138.609 63.1432 138.563 62.4256 137.752C61.7081 136.942 61.8007 135.714 62.6108 134.973C63.4441 134.255 64.694 134.325 65.3884 135.112Z" fill="#0D5EF4"/>
<path d="M74.2535 127.238C74.971 128.049 74.8784 129.276 74.0683 130.017C73.2581 130.735 72.0082 130.689 71.2907 129.878C70.5731 129.068 70.6657 127.84 71.4758 127.099C72.286 126.358 73.5359 126.427 74.2535 127.238Z" fill="#0D5EF4"/>
<path d="M83.0957 119.341C83.8133 120.151 83.7207 121.379 82.9106 122.12C82.1004 122.838 80.8505 122.791 80.133 121.981C79.4154 121.17 79.508 119.943 80.3181 119.202C81.1283 118.46 82.3782 118.53 83.0957 119.341Z" fill="#0D5EF4"/>
<path d="M91.9375 111.443C92.6551 112.254 92.5625 113.481 91.7524 114.222C90.9422 114.94 89.6923 114.894 88.9748 114.083C88.2572 113.273 88.3498 112.045 89.1599 111.304C89.9932 110.563 91.22 110.632 91.9375 111.443Z" fill="#0D5EF4"/>
<path d="M100.78 103.545C101.497 104.355 101.405 105.583 100.595 106.324C99.7845 107.042 98.5346 106.995 97.8171 106.185C97.0995 105.374 97.1921 104.147 98.0022 103.406C98.8355 102.665 100.062 102.734 100.78 103.545Z" fill="#0D5EF4"/>
<path d="M109.622 95.6472C110.339 96.4578 110.247 97.6853 109.436 98.4264C108.626 99.1443 107.376 99.098 106.659 98.2874C105.941 97.4768 106.034 96.2493 106.844 95.5082C107.677 94.7671 108.904 94.8366 109.622 95.6472Z" fill="#0D5EF4"/>
<path d="M118.487 87.7499C119.204 88.5605 119.112 89.788 118.302 90.5291C117.492 91.2471 116.242 91.2008 115.524 90.3902C114.807 89.5796 114.899 88.352 115.709 87.6109C116.519 86.8698 117.769 86.9393 118.487 87.7499Z" fill="#0D5EF4"/>
<path d="M127.329 79.8518C128.047 80.6624 127.954 81.8899 127.144 82.6311C126.334 83.349 125.084 83.3027 124.366 82.4921C123.649 81.6815 123.741 80.454 124.552 79.7129C125.362 78.9949 126.612 79.0412 127.329 79.8518Z" fill="#0D5EF4"/>
<path d="M47.7041 168.74C48.4217 169.55 48.3291 170.778 47.519 171.519C46.7088 172.237 45.4589 172.191 44.7414 171.38C44.0238 170.569 44.1164 169.342 44.9265 168.601C45.7598 167.883 47.0097 167.929 47.7041 168.74Z" fill="#0D5EF4"/>
<path d="M56.5693 160.842C57.2869 161.653 57.1943 162.88 56.3841 163.621C55.574 164.339 54.3241 164.293 53.6065 163.482C52.889 162.672 52.9816 161.444 53.7917 160.703C54.6018 159.985 55.8518 160.032 56.5693 160.842Z" fill="#0D5EF4"/>
<path d="M65.4112 152.944C66.1287 153.755 66.0361 154.982 65.226 155.724C64.4159 156.442 63.166 156.395 62.4484 155.585C61.7309 154.774 61.8234 153.546 62.6336 152.805C63.4437 152.087 64.6936 152.157 65.4112 152.944Z" fill="#0D5EF4"/>
<path d="M74.2534 145.047C74.9709 145.858 74.8784 147.085 74.0682 147.826C73.2581 148.544 72.0082 148.498 71.2906 147.687C70.5731 146.877 70.6657 145.649 71.4758 144.908C72.3091 144.19 73.5359 144.26 74.2534 145.047Z" fill="#0D5EF4"/>
<path d="M83.0954 137.15C83.8129 137.96 83.7203 139.188 82.9102 139.929C82.1001 140.647 80.8502 140.6 80.1326 139.79C79.4151 138.979 79.5076 137.752 80.3178 137.011C81.151 136.293 82.3778 136.362 83.0954 137.15Z" fill="#0D5EF4"/>
<path d="M91.9374 129.252C92.655 130.063 92.5624 131.29 91.7522 132.031C90.9421 132.749 89.6922 132.703 88.9746 131.892C88.2571 131.082 88.3497 129.854 89.1598 129.113C89.9931 128.395 91.2199 128.464 91.9374 129.252Z" fill="#0D5EF4"/>
<path d="M100.779 121.354C101.497 122.165 101.404 123.392 100.594 124.134C99.7841 124.852 98.5342 124.805 97.8167 123.995C97.0991 123.184 97.1917 121.957 98.0018 121.215C98.8351 120.498 100.085 120.567 100.779 121.354Z" fill="#0D5EF4"/>
<path d="M109.645 113.457C110.362 114.267 110.27 115.495 109.459 116.236C108.649 116.954 107.399 116.908 106.682 116.097C105.964 115.287 106.057 114.059 106.867 113.318C107.677 112.6 108.927 112.669 109.645 113.457Z" fill="#0D5EF4"/>
<path d="M118.487 105.56C119.204 106.37 119.112 107.598 118.302 108.339C117.492 109.057 116.242 109.01 115.524 108.2C114.807 107.389 114.899 106.162 115.709 105.421C116.519 104.703 117.769 104.772 118.487 105.56Z" fill="#0D5EF4"/>
<path d="M127.329 97.6621C128.046 98.4727 127.954 99.7002 127.143 100.441C126.333 101.159 125.083 101.113 124.366 100.302C123.648 99.4918 123.741 98.2643 124.551 97.5231C125.384 96.8052 126.611 96.8747 127.329 97.6621Z" fill="#0D5EF4"/>
</svg>
