<svg width="326" height="231" viewBox="0 0 326 231" fill="none" xmlns="http://www.w3.org/2000/svg">
<path opacity="0.1" d="M325.965 222.511L322.492 31.0507L319.071 219.546L312.141 220.688C308.91 221.046 305.684 221.473 302.453 221.778L297.597 222.107C295.978 222.217 294.36 222.355 292.741 222.355C289.498 222.407 286.261 222.557 283.024 222.413C281.405 222.366 279.787 222.349 278.168 222.28L273.318 221.957L270.893 221.79L268.474 221.536L263.641 221.017C260.427 220.556 257.213 220.163 254.004 219.575C250.796 219.062 247.582 218.416 244.373 217.805L234.696 215.78L229.817 214.748C228.182 214.408 226.557 214.056 224.893 213.739C221.598 213.07 218.234 212.481 214.824 211.974L212.243 211.639L210.953 211.472L210.308 211.391L209.525 211.328L207.048 211.138L205.809 211.04C205.4 211.005 204.991 210.97 204.519 210.97L201.783 210.913C200.879 210.901 199.94 210.855 199.07 210.907L196.409 211.005L195.078 211.057L193.748 211.172L191.092 211.415C190.205 211.49 189.324 211.651 188.442 211.766C186.755 211.974 185.084 212.308 183.414 212.637C185.632 211.668 187.884 210.797 190.153 209.967C191.559 209.506 192.97 208.981 194.37 208.6L196.472 207.977L198.684 207.424L199.79 207.147L200.066 207.078L200.285 207.037L200.827 206.933L202.981 206.512C203.695 206.351 204.433 206.293 205.158 206.184C205.89 206.091 206.616 205.982 207.347 205.901C210.291 205.636 213.246 205.457 216.229 205.492L218.464 205.503L220.711 205.584C222.208 205.618 223.706 205.734 225.209 205.82C226.707 205.913 228.216 206.051 229.72 206.166L234.241 206.587L243.331 207.499C246.366 207.804 249.425 208.064 252.495 208.271C254.027 208.387 255.594 208.433 257.138 208.519C257.91 208.548 258.664 208.554 259.424 208.571L260.565 208.594L261.135 208.606C261.383 208.617 261.544 208.6 261.752 208.6C264.891 208.554 268.019 208.364 271.1 207.925L273.41 207.614L275.703 207.204C277.235 206.956 278.744 206.61 280.253 206.282C281.768 205.97 283.254 205.549 284.757 205.186C286.244 204.776 287.736 204.373 289.21 203.929C292.165 203.046 295.08 202.06 297.977 201.01C300.874 199.944 303.714 198.825 306.577 197.544L307.579 197.095L307.573 195.993L306.444 0.807406L306.439 0.0346019L305.69 0.265287L299.791 2.06466C298.806 2.34726 297.833 2.69906 296.831 2.92975L293.835 3.66795L290.84 4.40615L289.343 4.77525C288.841 4.89636 288.335 4.9771 287.828 5.08668L281.768 6.28626C280.76 6.50541 279.74 6.64383 278.721 6.80531L275.668 7.27822L272.615 7.75114C271.596 7.90108 270.57 8.00489 269.551 8.13177C267.506 8.36822 265.461 8.63352 263.41 8.8469L257.247 9.38326C256.222 9.4813 255.191 9.55051 254.165 9.60818L251.078 9.79273L247.991 9.97728L244.897 10.0811C242.835 10.1445 240.773 10.2483 238.711 10.2483C236.649 10.2599 234.587 10.3233 232.525 10.3002C230.463 10.2772 228.4 10.2887 226.338 10.231C224.276 10.1676 222.214 10.1445 220.152 10.0407L217.059 9.90807L213.971 9.72929C211.909 9.60241 209.853 9.45246 207.796 9.26214C209.847 9.47553 211.903 9.64854 213.966 9.79849L217.053 10.0119L220.146 10.1791C222.208 10.306 224.27 10.3521 226.333 10.4387C228.395 10.5194 230.463 10.5309 232.525 10.5771C234.587 10.6232 236.655 10.5886 238.717 10.6001C240.779 10.6232 242.847 10.5425 244.909 10.5021L248.008 10.4329L251.101 10.2829L254.194 10.133C255.225 10.0926 256.256 10.035 257.287 9.94844L263.468 9.4813C265.524 9.29098 267.575 9.04875 269.631 8.83537C270.657 8.72002 271.688 8.62775 272.713 8.48934L275.783 8.05103L278.853 7.61272C279.879 7.46277 280.904 7.3359 281.918 7.12828L288.018 5.9979C288.525 5.89986 289.037 5.81912 289.538 5.70377L291.048 5.35197L294.072 4.64261L297.096 3.93324C298.109 3.71408 299.089 3.37382 300.085 3.09699L305.292 1.57445L304.175 194.863C301.767 195.878 299.273 196.829 296.785 197.712C293.945 198.704 291.076 199.632 288.191 200.463C286.745 200.884 285.293 201.258 283.842 201.639C282.379 201.974 280.927 202.366 279.458 202.648C277.989 202.943 276.526 203.265 275.052 203.485L272.84 203.854L270.622 204.125C267.667 204.505 264.707 204.65 261.763 204.661C261.59 204.661 261.366 204.673 261.239 204.661L260.669 204.644L259.528 204.609C258.768 204.58 258.002 204.569 257.253 204.528C255.761 204.43 254.286 204.367 252.783 204.24C249.782 204.004 246.775 203.71 243.757 203.375L234.685 202.36L230.123 201.881C228.591 201.749 227.07 201.587 225.532 201.478C223.994 201.374 222.462 201.235 220.912 201.184L218.597 201.074L216.27 201.034C213.165 200.964 210.037 201.114 206.909 201.362C206.126 201.437 205.348 201.547 204.565 201.639C203.782 201.743 202.998 201.801 202.226 201.962L199.894 202.389L199.312 202.493L199.168 202.521L199.093 202.533L198.972 202.562L198.695 202.625L197.584 202.891L195.36 203.421L193.074 204.067C191.53 204.477 190.078 204.996 188.586 205.469C185.649 206.501 182.728 207.597 179.889 208.877C177.043 210.134 174.244 211.495 171.508 212.977L169.463 214.108L167.441 215.29C166.756 215.7 166.087 216.109 165.419 216.536L163.012 20.6063L160.598 216.507C159.93 216.08 159.262 215.671 158.576 215.261L156.554 214.079L154.51 212.949C151.774 211.466 148.974 210.105 146.129 208.848C143.289 207.574 140.374 206.478 137.431 205.44C135.939 204.973 134.487 204.448 132.944 204.038L130.657 203.392L128.433 202.862L127.322 202.596L127.045 202.527L126.924 202.504L126.849 202.493L126.705 202.464L126.124 202.36L123.791 201.933C123.013 201.772 122.23 201.714 121.452 201.61C120.669 201.518 119.891 201.414 119.108 201.333C115.98 201.085 112.852 200.941 109.748 201.005L107.421 201.045L105.105 201.155C103.556 201.207 102.023 201.345 100.485 201.449C98.9474 201.558 97.4267 201.72 95.8946 201.853L91.3268 202.331L82.2546 203.346C79.2363 203.681 76.2295 203.975 73.2285 204.211C71.7251 204.344 70.2505 204.402 68.7586 204.5C68.0098 204.54 67.2379 204.552 66.4834 204.58L65.3429 204.615L64.7726 204.632C64.6401 204.644 64.4212 204.632 64.2484 204.632C61.305 204.615 58.3385 204.477 55.3894 204.096L53.1717 203.825L50.9598 203.456C49.4852 203.237 48.0222 202.914 46.5533 202.614C45.0845 202.331 43.6329 201.939 42.1699 201.605C40.7183 201.218 39.2668 200.849 37.821 200.428C34.9294 199.603 32.0666 198.669 29.2269 197.677C26.7385 196.795 24.2501 195.843 21.8424 194.828L20.7249 1.53985L25.9321 3.06239C26.9286 3.33922 27.9078 3.67948 28.9216 3.89863L31.9457 4.608L34.9697 5.31737L36.4789 5.66917C36.9858 5.78452 37.4926 5.86525 37.9995 5.9633L44.0995 7.09368C45.1133 7.3013 46.1386 7.43394 47.1639 7.57812L50.234 8.01642L53.3042 8.45474C54.3295 8.59315 55.3606 8.68542 56.3859 8.80077C58.4422 9.01415 60.4928 9.25638 62.5492 9.4467L68.7298 9.91384C69.7609 10.0004 70.7919 10.058 71.823 10.0984L74.9162 10.2483L78.0094 10.3983L81.1083 10.4675C83.1704 10.5079 85.2383 10.5886 87.3004 10.5655C89.3683 10.554 91.4305 10.5886 93.4926 10.5425C95.5547 10.4963 97.6226 10.479 99.6847 10.4041C101.747 10.3175 103.809 10.2714 105.871 10.1445L108.964 9.97728L112.052 9.76389C114.108 9.61394 116.164 9.44093 118.221 9.22754C116.164 9.41786 114.108 9.56781 112.046 9.69469L108.959 9.87347L105.865 10.0061C103.803 10.1099 101.741 10.133 99.6789 10.1964C97.6168 10.2541 95.5547 10.2426 93.4926 10.2656C91.4305 10.2887 89.3683 10.231 87.3062 10.2137C85.2441 10.208 83.1819 10.1042 81.1198 10.0465L78.0266 9.94267L74.9392 9.75813L71.8518 9.57357C70.8207 9.52167 69.7954 9.45246 68.7701 9.34865L62.6125 8.8123C60.5619 8.59892 58.5171 8.33362 56.4723 8.09717C55.4527 7.97029 54.4274 7.86648 53.4021 7.71654L50.3492 7.24362L47.2964 6.7707C46.2768 6.60922 45.2573 6.47081 44.2493 6.25166L38.1896 5.05208C37.6885 4.94827 37.1758 4.86176 36.6747 4.74065L35.1771 4.37155L32.1818 3.63335L29.1865 2.89514C28.1843 2.66446 27.2108 2.31266 26.2258 2.03006L20.3275 0.230685L19.5787 0L19.5729 0.772805L18.4439 195.958L18.4382 197.06L19.4404 197.51C22.3032 198.796 25.1429 199.909 28.0403 200.976C30.9376 202.026 33.8522 203.012 36.8072 203.894C38.2818 204.338 39.7737 204.742 41.2598 205.151C42.7632 205.515 44.2493 205.93 45.7642 206.247C47.2791 206.57 48.7825 206.922 50.3147 207.17L52.6072 207.579L54.917 207.891C57.9987 208.323 61.1264 208.514 64.2657 208.566C64.4731 208.566 64.6286 208.583 64.882 208.571L65.4523 208.56L66.5928 208.537L68.8796 208.485C70.4233 208.404 71.9958 208.352 73.5222 208.237C76.5924 208.029 79.651 207.77 82.6866 207.464L91.7761 206.553L96.2978 206.132C97.8011 206.016 99.3045 205.878 100.808 205.786C102.306 205.699 103.809 205.584 105.307 205.549L107.553 205.469L109.788 205.457C112.772 205.428 115.732 205.607 118.67 205.866C119.402 205.947 120.127 206.057 120.859 206.149C121.585 206.259 122.322 206.316 123.036 206.478L125.191 206.899L125.732 207.003L125.951 207.043L126.227 207.112L127.333 207.389L129.545 207.943L131.648 208.566C133.047 208.952 134.459 209.477 135.864 209.938C138.134 210.763 140.386 211.639 142.603 212.608C140.933 212.28 139.263 211.945 137.575 211.738C136.688 211.622 135.812 211.461 134.925 211.386L132.264 211.143L130.933 211.028L129.603 210.976L126.942 210.878C126.072 210.826 125.133 210.878 124.229 210.884L121.493 210.942C121.02 210.942 120.611 210.976 120.202 211.011L118.964 211.109L116.487 211.299L115.704 211.363L115.058 211.443L113.768 211.611L111.188 211.945C107.783 212.453 104.42 213.047 101.119 213.71C99.4543 214.027 97.83 214.373 96.1941 214.719L91.3153 215.751L81.6382 217.776C78.4299 218.387 75.2157 219.033 72.0073 219.546C68.7989 220.135 65.5848 220.527 62.3706 220.988L57.5379 221.507L55.1186 221.761L52.6994 221.928L47.8494 222.251C46.2308 222.32 44.6122 222.338 42.9936 222.384C39.7564 222.528 36.5192 222.384 33.2762 222.326C31.6519 222.326 30.039 222.188 28.4205 222.078L23.5647 221.749C20.3332 221.444 17.1076 221.017 13.8761 220.659L6.94671 219.517L3.5252 31.0218L0.051839 222.482L0 225.319L2.8167 225.89L12.7299 227.897C16.0708 228.393 19.4001 228.953 22.7525 229.397L27.7984 229.927C29.4803 230.1 31.1623 230.302 32.8557 230.366C36.2369 230.544 39.6181 230.815 43.0108 230.792C44.7043 230.81 46.4036 230.85 48.097 230.839L53.1832 230.689L55.7234 230.608L58.2579 230.435C59.9456 230.314 61.6391 230.216 63.3268 230.077C66.6907 229.72 70.0661 229.426 73.4013 228.947C76.7594 228.537 80.0657 227.99 83.3893 227.482L93.2449 225.792L98.1295 224.944C99.7481 224.668 101.378 224.379 102.98 224.137C106.199 223.606 109.391 223.168 112.553 222.811L114.914 222.591L116.095 222.482L116.677 222.43L116.833 222.424L117.144 222.413L119.626 222.315L120.87 222.263C121.285 222.245 121.706 222.222 122.063 222.245L124.298 222.292C125.047 222.315 125.772 222.292 126.55 222.366L128.854 222.534L130.006 222.614L131.147 222.759L133.433 223.047C134.194 223.139 134.942 223.307 135.697 223.433C137.212 223.67 138.692 224.039 140.178 224.379C143.128 225.135 146.031 226.04 148.813 227.171L150.869 228.053C151.532 228.376 152.211 228.682 152.862 229.016C153.507 229.356 154.158 229.685 154.763 230.043C155.08 230.216 155.362 230.394 155.65 230.567C155.794 230.654 155.938 230.746 156.053 230.821L156.238 230.942C156.307 230.988 156.301 230.988 156.318 230.994L156.312 231H169.688L169.682 230.994C169.693 230.983 169.687 230.983 169.757 230.942L169.941 230.821C170.056 230.74 170.2 230.654 170.344 230.567C170.632 230.389 170.914 230.216 171.231 230.043C171.836 229.685 172.487 229.351 173.132 229.016C173.783 228.682 174.463 228.376 175.125 228.053L177.181 227.171C179.964 226.04 182.867 225.141 185.816 224.379C187.302 224.033 188.782 223.67 190.297 223.433C191.052 223.307 191.801 223.139 192.561 223.047L194.848 222.759L195.994 222.614L197.146 222.534L199.45 222.366C200.233 222.286 200.953 222.315 201.702 222.292L203.937 222.245C204.294 222.228 204.715 222.245 205.13 222.263L206.374 222.315L208.856 222.413L209.167 222.424L209.323 222.43H209.334L209.905 222.482L211.086 222.591L213.447 222.811C216.609 223.168 219.795 223.606 223.02 224.137C224.622 224.379 226.246 224.668 227.871 224.944L232.755 225.792L242.611 227.482C245.934 227.99 249.246 228.537 252.599 228.947C255.934 229.431 259.315 229.72 262.673 230.077C264.361 230.216 266.054 230.314 267.742 230.435L270.277 230.608L272.817 230.689L277.903 230.839C279.596 230.844 281.296 230.804 282.989 230.792C286.382 230.815 289.763 230.544 293.144 230.366C294.838 230.302 296.52 230.1 298.202 229.927L303.248 229.397C306.6 228.953 309.935 228.393 313.27 227.897L323.183 225.89L326 225.319L325.965 222.511Z" fill="#0D5EF4"/>
</svg>
