<svg width="16" height="17" viewBox="0 0 16 17" fill="none" xmlns="http://www.w3.org/2000/svg">
<path d="M8 4.20703C9.14844 4.23047 10.0977 4.62891 10.8477 5.40234C11.6211 6.15234 12.0195 7.10156 12.043 8.25C12.0195 9.39844 11.6211 10.3477 10.8477 11.0977C10.0977 11.8711 9.14844 12.2695 8 12.293C6.85156 12.2695 5.90234 11.8711 5.15234 11.0977C4.37891 10.3477 3.98047 9.39844 3.95703 8.25C3.98047 7.10156 4.37891 6.15234 5.15234 5.40234C5.90234 4.62891 6.85156 4.23047 8 4.20703ZM8 10.8867C8.75 10.8633 9.37109 10.6055 9.86328 10.1133C10.3555 9.62109 10.6133 9 10.6367 8.25C10.6133 7.5 10.3555 6.87891 9.86328 6.38672C9.37109 5.89453 8.75 5.63672 8 5.61328C7.25 5.63672 6.62891 5.89453 6.13672 6.38672C5.64453 6.87891 5.38672 7.5 5.36328 8.25C5.38672 9 5.64453 9.62109 6.13672 10.1133C6.62891 10.6055 7.25 10.8633 8 10.8867ZM13.168 4.03125C13.1445 3.77344 13.0508 3.55078 12.8867 3.36328C12.6992 3.19922 12.4766 3.11719 12.2188 3.11719C11.9375 3.11719 11.7148 3.19922 11.5508 3.36328C11.3633 3.55078 11.2695 3.77344 11.2695 4.03125C11.3164 4.61719 11.6328 4.93359 12.2188 4.98047C12.7812 4.93359 13.0977 4.61719 13.168 4.03125ZM15.8398 5.01562V4.98047C15.8633 5.44922 15.875 6.11719 15.875 6.98438C15.875 7.82812 15.875 8.67188 15.875 9.51562C15.875 10.3594 15.8633 11.0156 15.8398 11.4844C15.8398 12.7734 15.4062 13.875 14.5391 14.7891C13.625 15.6562 12.5352 16.0781 11.2695 16.0547C10.8008 16.0781 10.1328 16.1016 9.26562 16.125C8.42188 16.125 7.57812 16.125 6.73438 16.125C5.86719 16.1016 5.21094 16.0781 4.76562 16.0547C3.47656 16.0781 2.375 15.6562 1.46094 14.7891C0.59375 13.875 0.171875 12.7734 0.195312 11.4844C0.148438 11.0156 0.125 10.3594 0.125 9.51562C0.125 8.67188 0.125 7.82812 0.125 6.98438C0.125 6.11719 0.148438 5.44922 0.195312 4.98047C0.171875 3.71484 0.59375 2.625 1.46094 1.71094C2.39844 0.84375 3.5 0.410156 4.76562 0.410156C5.21094 0.386719 5.86719 0.375 6.73438 0.375C7.57812 0.375 8.42188 0.375 9.26562 0.375C10.1328 0.375 10.8008 0.386719 11.2695 0.410156C12.5352 0.410156 13.625 0.84375 14.5391 1.71094C15.4062 2.625 15.8398 3.72656 15.8398 5.01562ZM14.1523 12.8906C14.3164 12.4219 14.4102 11.7891 14.4336 10.9922C14.4805 10.1953 14.4922 9.46875 14.4688 8.8125C14.4688 8.60156 14.4688 8.41406 14.4688 8.25C14.4688 8.08594 14.4688 7.89844 14.4688 7.6875C14.4922 7.03125 14.4805 6.30469 14.4336 5.50781C14.4102 4.71094 14.3164 4.07812 14.1523 3.60938C13.8477 2.90625 13.3438 2.40234 12.6406 2.09766C12.1719 1.93359 11.5391 1.83984 10.7422 1.81641C9.94531 1.79297 9.21875 1.78125 8.5625 1.78125C8.35156 1.78125 8.16406 1.78125 8 1.78125C7.83594 1.78125 7.64844 1.78125 7.4375 1.78125C6.78125 1.75781 6.05469 1.76953 5.25781 1.81641C4.48438 1.83984 3.85156 1.93359 3.35938 2.09766C2.65625 2.40234 2.15234 2.90625 1.84766 3.60938C1.68359 4.07812 1.58984 4.71094 1.56641 5.50781C1.54297 6.30469 1.53125 7.03125 1.53125 7.6875C1.53125 7.89844 1.53125 8.08594 1.53125 8.25C1.53125 8.41406 1.53125 8.60156 1.53125 8.8125C1.53125 9.46875 1.54297 10.1953 1.56641 10.9922C1.58984 11.7656 1.68359 12.3984 1.84766 12.8906C2.15234 13.5938 2.65625 14.0977 3.35938 14.4023C3.85156 14.5664 4.48438 14.6602 5.25781 14.6836C6.05469 14.707 6.78125 14.7188 7.4375 14.7188C7.64844 14.7188 7.83594 14.7188 8 14.7188C8.16406 14.7188 8.35156 14.7188 8.5625 14.7188C9.21875 14.7188 9.94531 14.707 10.7422 14.6836C11.5391 14.6602 12.1719 14.5664 12.6406 14.4023C13.3438 14.0977 13.8477 13.5938 14.1523 12.8906Z" fill="#0F2239"/>
</svg>
