<svg width="18" height="16" viewBox="0 0 18 16" fill="none" xmlns="http://www.w3.org/2000/svg">
<path d="M16.1367 4.59375C16.1602 4.75781 16.1719 4.91016 16.1719 5.05078C16.1719 6.71484 15.7617 8.34375 14.9414 9.9375C14.1445 11.5312 12.9609 12.8555 11.3906 13.9102C9.84375 14.9648 7.93359 15.5156 5.66016 15.5625C3.55078 15.5391 1.66406 14.9883 0 13.9102C0.28125 13.9336 0.574219 13.9453 0.878906 13.9453C2.63672 13.9219 4.17188 13.3945 5.48438 12.3633C4.64062 12.3398 3.91406 12.0938 3.30469 11.625C2.69531 11.1562 2.27344 10.5586 2.03906 9.83203C2.25 9.85547 2.47266 9.86719 2.70703 9.86719C3.05859 9.86719 3.38672 9.83203 3.69141 9.76172C2.82422 9.57422 2.12109 9.15234 1.58203 8.49609C1.04297 7.83984 0.761719 7.05469 0.738281 6.14062V6.07031C1.23047 6.35156 1.78125 6.51562 2.39062 6.5625C1.35938 5.83594 0.808594 4.80469 0.738281 3.46875C0.761719 2.78906 0.9375 2.16797 1.26562 1.60547C2.17969 2.73047 3.29297 3.63281 4.60547 4.3125C5.89453 4.99219 7.3125 5.37891 8.85938 5.47266C8.8125 5.19141 8.78906 4.91016 8.78906 4.62891C8.8125 3.59766 9.16406 2.73047 9.84375 2.02734C10.5469 1.32422 11.4141 0.960938 12.4453 0.9375C13.5469 0.960938 14.4492 1.34766 15.1523 2.09766C15.9961 1.93359 16.7812 1.64062 17.5078 1.21875C17.2031 2.08594 16.6641 2.76562 15.8906 3.25781C16.6172 3.16406 17.3203 2.96484 18 2.66016C17.4844 3.41016 16.8633 4.05469 16.1367 4.59375Z" fill="#0F2239"/>
</svg>
