<svg width="89" height="84" viewBox="0 0 89 84" fill="none" xmlns="http://www.w3.org/2000/svg">
<path d="M76.3948 12.3447L76.4411 18.8527C76.4411 19.9875 77.3901 20.9139 78.5242 20.8908C79.6584 20.8676 80.5843 19.9412 80.5843 18.7832L80.538 12.7153L86.5793 13.2711C87.7135 13.3869 88.7319 12.53 88.8477 11.3952C88.9634 10.2603 88.1301 9.24129 86.9728 9.14865L80.4917 8.54647L80.4454 2.03852C80.4454 0.903676 79.4964 -0.022735 78.3622 0.000425007C77.8298 0.000425007 77.3438 0.208878 76.9734 0.556278C76.5568 0.949998 76.3022 1.50583 76.3022 2.10799L76.3485 8.17594L70.3072 7.62008C69.7054 7.57376 69.1267 7.7822 68.7101 8.15275C68.3397 8.50016 68.0851 8.96336 68.0388 9.49604C67.9231 10.6309 68.7563 11.6499 69.9137 11.7426L76.3948 12.3447Z" fill="#0D5EF4"/>
<path d="M42.3923 43.657L42.4386 50.1649C42.4386 51.2998 43.3876 52.2262 44.5218 52.203C45.656 52.1798 46.5819 51.2534 46.5819 50.0954L46.5356 44.0275L52.5769 44.5834C53.711 44.6992 54.7295 43.8422 54.8452 42.7074C54.961 41.5726 54.1277 40.5535 52.9703 40.4609L46.4893 39.8587L46.443 33.3508C46.443 32.2159 45.494 31.2895 44.3598 31.3127C43.8274 31.3127 43.3413 31.5211 42.971 31.8685C42.5543 32.2623 42.2997 32.8181 42.2997 33.4202L42.346 39.4882L36.3047 38.9323C35.7029 38.886 35.1243 39.0945 34.7076 39.465C34.3373 39.8124 34.1058 40.2756 34.0364 40.8083C33.9206 41.9431 34.7539 42.9622 35.9113 43.0548L42.3923 43.657Z" fill="#0D5EF4"/>
<path d="M8.36668 74.9924L8.41297 81.5004C8.41297 82.6352 9.36198 83.5616 10.4962 83.5385C11.6304 83.5153 12.5562 82.5889 12.5562 81.4309L12.5099 75.363L18.5512 75.9188C19.7085 76.0346 20.7038 75.1777 20.8196 74.0428C20.9353 72.908 20.102 71.889 18.9447 71.7963L12.4636 71.1942L12.4173 64.6862C12.4173 63.5514 11.4683 62.625 10.3341 62.6481C9.80177 62.6481 9.31569 62.8566 8.94535 63.204C8.52871 63.5977 8.27409 64.1535 8.27409 64.7557L8.32038 70.8236L2.2791 70.2678C1.67729 70.2215 1.09863 70.4299 0.681987 70.8005C0.31164 71.1479 0.0801715 71.6111 0.0107315 72.1437C-0.105002 73.2786 0.728281 74.2976 1.88561 74.3903L8.36668 74.9924Z" fill="#0D5EF4"/>
</svg>
