<svg width="17" height="17" viewBox="0 0 17 17" fill="none" xmlns="http://www.w3.org/2000/svg">
<path d="M15.9688 13.0938L15.25 16.25C15.1042 16.7292 14.7812 16.9792 14.2812 17C11.6354 16.9792 9.23958 16.3229 7.09375 15.0312C4.94792 13.7604 3.23958 12.0521 1.96875 9.90625C0.677083 7.76042 0.0208333 5.36458 0 2.71875C0.0208333 2.21875 0.270833 1.89583 0.75 1.75L3.90625 1.03125C4.40625 0.947917 4.78125 1.13542 5.03125 1.59375L6.46875 4.96875C6.63542 5.42708 6.54167 5.8125 6.1875 6.125L4.53125 7.46875C5.05208 8.55208 5.73958 9.52083 6.59375 10.375C7.44792 11.2292 8.41667 11.9271 9.5 12.4688L10.875 10.7812C11.1875 10.4271 11.5729 10.3333 12.0312 10.5L15.4062 11.9375C15.8438 12.2083 16.0312 12.5938 15.9688 13.0938Z" fill="#0D5EF4"/>
</svg>
