<svg width="14" height="16" viewBox="0 0 14 16" fill="none" xmlns="http://www.w3.org/2000/svg">
<path d="M14 11.5C13.9583 12.1875 13.625 12.6562 13 12.9062V15H13.5C13.8125 15.0208 13.9792 15.1875 14 15.5C13.9792 15.8125 13.8125 15.9792 13.5 16H2C1.4375 15.9792 0.96875 15.7812 0.59375 15.4062C0.21875 15.0312 0.0208333 14.5625 0 14V2.5C0.0208333 1.79167 0.260417 1.19792 0.71875 0.71875C1.19792 0.260417 1.79167 0.0208333 2.5 0H12.5C12.9167 0.0208333 13.2708 0.166667 13.5625 0.4375C13.8333 0.729167 13.9792 1.08333 14 1.5V11.5ZM1 2.5V12.2812C1.29167 12.0938 1.625 12 2 12H3V1H2.5C2.08333 1.02083 1.72917 1.16667 1.4375 1.4375C1.16667 1.72917 1.02083 2.08333 1 2.5ZM12 15V13H2C1.70833 13 1.46875 13.0938 1.28125 13.2812C1.09375 13.4688 1 13.7083 1 14C1 14.2917 1.09375 14.5312 1.28125 14.7188C1.46875 14.9062 1.70833 15 2 15H12ZM12.5 12C12.8125 11.9792 12.9792 11.8125 13 11.5V1.5C12.9792 1.1875 12.8125 1.02083 12.5 1H4V12H12.5ZM11 4C11.3125 4.02083 11.4792 4.1875 11.5 4.5C11.4792 4.8125 11.3125 4.97917 11 5H6C5.6875 4.97917 5.52083 4.8125 5.5 4.5C5.52083 4.1875 5.6875 4.02083 6 4H11ZM11 7C11.3125 7.02083 11.4792 7.1875 11.5 7.5C11.4792 7.8125 11.3125 7.97917 11 8H6C5.6875 7.97917 5.52083 7.8125 5.5 7.5C5.52083 7.1875 5.6875 7.02083 6 7H11Z" fill="white"/>
</svg>
