<svg width="22" height="23" viewBox="0 0 22 23" fill="none" xmlns="http://www.w3.org/2000/svg">
<g filter="url(#filter0_d_46_426)">
<path d="M10.2889 1.26831C10.4165 0.940186 10.6535 0.767008 10.9998 0.748779C11.3462 0.767008 11.5832 0.940186 11.7108 1.26831L13.0779 5.56128H17.2615C17.7173 5.59774 17.9634 5.84383 17.9998 6.29956C17.9998 6.53654 17.8904 6.72795 17.6717 6.87378L14.1443 9.44409L15.5115 14.0105C15.5662 14.211 15.5389 14.3842 15.4295 14.53C15.3201 14.6759 15.1743 14.7488 14.992 14.7488C14.8644 14.7488 14.7459 14.7123 14.6365 14.6394L10.9998 11.7957L7.3631 14.6394C7.25372 14.7123 7.13523 14.7488 7.00763 14.7488C6.82534 14.7488 6.6795 14.6759 6.57013 14.53C6.46075 14.3842 6.43341 14.211 6.4881 14.0105L7.85529 9.44409L4.3006 6.87378C4.10008 6.72795 3.99982 6.53654 3.99982 6.29956C4.03628 5.84383 4.28237 5.59774 4.7381 5.56128H8.92169L10.2889 1.26831ZM10.9998 1.9519L9.65997 6.1355C9.58706 6.31779 9.45034 6.41805 9.24982 6.43628H5.1756L8.62091 8.92456C8.78497 9.05216 8.83966 9.21623 8.78497 9.41675L7.60919 13.3542L10.7264 10.8933C10.8904 10.7839 11.0727 10.7839 11.2733 10.8933L14.4178 13.3542L13.2147 9.41675C13.16 9.21623 13.2147 9.05216 13.3787 8.92456L16.824 6.43628H12.7498C12.5493 6.41805 12.4126 6.31779 12.3397 6.1355L10.9998 1.9519Z" fill="#0D5EF4"/>
</g>
<defs>
<filter id="filter0_d_46_426" x="-0.000183105" y="0.748779" width="22" height="22" filterUnits="userSpaceOnUse" color-interpolation-filters="sRGB">
<feFlood flood-opacity="0" result="BackgroundImageFix"/>
<feColorMatrix in="SourceAlpha" type="matrix" values="0 0 0 0 0 0 0 0 0 0 0 0 0 0 0 0 0 0 127 0" result="hardAlpha"/>
<feOffset dy="4"/>
<feGaussianBlur stdDeviation="2"/>
<feComposite in2="hardAlpha" operator="out"/>
<feColorMatrix type="matrix" values="0 0 0 0 0 0 0 0 0 0 0 0 0 0 0 0 0 0 0.25 0"/>
<feBlend mode="normal" in2="BackgroundImageFix" result="effect1_dropShadow_46_426"/>
<feBlend mode="normal" in="SourceGraphic" in2="effect1_dropShadow_46_426" result="shape"/>
</filter>
</defs>
</svg>
