<svg width="16" height="15" viewBox="0 0 16 15" fill="none" xmlns="http://www.w3.org/2000/svg">
<path d="M10.0233 5.56128H14.3436C14.6535 5.57951 14.8631 5.72534 14.9725 5.99878C15.0454 6.29045 14.9725 6.53654 14.7537 6.73706L11.1717 9.52612L12.5662 13.9011C12.6391 14.1928 12.5571 14.4389 12.3201 14.6394C12.0467 14.8035 11.7824 14.7944 11.5272 14.6121L7.99982 11.8503L4.47247 14.6121C4.21726 14.7944 3.95294 14.8035 3.6795 14.6394C3.44253 14.4389 3.36049 14.1928 3.43341 13.9011L4.82794 9.52612L1.24591 6.73706C1.02716 6.53654 0.954244 6.29045 1.02716 5.99878C1.13654 5.72534 1.34617 5.57951 1.65607 5.56128H6.00372L7.37091 1.21362C7.48029 0.921956 7.68992 0.767008 7.99982 0.748779C8.30971 0.767008 8.51935 0.921956 8.62872 1.21362L10.0233 5.56128Z" fill="#0D5EF4"/>
</svg>
