<svg width="13" height="15" viewBox="0 0 13 15" fill="none" xmlns="http://www.w3.org/2000/svg">
<path d="M6.125 7.75C5.14062 7.73177 4.3112 7.39453 3.63672 6.73828C2.98047 6.0638 2.64323 5.23438 2.625 4.25C2.64323 3.26562 2.98047 2.4362 3.63672 1.76172C4.3112 1.10547 5.14062 0.768229 6.125 0.75C7.10938 0.768229 7.9388 1.10547 8.61328 1.76172C9.26953 2.4362 9.60677 3.26562 9.625 4.25C9.60677 5.23438 9.26953 6.0638 8.61328 6.73828C7.9388 7.39453 7.10938 7.73177 6.125 7.75ZM6.125 1.625C5.3776 1.64323 4.75781 1.89844 4.26562 2.39062C3.77344 2.88281 3.51823 3.5026 3.5 4.25C3.51823 4.9974 3.77344 5.61719 4.26562 6.10938C4.75781 6.60156 5.3776 6.85677 6.125 6.875C6.8724 6.85677 7.49219 6.60156 7.98438 6.10938C8.47656 5.61719 8.73177 4.9974 8.75 4.25C8.73177 3.5026 8.47656 2.88281 7.98438 2.39062C7.49219 1.89844 6.8724 1.64323 6.125 1.625ZM7.51953 9.0625C8.85026 9.09896 9.96224 9.5638 10.8555 10.457C11.7487 11.3503 12.2135 12.4622 12.25 13.793C12.25 14.0664 12.1589 14.2943 11.9766 14.4766C11.7943 14.6589 11.5664 14.75 11.293 14.75H0.957031C0.683594 14.75 0.455729 14.6589 0.273438 14.4766C0.0911458 14.2943 0 14.0664 0 13.793C0.0364583 12.4622 0.501302 11.3503 1.39453 10.457C2.28776 9.5638 3.39974 9.09896 4.73047 9.0625H7.51953ZM11.293 13.875C11.3477 13.875 11.375 13.8477 11.375 13.793C11.3385 12.6992 10.9648 11.7878 10.2539 11.0586C9.52474 10.3477 8.61328 9.97396 7.51953 9.9375H4.73047C3.63672 9.97396 2.72526 10.3477 1.99609 11.0586C1.28516 11.7878 0.911458 12.6992 0.875 13.793C0.875 13.8477 0.902344 13.875 0.957031 13.875H11.293Z" fill="#0D5EF4"/>
</svg>
