<svg width="14" height="15" viewBox="0 0 14 15" fill="none" xmlns="http://www.w3.org/2000/svg">
<path d="M6.5625 3.8125C6.58073 3.53906 6.72656 3.39323 7 3.375C7.27344 3.39323 7.41927 3.53906 7.4375 3.8125V7.50391L9.87109 9.14453C10.0716 9.30859 10.1081 9.50911 9.98047 9.74609C9.81641 9.94661 9.61589 9.98307 9.37891 9.85547L6.75391 8.10547C6.6263 8.01432 6.55339 7.89583 6.53516 7.75L6.5625 3.8125ZM7 0.75C8.3125 0.768229 9.48828 1.08724 10.5273 1.70703C11.5846 2.32682 12.4232 3.16536 13.043 4.22266C13.6628 5.26172 13.9818 6.4375 14 7.75C13.9818 9.0625 13.6628 10.2383 13.043 11.2773C12.4232 12.3346 11.5846 13.1732 10.5273 13.793C9.48828 14.4128 8.3125 14.7318 7 14.75C5.6875 14.7318 4.51172 14.4128 3.47266 13.793C2.41536 13.1732 1.57682 12.3346 0.957031 11.2773C0.33724 10.2383 0.0182292 9.0625 0 7.75C0.0182292 6.4375 0.33724 5.26172 0.957031 4.22266C1.57682 3.16536 2.41536 2.32682 3.47266 1.70703C4.51172 1.08724 5.6875 0.768229 7 0.75ZM0.875 7.75C0.893229 8.89844 1.17578 9.92839 1.72266 10.8398C2.2513 11.7695 2.98047 12.4987 3.91016 13.0273C4.82161 13.5742 5.85156 13.8568 7 13.875C8.14844 13.8568 9.17839 13.5742 10.0898 13.0273C11.0195 12.4987 11.7487 11.7695 12.2773 10.8398C12.8242 9.92839 13.1068 8.89844 13.125 7.75C13.1068 6.60156 12.8242 5.57161 12.2773 4.66016C11.7487 3.73047 11.0195 3.0013 10.0898 2.47266C9.17839 1.92578 8.14844 1.64323 7 1.625C5.85156 1.64323 4.82161 1.92578 3.91016 2.47266C2.98047 3.0013 2.2513 3.73047 1.72266 4.66016C1.17578 5.57161 0.893229 6.60156 0.875 7.75Z" fill="#0D5EF4"/>
</svg>
