<svg width="1920" height="643" viewBox="0 0 1920 643" fill="none" xmlns="http://www.w3.org/2000/svg">
<mask id="mask0_4_1135" style="mask-type:alpha" maskUnits="userSpaceOnUse" x="0" y="0" width="1920" height="643">
<rect width="1920" height="643" fill="#00060F"/>
</mask>
<g mask="url(#mask0_4_1135)">
<rect x="-54" y="-162" width="1979" height="1319" fill="#9FAAB7"/>
<rect opacity="0.87" width="1920" height="643" fill="#00112B"/>
<circle opacity="0.2" cx="1887" cy="737" r="259" stroke="white" stroke-width="50"/>
<circle opacity="0.2" cx="47" cy="-43" r="234" stroke="white" stroke-width="100"/>
<circle cx="1324.5" cy="528.5" r="10.5" fill="#F20F10"/>
<circle cx="415.5" cy="324.5" r="24" stroke="#0D5EF4" stroke-width="5"/>
<path d="M1521.25 209.319C1521.66 209.085 1522.14 209.056 1522.57 209.231L1522.75 209.319L1544.73 222.011C1545.19 222.279 1545.48 222.774 1545.48 223.31V248.69C1545.48 249.159 1545.26 249.597 1544.9 249.879L1544.73 249.989L1522.75 262.681C1522.29 262.948 1521.71 262.948 1521.25 262.681L1499.27 249.989C1498.81 249.721 1498.52 249.226 1498.52 248.69V223.31C1498.52 222.841 1498.74 222.403 1499.1 222.121L1499.27 222.011L1521.25 209.319Z" stroke="#F20F10" stroke-width="5"/>
<path opacity="0.5" d="M137.947 576.396C90.9856 662.885 16.9125 722.53 8.66174 715.379C2.59218 710.116 32.3692 668.918 27.3239 665.33C21.1015 660.905 -23.4239 724.01 -34.7629 717.533C-42.2798 713.24 -36.9289 677.407 -16.3657 650.777C2.99982 625.699 25.5964 622.075 24.5873 610.177C23.0789 592.388 -28.0972 592.47 -30.5127 575.329C-33.4787 554.289 38.6324 518.971 53.8803 534.836C63.9656 545.325 44.2689 573.068 52.1272 579.137C66.9214 590.556 146.233 499.605 159.993 509.799C169.859 517.098 140.261 572.134 137.947 576.396Z" fill="#0D5EF4"/>
<path d="M1925.71 8.30091C1924.7 10.7907 1923.66 13.814 1922.74 15.8591C1921.65 18.3193 1920.61 20.809 1919.69 23.3581C1918.77 25.9071 1917.94 28.5155 1917.23 31.1534C1916.49 33.91 1915.31 36.3701 1914.21 38.8895C1913.62 40.2826 1912.43 41.2904 1910.83 41.1125C1909.47 40.9643 1907.84 39.7194 1907.75 38.2078C1907.51 35.0067 1907.45 31.9537 1908.16 28.8711C1908.84 25.9664 1909.85 23.1209 1910.86 20.3348C1911.87 17.6375 1912.96 14.97 1914.18 12.3616C1915.48 9.54582 1917.11 7.17459 1919.01 4.7441C1920.17 3.29174 1922 2.61002 1923.75 3.58814C1925.29 4.41806 1926.42 6.5225 1925.71 8.30091Z" fill="#0D5EF4"/>
<path d="M1894.85 17.7561C1894.82 18.2897 1894.82 18.8232 1894.82 19.3567C1894.82 19.6531 1894.82 19.9495 1894.85 20.2163C1894.88 21.0165 1894.79 20.0681 1894.85 19.9791C1894.79 20.0384 1895.15 21.0462 1895.21 21.1944C1895.39 21.9354 1895.39 22.8839 1895.42 23.7434C1895.54 25.7886 1895.8 27.8041 1895.62 30.0568C1895.42 32.6948 1895.15 35.392 1894.29 38.2374C1893.96 39.3045 1893.7 40.4012 1893.28 41.4682C1893.02 42.1796 1892.6 43.0391 1892.22 43.7208C1891.98 44.1358 1891.68 44.7879 1892.01 43.9283C1892.54 42.5056 1891.42 45.1436 1891.33 45.3511C1891.18 45.6771 1891.03 46.0032 1890.85 46.2996C1890.29 47.2777 1889.58 48.2262 1888.93 49.1154C1886.38 52.435 1882.43 52.3758 1882.82 48.5226C1882.91 47.6334 1882.97 46.7738 1883.15 45.8253C1883.21 45.5585 1883.26 45.2918 1883.29 45.025C1883.68 43.128 1883.29 46.5663 1883.38 46.4181C1883.5 46.2699 1883.21 44.8176 1883.21 44.6397C1883.21 44.0173 1883.35 43.217 1883.47 42.5649C1883.56 42.0017 1883.68 41.409 1883.77 40.8458C1883.92 39.9862 1883.59 42.5056 1883.71 41.3497C1883.74 41.1125 1883.74 40.8754 1883.77 40.6383C1883.86 39.9269 1883.95 39.1859 1884.06 38.4449C1884.09 38.2374 1884.27 36.9629 1884.09 38.2374C1883.92 39.512 1884.15 37.6447 1884.18 37.3186C1884.27 36.2812 1884.39 35.2734 1884.54 34.236C1884.86 32.0723 1885.16 29.9382 1885.58 27.7152C1885.81 26.411 1886.32 24.603 1887.03 23.2396C1887.33 22.6468 1886.73 24.3066 1887.03 23.2692C1887.21 22.6764 1887.38 22.1132 1887.56 21.5204C1887.77 20.8684 1887.98 20.2163 1888.21 19.5642C1889.87 14.8218 1895 13.6362 1894.85 17.7561Z" fill="#0D5EF4"/>
<path d="M1895.45 67.8182C1895.39 70.2191 1894.53 73.1238 1893.82 75.6729C1893.19 77.8663 1892.63 80.0596 1891.98 82.2826C1891.18 84.9502 1890.35 87.4696 1889.07 90.1076C1888.69 90.9079 1888.3 91.5896 1887.8 92.3306C1887.33 93.1605 1886.7 93.8422 1885.96 94.435C1886.64 93.6644 1886.73 93.6051 1886.26 94.2276C1885.28 95.7096 1884.21 96.8952 1882.73 97.7548C1880.89 98.8218 1879.35 98.229 1878.49 97.0138C1877.96 96.2431 1877.99 95.2946 1877.99 94.2276C1877.99 93.8126 1877.9 93.2494 1878.02 92.8345C1878.43 94.7315 1878.37 94.7907 1877.84 92.9827C1877.81 92.4788 1877.81 91.9749 1877.78 91.5007C1877.81 90.8782 1877.99 90.1965 1878.11 89.5444C1878.61 86.8768 1879.41 84.3871 1880.3 81.7195C1881.04 79.4964 1881.93 77.3031 1882.82 75.1097C1884.04 72.205 1885.52 69.0039 1887.71 66.4844C1891.09 62.6609 1895.56 63.5797 1895.45 67.8182Z" fill="#0D5EF4"/>
<path d="M1867.91 48.315C1868 50.1231 1868 51.5754 1867.56 53.5317C1867.26 54.8062 1866.93 56.0807 1866.58 57.3552C1865.87 59.9339 1864.95 62.483 1864.03 65.0617C1863.11 67.6404 1862.25 70.1894 1861.18 72.7681C1860.92 73.4202 1860.65 74.3687 1860.15 74.9318C1859.67 75.4654 1860.41 74.1315 1860.15 74.8133C1859.73 75.7914 1859.4 76.7695 1858.9 77.718C1858.25 78.9332 1857.54 80.1485 1856.94 81.3934C1855.31 84.6834 1851.34 84.8612 1850.81 82.2529C1850.6 81.2451 1850.42 80.2077 1850.33 79.1111C1850.22 77.6291 1850.45 76.0581 1850.51 74.4872C1850.66 71.6714 1851.99 68.411 1853.06 65.5063C1853.98 62.9869 1854.93 60.4971 1855.94 57.9777C1856.44 56.7032 1856.91 55.4286 1857.36 54.1541C1857.89 52.5832 1858.6 51.1012 1859.37 49.5303C1860.35 47.5147 1862.61 46.0031 1864.32 45.766C1865.92 45.4992 1867.82 46.418 1867.91 48.315Z" fill="#0D5EF4"/>
<path d="M1874.05 -3.85152C1874.11 -2.99196 1874.11 -2.13242 1874.19 -1.33214C1873.9 -2.45846 1873.63 -3.58475 1873.33 -4.68144C1875.47 -2.45843 1874.49 5.36652 1873.78 10.5239C1873.51 12.4801 1873.22 14.4068 1872.74 16.4223C1872.36 18.2007 1872 20.0384 1871.5 21.8464C1870.58 25.1069 1868.98 28.0709 1867.11 30.5606C1864.41 34.1174 1861.42 34.7695 1859.97 32.8726C1857.86 30.116 1859.61 23.2395 1860.41 17.7265C1861.12 12.9841 1861.42 7.2042 1863.73 2.13575C1863.23 3.85487 1862.72 5.57402 1862.22 7.29314C1862.4 6.28538 1862.52 5.33688 1862.61 4.35876C1863.11 0.00166087 1866.13 -5.12608 1868.83 -7.08232C1871.82 -9.15713 1873.84 -7.67509 1874.05 -3.85152Z" fill="#0D5EF4"/>
<path d="M1861.75 99.9777C1861.57 100.837 1861.45 101.697 1861.27 102.556C1861.09 103.446 1860.8 104.364 1860.53 105.254C1860.47 105.461 1860.09 106.854 1860.38 105.758C1860.68 104.572 1860.23 106.35 1860.17 106.587C1860.06 107.002 1859.97 107.417 1859.85 107.862C1859.61 108.81 1859.4 109.759 1859.23 110.707C1858.75 113.019 1858.46 115.124 1857.6 117.554C1856.68 120.133 1855.76 122.445 1854.01 124.638C1852.11 127.009 1850.19 127.75 1848.64 127.158C1845.38 125.883 1845.98 119.333 1847.28 114.205C1848.56 109.225 1849.95 104.305 1852.74 99.4738C1854.42 96.5394 1857.18 94.0793 1859.23 94.3164C1861.24 94.5535 1862.37 96.7173 1861.75 99.9777Z" fill="#0D5EF4"/>
<path d="M1820.69 17.9339C1821.11 15.5331 1821.76 12.6284 1822 10.6721C1822.29 8.27127 1822.68 5.87041 1823.18 3.43993C1823.72 1.00944 1824.34 -1.4803 1825.11 -3.94043C1825.91 -6.54876 1826.12 -8.91999 1826.47 -11.3801C1826.65 -12.7436 1826.06 -13.8402 1824.43 -13.9884C1823.04 -14.107 1820.72 -13.3067 1819.78 -11.9729C1817.76 -9.15711 1815.98 -6.45985 1814.94 -3.58476C1813.97 -0.857873 1813.37 1.869 1812.81 4.50697C1812.28 7.1153 1811.86 9.66437 1811.59 12.2134C1811.3 14.9699 1811.56 17.3708 1812.07 19.8606C1812.37 21.3722 1813.79 22.2911 1816.07 21.7575C1818.15 21.3129 1820.4 19.6531 1820.69 17.9339Z" fill="#0D5EF4"/>
<path d="M1832.37 51.6348C1832.67 51.1605 1832.99 50.6862 1833.32 50.212C1833.5 49.9452 1833.68 49.7081 1833.88 49.471C1834.39 48.7893 1833.74 49.5896 1833.77 49.6785C1833.74 49.6192 1834.74 48.9079 1834.89 48.7893C1835.54 48.2261 1836.08 47.3962 1836.67 46.6848C1838.03 44.9361 1839.55 43.3355 1840.7 41.2904C1842.06 38.8895 1843.4 36.3997 1844.23 33.495C1844.52 32.3983 1844.91 31.3016 1845.12 30.1753C1845.27 29.4047 1845.33 28.4562 1845.33 27.6856C1845.33 27.2113 1845.38 26.4703 1845.21 27.4188C1844.91 28.9304 1845.3 26.0553 1845.33 25.8478C1845.35 25.4922 1845.38 25.1365 1845.38 24.7808C1845.38 23.6248 1845.18 22.4689 1845 21.3722C1844.26 17.2226 1839.96 15.296 1838.06 18.8528C1837.62 19.6827 1837.14 20.4534 1836.79 21.3426C1836.67 21.6093 1836.58 21.8464 1836.49 22.1132C1835.75 23.9805 1837.41 20.7498 1837.44 20.9276C1837.47 21.1055 1836.28 22.2318 1836.2 22.38C1835.81 22.9135 1835.51 23.6841 1835.22 24.3362C1834.98 24.8697 1834.74 25.4329 1834.48 25.9664C1834.09 26.7963 1835.28 24.4548 1834.71 25.4922C1834.6 25.6997 1834.48 25.9368 1834.36 26.1443C1834 26.826 1833.68 27.5077 1833.35 28.1894C1833.26 28.3969 1832.67 29.5825 1833.26 28.3673C1833.85 27.1817 1832.97 28.9008 1832.79 29.1972C1832.25 30.1457 1831.78 31.0645 1831.31 32.0723C1830.33 34.1174 1829.38 36.133 1828.49 38.267C1827.96 39.5416 1827.42 41.3496 1827.33 42.8909C1827.3 43.543 1827.63 41.8239 1827.36 42.8613C1827.21 43.4541 1827.04 44.0469 1826.89 44.6693C1826.71 45.351 1826.56 46.0328 1826.41 46.7145C1825.26 51.7533 1830.03 55.3101 1832.37 51.6348Z" fill="#0D5EF4"/>
<path d="M1920.76 84.1796C1922.18 82.253 1923.31 79.4668 1924.32 77.0363C1925.18 74.9318 1926.09 72.857 1926.95 70.7229C1927.96 68.1146 1928.88 65.6545 1929.53 62.7794C1929.74 61.9198 1929.83 61.1492 1929.92 60.2304C1930.04 59.2819 1930.01 58.3334 1929.77 57.4146C1929.83 58.452 1929.86 58.5705 1929.89 57.7702C1930.07 55.9918 1929.95 54.3616 1929.33 52.761C1928.55 50.7455 1926.98 50.212 1925.56 50.6269C1924.67 50.8641 1924.11 51.6347 1923.46 52.4647C1923.22 52.7907 1922.77 53.176 1922.63 53.5613C1924.11 52.3461 1924.11 52.2572 1922.6 53.3242C1922.27 53.7095 1921.94 54.0652 1921.65 54.4505C1921.29 54.9544 1921 55.5769 1920.7 56.1697C1919.45 58.5409 1918.54 61.0306 1917.59 63.6686C1916.79 65.862 1916.14 68.1443 1915.48 70.4266C1914.62 73.4795 1913.82 76.9177 1913.97 80.267C1914.21 85.3948 1918.24 87.5585 1920.76 84.1796Z" fill="#0D5EF4"/>
<path d="M1823.12 140.674C1824.28 139.31 1825.2 138.184 1826.06 136.405C1826.62 135.249 1827.13 134.034 1827.66 132.819C1828.7 130.329 1829.56 127.78 1830.45 125.172C1831.31 122.563 1832.22 120.044 1832.97 117.347C1833.14 116.665 1833.53 115.776 1833.47 114.976C1833.44 114.235 1833.2 115.776 1833.38 115.065C1833.65 114.027 1834 113.079 1834.21 111.982C1834.45 110.619 1834.65 109.225 1834.95 107.862C1835.72 104.246 1832.73 101.549 1830.71 103.268C1829.91 103.92 1829.14 104.631 1828.4 105.402C1827.39 106.469 1826.59 107.862 1825.7 109.107C1824.07 111.389 1823.1 114.798 1822.15 117.732C1821.32 120.281 1820.52 122.83 1819.75 125.409C1819.36 126.713 1818.95 128.017 1818.5 129.292C1817.94 130.863 1817.58 132.493 1817.23 134.153C1816.75 136.346 1817.58 138.954 1818.77 140.259C1819.86 141.592 1821.91 142.096 1823.12 140.674Z" fill="#0D5EF4"/>
<path d="M1823.39 95.1463C1823.75 94.6424 1824.1 94.1089 1824.49 93.6347C1823.81 94.2571 1823.12 94.8499 1822.44 95.4724C1825.23 94.6721 1827.33 89.6333 1828.67 86.3136C1829.17 85.0687 1829.62 83.7942 1829.97 82.4603C1830.3 81.2747 1830.68 80.0595 1830.92 78.8443C1831.33 76.6212 1831.01 74.3982 1830.24 72.4124C1829.14 69.5669 1826.65 68.4109 1824.61 69.2112C1821.64 70.3672 1820.61 74.9911 1819.24 78.5775C1818.09 81.6601 1816.13 85.2465 1816.34 88.9219C1816.54 87.7363 1816.72 86.5803 1816.93 85.3947C1816.72 86.0468 1816.46 86.6693 1816.19 87.2917C1815 90.0779 1815.8 93.9607 1817.52 95.8577C1819.33 97.8139 1821.76 97.4286 1823.39 95.1463Z" fill="#0D5EF4"/>
<path d="M1807.06 69.1224C1807.3 68.1739 1807.59 67.2847 1807.8 66.3362C1808.04 65.3581 1808.19 64.2911 1808.36 63.2833C1808.39 63.0462 1808.69 61.5049 1808.45 62.6905C1808.19 64.0243 1808.6 62.0385 1808.63 61.7717C1808.72 61.2975 1808.84 60.8232 1808.93 60.3786C1809.16 59.3412 1809.4 58.3038 1809.67 57.2664C1810.32 54.747 1810.97 52.524 1811.33 49.6785C1811.68 46.6552 1811.95 43.8987 1811.42 40.8161C1810.85 37.4964 1809.55 35.718 1807.92 35.4809C1804.54 34.9474 1802.11 41.7053 1800.95 47.4555C1799.83 53.0279 1798.82 58.6002 1799.03 64.8246C1799.18 68.6186 1800.45 72.5014 1802.32 73.3609C1804.18 74.1612 1806.14 72.6496 1807.06 69.1224Z" fill="#0D5EF4"/>
</g>
</svg>
