<svg width="1920" height="859" viewBox="0 0 1920 859" fill="none" xmlns="http://www.w3.org/2000/svg">
<rect width="1920" height="859" fill="#F3F7FB"/>
<mask id="mask0_4_1159" style="mask-type:alpha" maskUnits="userSpaceOnUse" x="0" y="0" width="1920" height="859">
<rect width="1920" height="859" fill="#F3F7FB"/>
</mask>
<g mask="url(#mask0_4_1159)">
<ellipse cx="283.5" cy="248.862" rx="577.5" ry="415.972" fill="url(#paint0_radial_4_1159)" fill-opacity="0.12"/>
<path opacity="0.1" d="M256.945 177.719C172.884 23.363 40.2933 -83.0847 25.5245 -70.322C14.66 -60.9298 67.9608 12.5952 58.9299 18.9994C47.7917 26.8976 -31.9087 -85.7267 -52.2056 -74.1664C-65.6608 -66.505 -56.0826 -2.55435 -19.2746 44.9714C15.3897 89.7278 55.8375 96.1958 54.0314 117.431C51.3312 149.178 -40.2739 149.033 -44.5978 179.623C-49.9069 217.174 79.1721 280.204 106.466 251.891C124.518 233.17 89.2613 183.659 103.328 172.827C129.809 152.449 271.778 314.767 296.408 296.574C314.068 283.548 261.087 185.326 256.945 177.719Z" fill="#0D5EF4"/>
<path opacity="0.1" d="M595.212 -482.476L996.053 -81.636C1047.12 -30.571 1075.24 37.5372 1075.24 110.144C1075.24 182.75 1047.12 250.864 996.053 301.924L595.212 702.764C544.147 753.829 476.039 781.948 403.432 781.948C330.826 781.948 262.712 753.829 211.652 702.764L-189.188 301.924C-240.253 250.859 -268.372 182.75 -268.372 110.144C-268.372 37.5372 -240.258 -30.571 -189.199 -81.636L211.642 -482.476C262.707 -533.541 330.815 -561.661 403.422 -561.661C476.028 -561.661 544.147 -533.541 595.212 -482.476ZM298.035 616.381C356.148 674.494 450.706 674.494 508.824 616.381L909.664 215.541C967.777 157.429 967.777 62.8699 909.664 4.75214L508.824 -396.088C450.712 -454.201 356.153 -454.201 298.035 -396.088L-102.811 4.75214C-160.923 62.8644 -160.923 157.423 -102.811 215.541L298.035 616.381Z" fill="url(#paint1_linear_4_1159)"/>
<path opacity="0.1" d="M1763.18 378.575L2164.02 779.416C2215.08 830.481 2243.2 898.589 2243.2 971.196C2243.2 1043.8 2215.08 1111.92 2164.02 1162.98L1763.18 1563.82C1712.11 1614.88 1644 1643 1571.4 1643C1498.79 1643 1430.68 1614.88 1379.62 1563.82L978.777 1162.98C927.712 1111.91 899.593 1043.8 899.593 971.196C899.593 898.589 927.712 830.475 978.777 779.416L1379.62 378.575C1430.68 327.51 1498.79 299.391 1571.4 299.391C1644 299.391 1712.11 327.516 1763.18 378.575ZM1466 1477.44C1524.11 1535.55 1618.67 1535.55 1676.79 1477.44L2077.63 1076.6C2135.74 1018.49 2135.74 923.927 2077.63 865.809L1676.78 464.963C1618.67 406.851 1524.11 406.851 1466 464.963L1065.15 865.804C1007.04 923.916 1007.04 1018.48 1065.15 1076.59L1466 1477.44Z" fill="url(#paint2_linear_4_1159)"/>
<path d="M148.156 1071.99L-48.0141 875.816C-73.0066 850.823 -86.7665 817.493 -86.7665 781.959C-86.7665 746.425 -73.0066 713.089 -48.0141 688.102L148.156 491.927C173.149 466.934 206.479 453.174 242.013 453.174C277.547 453.174 310.883 466.934 335.87 491.927L532.04 688.097C557.032 713.089 570.792 746.42 570.792 781.954C570.792 817.487 557.032 850.823 532.04 875.81L335.87 1071.98C310.877 1096.97 277.547 1110.73 242.013 1110.73C206.479 1110.73 173.149 1096.98 148.156 1071.99ZM293.596 534.205C265.153 505.762 218.878 505.762 190.435 534.205L-5.73541 730.376C-34.1786 758.819 -34.1786 805.094 -5.73541 833.537L190.435 1029.71C218.878 1058.15 265.153 1058.15 293.596 1029.71L489.766 833.537C518.21 805.094 518.21 758.819 489.766 730.376L293.596 534.205Z" fill="url(#paint3_linear_4_1159)"/>
<path d="M1521.92 294.617L1325.75 98.4468C1300.76 73.4544 1287 40.1239 1287 4.59012C1287 -30.9437 1300.76 -64.2795 1325.75 -89.2666L1521.92 -285.437C1546.91 -310.429 1580.24 -324.189 1615.78 -324.189C1651.31 -324.189 1684.65 -310.429 1709.63 -285.437L1905.8 -89.2666C1930.8 -64.2741 1944.56 -30.9437 1944.56 4.59012C1944.56 40.1239 1930.8 73.4598 1905.8 98.4468L1709.63 294.617C1684.64 319.61 1651.31 333.369 1615.78 333.369C1580.24 333.369 1546.91 319.61 1521.92 294.617ZM1667.36 -243.169C1638.91 -271.612 1592.64 -271.612 1564.19 -243.169L1368.02 -46.9933C1339.58 -18.55 1339.58 27.7249 1368.02 56.1681L1564.19 252.338C1592.64 280.782 1638.91 280.782 1667.36 252.338L1863.53 56.1681C1891.97 27.7249 1891.97 -18.55 1863.53 -46.9933L1667.36 -243.169Z" fill="url(#paint4_linear_4_1159)"/>
<path d="M1040.9 335.022L922.895 217.021C907.861 201.986 899.582 181.941 899.582 160.561C899.582 139.181 907.861 119.136 922.895 104.101L1040.9 -13.9002C1055.93 -28.9345 1075.98 -37.2131 1097.36 -37.2131C1118.74 -37.2131 1138.78 -28.9291 1153.82 -13.9002L1271.82 104.101C1286.85 119.136 1295.13 139.181 1295.13 160.561C1295.13 181.941 1286.85 201.986 1271.82 217.021L1153.82 335.022C1138.78 350.057 1118.74 358.335 1097.36 358.335C1075.98 358.335 1055.93 350.057 1040.9 335.022ZM1128.38 11.5351C1111.27 -5.57294 1083.43 -5.57294 1066.33 11.5351L948.325 129.536C931.217 146.645 931.217 174.483 948.325 191.591L1066.33 309.592C1083.43 326.7 1111.27 326.7 1128.38 309.592L1246.38 191.591C1263.49 174.483 1263.49 146.645 1246.38 129.536L1128.38 11.5351Z" fill="url(#paint5_linear_4_1159)"/>
<path d="M661.166 1176.59L536.063 1051.49C520.127 1035.55 511.351 1014.3 511.351 991.63C511.351 968.965 520.127 947.71 536.063 931.774L661.166 806.671C677.102 790.735 698.357 781.959 721.022 781.959C743.682 781.959 764.943 790.735 780.879 806.671L905.981 931.774C921.918 947.71 930.693 968.965 930.693 991.63C930.693 1014.3 921.918 1035.55 905.981 1051.49L780.879 1176.59C764.943 1192.53 743.687 1201.3 721.022 1201.3C698.363 1201.31 677.107 1192.53 661.166 1176.59ZM753.921 833.629C735.781 815.49 706.269 815.49 688.135 833.629L563.032 958.732C544.892 976.871 544.892 1006.38 563.032 1024.52L688.135 1149.62C706.274 1167.76 735.787 1167.76 753.921 1149.62L879.023 1024.52C897.163 1006.38 897.163 976.866 879.023 958.732L753.921 833.629Z" fill="url(#paint6_linear_4_1159)"/>
<path d="M1407.83 562.066L1333.17 487.407C1323.66 477.897 1318.42 465.212 1318.42 451.689C1318.42 438.167 1323.66 425.482 1333.17 415.972L1407.83 341.313C1417.34 331.803 1430.02 326.565 1443.55 326.565C1457.07 326.565 1469.75 331.803 1479.26 341.313L1553.92 415.972C1563.43 425.482 1568.67 438.167 1568.67 451.689C1568.67 465.212 1563.43 477.897 1553.92 487.407L1479.26 562.066C1469.75 571.576 1457.07 576.814 1443.55 576.814C1430.02 576.814 1417.34 571.576 1407.83 562.066ZM1463.18 357.401C1452.36 346.579 1434.74 346.579 1423.92 357.401L1349.26 432.06C1338.44 442.882 1338.44 460.497 1349.26 471.319L1423.92 545.978C1434.74 556.8 1452.36 556.8 1463.18 545.978L1537.83 471.319C1548.66 460.497 1548.66 442.882 1537.83 432.06L1463.18 357.401Z" fill="url(#paint7_linear_4_1159)"/>
<path d="M446.094 491.808L356.137 401.856C344.548 390.267 338.164 374.811 338.164 358.335C338.164 341.859 344.548 326.403 356.137 314.814L446.089 224.862C457.678 213.273 473.133 206.89 489.61 206.89C506.086 206.89 521.542 213.273 533.131 224.862L623.083 314.814C634.672 326.403 641.055 341.859 641.055 358.335C641.055 374.811 634.672 390.267 623.083 401.856L533.136 491.808C521.547 503.397 506.091 509.78 489.615 509.78C473.139 509.78 457.678 503.397 446.094 491.808ZM532.169 225.823C520.839 214.493 505.73 208.256 489.615 208.256C473.506 208.256 458.391 214.493 447.061 225.823L357.109 315.781C345.779 327.11 339.542 342.22 339.542 358.335C339.542 374.444 345.779 389.559 357.109 400.889L447.061 490.841C458.391 502.171 473.501 508.408 489.615 508.408C505.724 508.408 520.839 502.171 532.169 490.841L622.122 400.889C633.451 389.559 639.689 374.449 639.689 358.335C639.689 342.226 633.451 327.11 622.122 315.781L532.169 225.823Z" fill="url(#paint8_linear_4_1159)"/>
<path d="M64.8353 720.126L-115.069 540.222C-138.247 517.044 -151.008 486.133 -151.008 453.175C-151.008 420.217 -138.242 389.306 -115.069 366.128L64.8353 186.218C88.0132 163.04 118.924 150.279 151.882 150.279C184.84 150.279 215.751 163.045 238.929 186.218L418.834 366.122C442.012 389.3 454.773 420.211 454.773 453.169C454.773 486.127 442.006 517.038 418.834 540.216L238.929 720.121C215.751 743.299 184.84 756.06 151.882 756.06C118.924 756.065 88.0078 743.299 64.8353 720.126ZM236.985 188.156C214.326 165.497 184.1 153.017 151.877 153.017C119.653 153.017 89.4281 165.497 66.7686 188.156L-113.136 368.066C-135.796 390.726 -148.276 420.951 -148.276 453.175C-148.276 485.398 -135.796 515.623 -113.136 538.283L66.7686 718.188C89.4281 740.847 119.653 753.327 151.877 753.327C184.1 753.327 214.326 740.847 236.985 718.188L416.89 538.283C439.549 515.623 452.029 485.398 452.029 453.175C452.029 420.951 439.549 390.726 416.89 368.066L236.985 188.156Z" fill="url(#paint9_linear_4_1159)"/>
<path d="M1357.61 325.328L1192.41 160.123C1171.12 138.841 1159.4 110.452 1159.41 80.1886C1159.41 49.9255 1171.12 21.5416 1192.41 0.253784L1357.61 -164.951C1378.89 -186.234 1407.28 -197.958 1437.55 -197.958C1467.81 -197.958 1496.19 -186.239 1517.48 -164.951L1682.69 0.253784C1703.97 21.5363 1715.69 49.9255 1715.69 80.1886C1715.69 110.452 1703.97 138.836 1682.69 160.123L1517.48 325.328C1496.19 346.611 1467.8 358.335 1437.54 358.335C1407.28 358.335 1378.89 346.611 1357.61 325.328ZM1515.69 -163.169C1494.89 -183.976 1467.13 -195.436 1437.54 -195.436C1407.95 -195.436 1380.2 -183.976 1359.39 -163.169L1194.18 2.03586C1173.38 22.8431 1161.92 50.6005 1161.92 80.1886C1161.92 109.777 1173.38 137.534 1194.18 158.341L1359.39 323.546C1380.2 344.354 1407.95 355.813 1437.54 355.813C1467.13 355.813 1494.89 344.354 1515.69 323.546L1680.9 158.341C1701.71 137.534 1713.17 109.777 1713.17 80.1886C1713.17 50.6005 1701.71 22.8431 1680.9 2.03586L1515.69 -163.169Z" fill="url(#paint10_linear_4_1159)" fill-opacity="0.1"/>
<path d="M234.603 1284.25L9.2124 1058.86C-19.8249 1029.82 -35.8151 991.095 -35.8151 949.805C-35.8151 908.52 -19.8249 869.789 9.2124 840.752L234.603 615.361C263.641 586.323 302.366 570.333 343.657 570.333C384.942 570.333 423.672 586.323 452.71 615.361L678.101 840.752C707.138 869.789 723.128 908.514 723.128 949.805C723.128 991.09 707.138 1029.82 678.101 1058.86L452.704 1284.25C423.667 1313.29 384.942 1329.28 343.651 1329.28C302.366 1329.28 263.635 1313.28 234.603 1284.25ZM450.274 617.791C421.885 589.402 384.018 573.768 343.651 573.768C303.284 573.768 265.417 589.402 237.028 617.791L11.6371 843.182C-16.7521 871.571 -32.3859 909.438 -32.3859 949.805C-32.3859 990.172 -16.7521 1028.04 11.6371 1056.43L237.028 1281.82C265.417 1310.21 303.284 1325.84 343.651 1325.84C384.018 1325.84 421.885 1310.21 450.274 1281.82L675.665 1056.43C704.054 1028.04 719.688 990.172 719.688 949.805C719.688 909.438 704.054 871.571 675.665 843.182L450.274 617.791Z" fill="url(#paint11_linear_4_1159)" fill-opacity="0.1"/>
<path d="M541.42 902.682L442.606 803.874C429.877 791.145 422.868 774.167 422.868 756.065C422.868 737.963 429.877 720.985 442.606 708.256L541.415 609.448C554.143 596.719 571.122 589.71 589.223 589.71C607.325 589.71 624.303 596.719 637.032 609.448L735.841 708.256C748.569 720.985 755.579 737.963 755.579 756.065C755.579 774.167 748.569 791.145 735.841 803.874L637.032 902.682C624.303 915.411 607.325 922.42 589.223 922.42C571.127 922.426 554.149 915.416 541.42 902.682ZM635.968 610.511C623.52 598.064 606.92 591.211 589.223 591.211C571.527 591.211 554.926 598.064 542.479 610.511L443.67 709.32C431.222 721.768 424.369 738.368 424.369 756.065C424.369 773.762 431.222 790.362 443.67 802.81L542.479 901.618C554.926 914.066 571.527 920.919 589.223 920.919C606.92 920.919 623.52 914.066 635.968 901.618L734.777 802.81C747.224 790.362 754.077 773.762 754.077 756.065C754.077 738.368 747.224 721.768 734.777 709.32L635.968 610.511Z" fill="url(#paint12_linear_4_1159)" fill-opacity="0.1"/>
<path d="M1455.49 738.584L1235.53 518.626C1207.19 490.29 1191.59 452.494 1191.59 412.202C1191.59 371.911 1207.19 334.115 1235.53 305.779L1455.49 85.8209C1483.82 57.4857 1521.62 41.8789 1561.91 41.8789C1602.2 41.8789 1640 57.4857 1668.33 85.8209L1888.29 305.779C1916.63 334.115 1932.23 371.911 1932.23 412.202C1932.23 452.494 1916.63 490.29 1888.29 518.626L1668.33 738.584C1640 766.919 1602.2 782.526 1561.91 782.526C1521.62 782.526 1483.82 766.919 1455.49 738.584ZM1665.96 88.1862C1638.26 60.4828 1601.3 45.2271 1561.91 45.2271C1522.51 45.2271 1485.56 60.4828 1457.86 88.1862L1237.9 308.145C1210.2 335.848 1194.94 372.802 1194.94 412.197C1194.94 451.592 1210.2 488.546 1237.9 516.249L1457.86 736.208C1485.56 763.911 1522.51 779.167 1561.91 779.167C1601.3 779.167 1638.26 763.911 1665.96 736.208L1885.92 516.249C1913.62 488.546 1928.88 451.592 1928.88 412.197C1928.88 372.802 1913.62 335.848 1885.92 308.145L1665.96 88.1862Z" fill="url(#paint13_linear_4_1159)" fill-opacity="0.1"/>
</g>
<defs>
<radialGradient id="paint0_radial_4_1159" cx="0" cy="0" r="1" gradientUnits="userSpaceOnUse" gradientTransform="translate(283.5 248.862) rotate(90) scale(415.972 577.5)">
<stop stop-color="#0D5EF4"/>
<stop offset="1" stop-color="#D9D9D9" stop-opacity="0"/>
</radialGradient>
<linearGradient id="paint1_linear_4_1159" x1="1067.22" y1="110.148" x2="-328.458" y2="110.148" gradientUnits="userSpaceOnUse">
<stop stop-color="white"/>
<stop offset="1" stop-color="white" stop-opacity="0"/>
</linearGradient>
<linearGradient id="paint2_linear_4_1159" x1="2235.18" y1="971.201" x2="839.507" y2="971.201" gradientUnits="userSpaceOnUse">
<stop stop-color="white"/>
<stop offset="1" stop-color="white" stop-opacity="0"/>
</linearGradient>
<linearGradient id="paint3_linear_4_1159" x1="-82.8438" y1="781.955" x2="600.204" y2="781.955" gradientUnits="userSpaceOnUse">
<stop stop-color="white"/>
<stop offset="1" stop-color="white" stop-opacity="0"/>
</linearGradient>
<linearGradient id="paint4_linear_4_1159" x1="1290.92" y1="4.58623" x2="1973.96" y2="4.58623" gradientUnits="userSpaceOnUse">
<stop stop-color="white"/>
<stop offset="1" stop-color="white" stop-opacity="0"/>
</linearGradient>
<linearGradient id="paint5_linear_4_1159" x1="901.945" y1="160.562" x2="1312.81" y2="160.562" gradientUnits="userSpaceOnUse">
<stop stop-color="white"/>
<stop offset="1" stop-color="white" stop-opacity="0"/>
</linearGradient>
<linearGradient id="paint6_linear_4_1159" x1="513.851" y1="991.631" x2="949.45" y2="991.631" gradientUnits="userSpaceOnUse">
<stop stop-color="white"/>
<stop offset="1" stop-color="white" stop-opacity="0"/>
</linearGradient>
<linearGradient id="paint7_linear_4_1159" x1="1319.92" y1="451.688" x2="1579.86" y2="451.688" gradientUnits="userSpaceOnUse">
<stop stop-color="white"/>
<stop offset="1" stop-color="white" stop-opacity="0"/>
</linearGradient>
<linearGradient id="paint8_linear_4_1159" x1="401.125" y1="269.817" x2="578.122" y2="446.814" gradientUnits="userSpaceOnUse">
<stop stop-color="white"/>
<stop offset="1" stop-color="white" stop-opacity="0"/>
</linearGradient>
<linearGradient id="paint9_linear_4_1159" x1="-25.1066" y1="276.157" x2="328.888" y2="630.152" gradientUnits="userSpaceOnUse">
<stop stop-color="white"/>
<stop offset="1" stop-color="white" stop-opacity="0"/>
</linearGradient>
<linearGradient id="paint10_linear_4_1159" x1="1159.41" y1="80.1868" x2="1715.69" y2="80.1868" gradientUnits="userSpaceOnUse">
<stop offset="0.005618" stop-color="#0D5EF4"/>
<stop offset="1" stop-color="#0D5EF4" stop-opacity="0"/>
</linearGradient>
<linearGradient id="paint11_linear_4_1159" x1="-35.8157" y1="949.802" x2="723.129" y2="949.802" gradientUnits="userSpaceOnUse">
<stop offset="0.005618" stop-color="#0D5EF4"/>
<stop offset="1" stop-color="#0D5EF4" stop-opacity="0"/>
</linearGradient>
<linearGradient id="paint12_linear_4_1159" x1="422.868" y1="756.064" x2="755.579" y2="756.064" gradientUnits="userSpaceOnUse">
<stop offset="0.005618" stop-color="#0D5EF4"/>
<stop offset="1" stop-color="#0D5EF4" stop-opacity="0"/>
</linearGradient>
<linearGradient id="paint13_linear_4_1159" x1="1191.59" y1="412.2" x2="1932.23" y2="412.2" gradientUnits="userSpaceOnUse">
<stop offset="0.005618" stop-color="#0D5EF4"/>
<stop offset="1" stop-color="#0D5EF4" stop-opacity="0"/>
</linearGradient>
</defs>
</svg>
