<svg width="1920" height="710" viewBox="0 0 1920 710" fill="none" xmlns="http://www.w3.org/2000/svg">
<rect width="1920" height="710" fill="#F3F7FB"/>
<mask id="mask0_221_107" style="mask-type:alpha" maskUnits="userSpaceOnUse" x="0" y="0" width="1920" height="710">
<rect width="1920" height="710" fill="#F3F7FB"/>
</mask>
<g mask="url(#mask0_221_107)">
<path d="M117.979 448.089L117.925 451.191L121.026 451.246L121.08 448.143L117.979 448.089Z" fill="#0D5EF4"/>
<path d="M107.654 447.911L107.6 451.014L110.701 451.068L110.755 447.965L107.654 447.911Z" fill="#0D5EF4"/>
<path d="M97.3297 447.733L97.2754 450.836L100.376 450.89L100.431 447.787L97.3297 447.733Z" fill="#0D5EF4"/>
<path d="M87.0279 447.556L86.9736 450.659L90.0747 450.713L90.1289 447.611L87.0279 447.556Z" fill="#0D5EF4"/>
<path d="M76.7027 447.379L76.6484 450.481L79.7495 450.536L79.8038 447.433L76.7027 447.379Z" fill="#0D5EF4"/>
<path d="M66.3785 447.177L66.3242 450.28L69.4253 450.335L69.4795 447.232L66.3785 447.177Z" fill="#0D5EF4"/>
<path d="M56.0543 447L56 450.103L59.101 450.157L59.1553 447.054L56.0543 447Z" fill="#0D5EF4"/>
<path d="M117.801 458.42L117.747 461.522L120.848 461.577L120.902 458.474L117.801 458.42Z" fill="#0D5EF4"/>
<path d="M107.476 458.242L107.422 461.345L110.523 461.399L110.577 458.296L107.476 458.242Z" fill="#0D5EF4"/>
<path d="M97.1519 458.064L97.0977 461.167L100.199 461.221L100.253 458.118L97.1519 458.064Z" fill="#0D5EF4"/>
<path d="M86.8277 457.863L86.7734 460.966L89.8745 461.02L89.9288 457.917L86.8277 457.863Z" fill="#0D5EF4"/>
<path d="M76.526 457.686L76.4717 460.789L79.5727 460.843L79.627 457.741L76.526 457.686Z" fill="#0D5EF4"/>
<path d="M66.2008 457.508L66.1465 460.611L69.2475 460.666L69.3018 457.563L66.2008 457.508Z" fill="#0D5EF4"/>
<path d="M57.9742 457.372L57.9199 460.475L61.021 460.529L61.0752 457.426L57.9742 457.372Z" fill="#0D5EF4"/>
<path d="M117.624 468.75L117.569 471.853L120.67 471.907L120.725 468.804L117.624 468.75Z" fill="#0D5EF4"/>
<path d="M107.298 468.573L107.244 471.676L110.345 471.73L110.399 468.627L107.298 468.573Z" fill="#0D5EF4"/>
<path d="M96.9742 468.372L96.9199 471.475L100.021 471.529L100.075 468.426L96.9742 468.372Z" fill="#0D5EF4"/>
<path d="M86.65 468.194L86.5957 471.297L89.6967 471.351L89.751 468.248L86.65 468.194Z" fill="#0D5EF4"/>
<path d="M76.3482 468.017L76.2939 471.12L79.395 471.174L79.4493 468.072L76.3482 468.017Z" fill="#0D5EF4"/>
<path d="M66.023 467.839L65.9688 470.941L69.0698 470.996L69.1241 467.893L66.023 467.839Z" fill="#0D5EF4"/>
<path d="M117.439 479.076L117.385 482.179L120.486 482.233L120.54 479.13L117.439 479.076Z" fill="#0D5EF4"/>
<path d="M107.122 478.881L107.067 481.983L110.168 482.038L110.223 478.935L107.122 478.881Z" fill="#0D5EF4"/>
<path d="M96.7965 478.702L96.7422 481.805L99.8432 481.859L99.8975 478.756L96.7965 478.702Z" fill="#0D5EF4"/>
<path d="M86.4722 478.525L86.418 481.628L89.519 481.682L89.5733 478.579L86.4722 478.525Z" fill="#0D5EF4"/>
<path d="M76.148 478.347L76.0938 481.45L79.1948 481.505L79.2491 478.402L76.148 478.347Z" fill="#0D5EF4"/>
<path d="M117.246 489.388L117.191 492.491L120.292 492.546L120.347 489.443L117.246 489.388Z" fill="#0D5EF4"/>
<path d="M106.944 489.211L106.89 492.313L109.991 492.368L110.045 489.265L106.944 489.211Z" fill="#0D5EF4"/>
<path d="M96.6187 489.033L96.5645 492.136L99.6655 492.19L99.7198 489.087L96.6187 489.033Z" fill="#0D5EF4"/>
<path d="M86.2945 488.855L86.2402 491.958L89.3413 492.012L89.3955 488.909L86.2945 488.855Z" fill="#0D5EF4"/>
<path d="M117.068 499.718L117.014 502.821L120.115 502.876L120.169 499.773L117.068 499.718Z" fill="#0D5EF4"/>
<path d="M106.744 499.541L106.689 502.644L109.79 502.698L109.845 499.595L106.744 499.541Z" fill="#0D5EF4"/>
<path d="M96.441 499.364L96.3867 502.467L99.4877 502.521L99.542 499.418L96.441 499.364Z" fill="#0D5EF4"/>
<path d="M116.89 510.05L116.836 513.152L119.937 513.207L119.991 510.104L116.89 510.05Z" fill="#0D5EF4"/>
<path d="M116.738 519.192L116.684 522.295L119.785 522.349L119.839 519.246L116.738 519.192Z" fill="#0D5EF4"/>
<path d="M106.566 509.872L106.512 512.975L109.613 513.029L109.667 509.926L106.566 509.872Z" fill="#0D5EF4"/>
<path d="M-264 90.949C-222.81 149.462 -100.519 253.616 59.1222 202.125C258.673 137.76 262.848 -57.8424 515 -9.35979" stroke="white" stroke-width="4"/>
</g>
</svg>
