<svg width="16" height="15" viewBox="0 0 16 15" fill="none" xmlns="http://www.w3.org/2000/svg">
<path d="M1.75 13.875H8.09375C8.34896 14.2031 8.65885 14.4857 9.02344 14.7227C8.93229 14.7409 8.84115 14.75 8.75 14.75H1.75C1.25781 14.7318 0.847656 14.5586 0.519531 14.2305C0.191406 13.9023 0.0182292 13.4922 0 13V2.5C0.0182292 2.00781 0.191406 1.59766 0.519531 1.26953C0.847656 0.941406 1.25781 0.768229 1.75 0.75H6.01562C6.38021 0.75 6.6901 0.877604 6.94531 1.13281L10.1172 4.30469C10.3724 4.5599 10.5 4.86979 10.5 5.23438V6.19141C10.1901 6.26432 9.89844 6.3737 9.625 6.51953V6H6.5625C6.19792 5.98177 5.88802 5.85417 5.63281 5.61719C5.39583 5.36198 5.26823 5.05208 5.25 4.6875V1.625H1.75C1.49479 1.625 1.28516 1.70703 1.12109 1.87109C0.957031 2.03516 0.875 2.24479 0.875 2.5V13C0.875 13.2552 0.957031 13.4648 1.12109 13.6289C1.28516 13.793 1.49479 13.875 1.75 13.875ZM9.48828 4.93359L6.31641 1.76172C6.26172 1.70703 6.19792 1.66146 6.125 1.625V4.6875C6.14323 4.96094 6.28906 5.10677 6.5625 5.125H9.625C9.58854 5.05208 9.54297 4.98828 9.48828 4.93359ZM13.6445 9.63672C13.8268 9.83724 13.8268 10.0378 13.6445 10.2383L11.6758 12.207C11.4753 12.3893 11.2747 12.3893 11.0742 12.207L9.98047 11.1133C9.79818 10.9128 9.79818 10.7122 9.98047 10.5117C10.181 10.3294 10.3815 10.3294 10.582 10.5117L11.375 11.2773L13.043 9.63672C13.2435 9.45443 13.444 9.45443 13.6445 9.63672ZM7.875 10.8125C7.91146 9.70052 8.29427 8.77083 9.02344 8.02344C9.77083 7.29427 10.7005 6.91146 11.8125 6.875C12.9245 6.91146 13.8542 7.29427 14.6016 8.02344C15.3307 8.77083 15.7135 9.70052 15.75 10.8125C15.7135 11.9245 15.3307 12.8542 14.6016 13.6016C13.8542 14.3307 12.9245 14.7135 11.8125 14.75C10.7005 14.7135 9.77083 14.3307 9.02344 13.6016C8.29427 12.8542 7.91146 11.9245 7.875 10.8125ZM11.8125 13.875C12.6875 13.8568 13.4076 13.556 13.9727 12.9727C14.556 12.4076 14.8568 11.6875 14.875 10.8125C14.8568 9.9375 14.556 9.21745 13.9727 8.65234C13.4076 8.06901 12.6875 7.76823 11.8125 7.75C10.9375 7.76823 10.2174 8.06901 9.65234 8.65234C9.06901 9.21745 8.76823 9.9375 8.75 10.8125C8.76823 11.6875 9.06901 12.4076 9.65234 12.9727C10.2174 13.556 10.9375 13.8568 11.8125 13.875Z" fill="#0D5EF4"/>
</svg>
