<svg width="24" height="24" viewBox="0 0 24 24" fill="none" xmlns="http://www.w3.org/2000/svg">
<path d="M12 0C12.875 0 13.6562 0.21875 14.3438 0.65625C15.0312 1.09375 15.5781 1.67188 15.9844 2.39062C16.7656 2.14063 17.5469 2.10938 18.3281 2.29688C19.1094 2.48438 19.8281 2.89063 20.4844 3.51562C21.0781 4.14062 21.4688 4.84375 21.6562 5.625C21.8438 6.4375 21.8281 7.23437 21.6094 8.01562C22.3281 8.42188 22.9062 8.96875 23.3438 9.65625C23.7812 10.3438 24 11.125 24 12C24 12.875 23.7812 13.6562 23.3438 14.3438C22.9062 15.0312 22.3281 15.5781 21.6094 15.9844C22.0781 17.6094 21.7031 19.1094 20.4844 20.4844C19.8281 21.0781 19.1094 21.4688 18.3281 21.6562C17.5469 21.8438 16.7656 21.8281 15.9844 21.6094C15.5781 22.3281 15.0312 22.9062 14.3438 23.3438C13.6562 23.7812 12.875 24 12 24C11.125 24 10.3438 23.7812 9.65625 23.3438C8.96875 22.9062 8.42188 22.3281 8.01562 21.6094C7.23438 21.8281 6.4375 21.8438 5.625 21.6562C4.84375 21.5 4.14062 21.1094 3.51562 20.4844C2.29688 19.1094 1.92188 17.6094 2.39062 15.9844C1.67188 15.5781 1.09375 15.0312 0.65625 14.3438C0.21875 13.6562 0 12.875 0 12C0 11.125 0.21875 10.3438 0.65625 9.65625C1.09375 8.96875 1.67188 8.42188 2.39062 8.01562C2.14062 7.23437 2.10938 6.4375 2.29688 5.625C2.48438 4.84375 2.89062 4.14062 3.51562 3.51562C4.14062 2.89063 4.84375 2.48438 5.625 2.29688C6.4375 2.14063 7.23438 2.17187 8.01562 2.39062C8.42188 1.67188 8.96875 1.09375 9.65625 0.65625C10.3438 0.21875 11.125 0 12 0ZM16.5 10.5C16.9688 10 16.9688 9.48438 16.5 8.95312C16 8.51562 15.4844 8.51562 14.9531 8.95312L10.5 13.4062L8.625 11.5781C8.125 11.1406 7.60938 11.1406 7.07812 11.5781C6.64062 12.1094 6.64062 12.625 7.07812 13.125L9.70312 15.75C10.2344 16.2188 10.75 16.2188 11.25 15.75L16.5 10.5Z" fill="#0D5EF4"/>
</svg>
