<svg width="579" height="446" viewBox="0 0 579 446" fill="none" xmlns="http://www.w3.org/2000/svg">
<path d="M99.3273 28.1646H67.1446C64.0057 28.1646 61.4531 25.6176 61.4531 22.4855C61.4531 19.3534 64.0057 16.8064 67.1446 16.8064H99.3273C102.501 16.8064 105.019 19.3534 105.019 22.4855C105.053 25.6176 102.501 28.1646 99.3273 28.1646Z" fill="#D0DBE9"/>
<path d="M83.2521 44.2037C80.1132 44.2037 77.5605 41.6567 77.5605 38.5246V6.41198C77.5605 3.27987 80.1132 0.73291 83.2521 0.73291C86.3911 0.73291 88.9436 3.27987 88.9436 6.41198V38.5246C88.9436 41.6567 86.3911 44.2037 83.2521 44.2037Z" fill="#D0DBE9"/>
<path d="M532.85 80.4467C529.814 80.4467 527.365 78.0029 527.365 74.9741V57.1108C527.365 54.0819 529.814 51.6382 532.85 51.6382C535.885 51.6382 538.334 54.0819 538.334 57.1108V74.9741C538.334 78.0029 535.885 80.4467 532.85 80.4467Z" fill="#0D5EF4"/>
<path d="M518.361 86.4356C516.947 86.4356 515.567 85.8849 514.498 84.8523L501.838 72.2207C499.7 70.0867 499.7 66.6104 501.838 64.4764C503.977 62.3425 507.461 62.3425 509.599 64.4764L522.259 77.1081C524.397 79.2421 524.397 82.7184 522.259 84.8523C521.155 85.9193 519.741 86.4356 518.361 86.4356Z" fill="#0D5EF4"/>
<path d="M512.324 100.926H494.422C491.387 100.926 488.938 98.4821 488.938 95.4533C488.938 92.4245 491.387 89.9807 494.422 89.9807H512.324C515.36 89.9807 517.809 92.4245 517.809 95.4533C517.809 98.4821 515.36 100.926 512.324 100.926Z" fill="#0D5EF4"/>
<path d="M505.702 128.048C504.287 128.048 502.908 127.531 501.838 126.464C499.7 124.33 499.7 120.854 501.838 118.755L514.498 106.123C516.636 103.989 520.12 103.989 522.259 106.123C524.397 108.257 524.397 111.733 522.259 113.833L509.599 126.464C508.496 127.531 507.081 128.048 505.702 128.048Z" fill="#0D5EF4"/>
<path d="M532.85 139.268C529.814 139.268 527.365 136.824 527.365 133.796V115.932C527.365 112.903 529.814 110.46 532.85 110.46C535.885 110.46 538.334 112.903 538.334 115.932V133.796C538.334 136.824 535.885 139.268 532.85 139.268Z" fill="#0D5EF4"/>
<path d="M560.031 128.048C558.617 128.048 557.237 127.531 556.167 126.464L543.508 113.833C541.37 111.699 541.37 108.222 543.508 106.123C545.647 103.989 549.131 103.989 551.269 106.123L563.929 118.755C566.067 120.889 566.067 124.365 563.929 126.464C562.859 127.531 561.445 128.048 560.031 128.048Z" fill="#0D5EF4"/>
<path d="M571.311 100.926H553.408C550.373 100.926 547.924 98.4821 547.924 95.4533C547.924 92.4245 550.373 89.9807 553.408 89.9807H571.311C574.346 89.9807 576.795 92.4245 576.795 95.4533C576.761 98.4821 574.312 100.926 571.311 100.926Z" fill="#0D5EF4"/>
<path d="M547.407 86.4356C545.992 86.4356 544.613 85.8849 543.543 84.8179C541.405 82.6839 541.405 79.2076 543.543 77.1081L556.203 64.4764C558.341 62.3425 561.825 62.3425 563.964 64.4764C566.102 66.6104 566.102 70.0867 563.964 72.1862L551.305 84.8179C550.201 85.9193 548.786 86.4356 547.407 86.4356Z" fill="#0D5EF4"/>
<path d="M33.2719 346.193C33.2719 355.142 25.9937 362.37 17.0598 362.37C8.09141 362.37 0.847656 355.108 0.847656 346.193C0.847656 337.279 8.09141 330.017 17.0598 330.017C26.0282 330.017 33.2719 337.245 33.2719 346.193Z" fill="#0D5EF4"/>
<path d="M578.999 209.62C578.999 223.594 567.651 234.918 553.646 234.918C539.641 234.918 528.293 223.594 528.293 209.62C528.293 195.646 539.641 184.322 553.646 184.322C567.651 184.322 578.999 195.646 578.999 209.62Z" fill="#F20F10"/>
<path d="M80.9418 445.147C69.5589 445.147 60.3145 435.923 60.3145 424.565C60.3145 413.207 69.5589 403.982 80.9418 403.982C92.3248 403.982 101.569 413.207 101.569 424.565C101.569 435.923 92.2903 445.147 80.9418 445.147ZM80.9418 413.516C74.8364 413.516 69.8693 418.473 69.8693 424.565C69.8693 430.657 74.8364 435.613 80.9418 435.613C87.0473 435.613 92.0143 430.657 92.0143 424.565C92.0143 418.473 87.0128 413.516 80.9418 413.516Z" fill="#D0DBE9"/>
</svg>
