<svg width="9" height="13" viewBox="0 0 9 13" fill="none" xmlns="http://www.w3.org/2000/svg">
<path d="M0 2C0.015625 1.57812 0.164062 1.22656 0.445312 0.945312C0.726562 0.664062 1.07812 0.515625 1.5 0.5H5.15625C5.46875 0.5 5.73438 0.609375 5.95312 0.828125L8.67188 3.54688C8.89062 3.76562 9 4.03125 9 4.34375V11C8.98438 11.4219 8.83594 11.7734 8.55469 12.0547C8.27344 12.3359 7.92188 12.4844 7.5 12.5H1.5C1.07812 12.4844 0.726562 12.3359 0.445312 12.0547C0.164062 11.7734 0.015625 11.4219 0 11V2ZM8.25 5H5.625C5.3125 4.98438 5.04688 4.875 4.82812 4.67188C4.625 4.45312 4.51562 4.1875 4.5 3.875V1.25H1.5C1.28125 1.25 1.10156 1.32031 0.960938 1.46094C0.820312 1.60156 0.75 1.78125 0.75 2V11C0.75 11.2188 0.820312 11.3984 0.960938 11.5391C1.10156 11.6797 1.28125 11.75 1.5 11.75H7.5C7.71875 11.75 7.89844 11.6797 8.03906 11.5391C8.17969 11.3984 8.25 11.2188 8.25 11V5ZM8.13281 4.08594L5.41406 1.36719C5.36719 1.32031 5.3125 1.28125 5.25 1.25V3.875C5.26562 4.10938 5.39062 4.23438 5.625 4.25H8.25C8.21875 4.1875 8.17969 4.13281 8.13281 4.08594Z" fill="#0D5EF4"/>
</svg>
