<svg width="14" height="15" viewBox="0 0 14 15" fill="none" xmlns="http://www.w3.org/2000/svg">
<path d="M13.918 13.5742C13.9727 13.6289 14 13.7018 14 13.793C14 13.8841 13.9727 13.9661 13.918 14.0391L13.2891 14.6406C13.2161 14.7135 13.1341 14.75 13.043 14.75C12.9518 14.75 12.8789 14.7135 12.8242 14.6406L9.48828 11.332C9.43359 11.2591 9.40625 11.1862 9.40625 11.1133V10.7305C8.89583 11.168 8.32161 11.5143 7.68359 11.7695C7.04557 12.0065 6.38021 12.125 5.6875 12.125C4.64844 12.125 3.69141 11.8698 2.81641 11.3594C1.95964 10.849 1.27604 10.1654 0.765625 9.30859C0.255208 8.43359 0 7.47656 0 6.4375C0 5.39844 0.255208 4.45052 0.765625 3.59375C1.27604 2.71875 1.95964 2.02604 2.81641 1.51562C3.69141 1.00521 4.64844 0.75 5.6875 0.75C6.72656 0.75 7.67448 1.00521 8.53125 1.51562C9.40625 2.02604 10.099 2.71875 10.6094 3.59375C11.1198 4.45052 11.375 5.39844 11.375 6.4375C11.375 7.13021 11.2474 7.79557 10.9922 8.43359C10.7552 9.07161 10.418 9.64583 9.98047 10.1562H10.3633C10.4544 10.1562 10.5273 10.1836 10.582 10.2383L13.918 13.5742ZM5.6875 10.8125C6.47135 10.8125 7.20052 10.6211 7.875 10.2383C8.54948 9.83724 9.07812 9.29948 9.46094 8.625C9.86198 7.95052 10.0625 7.22135 10.0625 6.4375C10.0625 5.65365 9.86198 4.92448 9.46094 4.25C9.07812 3.57552 8.54948 3.04688 7.875 2.66406C7.20052 2.26302 6.47135 2.0625 5.6875 2.0625C4.90365 2.0625 4.17448 2.26302 3.5 2.66406C2.82552 3.04688 2.28776 3.57552 1.88672 4.25C1.50391 4.92448 1.3125 5.65365 1.3125 6.4375C1.3125 7.22135 1.50391 7.95052 1.88672 8.625C2.28776 9.29948 2.82552 9.83724 3.5 10.2383C4.17448 10.6211 4.90365 10.8125 5.6875 10.8125Z" fill="#0D5EF4"/>
</svg>
