<svg width="16" height="16" viewBox="0 0 16 16" fill="none" xmlns="http://www.w3.org/2000/svg">
<path d="M5.7143 0H1.14286C0.511676 0 0 0.511676 0 1.14286V5.7143C0 6.34548 0.511676 6.85716 1.14286 6.85716H5.7143C6.34548 6.85716 6.85716 6.34548 6.85716 5.7143V1.14286C6.85716 0.511676 6.34548 0 5.7143 0Z" fill="#0D5EF4"/>
<path d="M14.8588 0H10.2874C9.65621 0 9.14453 0.511676 9.14453 1.14286V5.7143C9.14453 6.34548 9.65621 6.85716 10.2874 6.85716H14.8588C15.49 6.85716 16.0017 6.34548 16.0017 5.7143V1.14286C16.0017 0.511676 15.49 0 14.8588 0Z" fill="#0D5EF4"/>
<path d="M5.7143 9.14258H1.14286C0.511676 9.14258 0 9.65425 0 10.2854V14.8569C0 15.4881 0.511676 15.9997 1.14286 15.9997H5.7143C6.34548 15.9997 6.85716 15.4881 6.85716 14.8569V10.2854C6.85716 9.65425 6.34548 9.14258 5.7143 9.14258Z" fill="#0D5EF4"/>
<path d="M14.8588 9.14258H10.2874C9.65621 9.14258 9.14453 9.65425 9.14453 10.2854V14.8569C9.14453 15.4881 9.65621 15.9997 10.2874 15.9997H14.8588C15.49 15.9997 16.0017 15.4881 16.0017 14.8569V10.2854C16.0017 9.65425 15.49 9.14258 14.8588 9.14258Z" fill="#0D5EF4"/>
</svg>
