<svg width="21" height="16" viewBox="0 0 21 16" fill="none" xmlns="http://www.w3.org/2000/svg">
<path fill-rule="evenodd" clip-rule="evenodd" d="M6 14.4C6 14.1878 6.07902 13.9843 6.21967 13.8343C6.36032 13.6843 6.55109 13.6 6.75 13.6H20.25C20.4489 13.6 20.6397 13.6843 20.7803 13.8343C20.921 13.9843 21 14.1878 21 14.4C21 14.6122 20.921 14.8157 20.7803 14.9657C20.6397 15.1157 20.4489 15.2 20.25 15.2H6.75C6.55109 15.2 6.36032 15.1157 6.21967 14.9657C6.07902 14.8157 6 14.6122 6 14.4ZM6 8C6 7.78783 6.07902 7.58434 6.21967 7.43431C6.36032 7.28429 6.55109 7.2 6.75 7.2H20.25C20.4489 7.2 20.6397 7.28429 20.7803 7.43431C20.921 7.58434 21 7.78783 21 8C21 8.21217 20.921 8.41566 20.7803 8.56569C20.6397 8.71571 20.4489 8.8 20.25 8.8H6.75C6.55109 8.8 6.36032 8.71571 6.21967 8.56569C6.07902 8.41566 6 8.21217 6 8ZM6 1.6C6 1.38783 6.07902 1.18434 6.21967 1.03431C6.36032 0.884286 6.55109 0.8 6.75 0.8H20.25C20.4489 0.8 20.6397 0.884286 20.7803 1.03431C20.921 1.18434 21 1.38783 21 1.6C21 1.81217 20.921 2.01566 20.7803 2.16569C20.6397 2.31571 20.4489 2.4 20.25 2.4H6.75C6.55109 2.4 6.36032 2.31571 6.21967 2.16569C6.07902 2.01566 6 1.81217 6 1.6ZM1.5 3.2C1.89782 3.2 2.27936 3.03143 2.56066 2.73137C2.84196 2.43131 3 2.02435 3 1.6C3 1.17565 2.84196 0.768687 2.56066 0.468629C2.27936 0.168571 1.89782 0 1.5 0C1.10218 0 0.720644 0.168571 0.43934 0.468629C0.158035 0.768687 0 1.17565 0 1.6C0 2.02435 0.158035 2.43131 0.43934 2.73137C0.720644 3.03143 1.10218 3.2 1.5 3.2ZM1.5 9.6C1.89782 9.6 2.27936 9.43143 2.56066 9.13137C2.84196 8.83131 3 8.42435 3 8C3 7.57565 2.84196 7.16869 2.56066 6.86863C2.27936 6.56857 1.89782 6.4 1.5 6.4C1.10218 6.4 0.720644 6.56857 0.43934 6.86863C0.158035 7.16869 0 7.57565 0 8C0 8.42435 0.158035 8.83131 0.43934 9.13137C0.720644 9.43143 1.10218 9.6 1.5 9.6ZM1.5 16C1.89782 16 2.27936 15.8314 2.56066 15.5314C2.84196 15.2313 3 14.8243 3 14.4C3 13.9757 2.84196 13.5687 2.56066 13.2686C2.27936 12.9686 1.89782 12.8 1.5 12.8C1.10218 12.8 0.720644 12.9686 0.43934 13.2686C0.158035 13.5687 0 13.9757 0 14.4C0 14.8243 0.158035 15.2313 0.43934 15.5314C0.720644 15.8314 1.10218 16 1.5 16Z" fill="#0F2239"/>
</svg>
