<svg width="12" height="13" viewBox="0 0 12 13" fill="none" xmlns="http://www.w3.org/2000/svg">
<path d="M6 12.5C4.875 12.4844 3.86719 12.2109 2.97656 11.6797C2.07031 11.1484 1.35156 10.4297 0.820312 9.52344C0.289062 8.63281 0.015625 7.625 0 6.5C0.015625 5.375 0.289062 4.36719 0.820312 3.47656C1.35156 2.57031 2.07031 1.85156 2.97656 1.32031C3.86719 0.789062 4.875 0.515625 6 0.5C7.125 0.515625 8.13281 0.789062 9.02344 1.32031C9.92969 1.85156 10.6484 2.57031 11.1797 3.47656C11.7109 4.36719 11.9844 5.375 12 6.5C11.9844 7.625 11.7109 8.63281 11.1797 9.52344C10.6484 10.4297 9.92969 11.1484 9.02344 11.6797C8.13281 12.2109 7.125 12.4844 6 12.5ZM5.4375 6.5C5.4375 6.70312 5.52344 6.85156 5.69531 6.94531L7.94531 8.44531C8.24219 8.63281 8.49219 8.58594 8.69531 8.30469C8.88281 8.00781 8.83594 7.75 8.55469 7.53125L6.5625 6.19531V3.3125C6.53125 2.96875 6.33594 2.78125 5.97656 2.75C5.82031 2.75 5.6875 2.80469 5.57812 2.91406C5.46875 3.02344 5.41406 3.15625 5.41406 3.3125L5.4375 6.5Z" fill="white"/>
</svg>
