<svg width="327" height="337" viewBox="0 0 327 337" fill="none" xmlns="http://www.w3.org/2000/svg">
<path d="M158.167 331C158.167 333.946 160.554 336.333 163.5 336.333C166.446 336.333 168.833 333.946 168.833 331C168.833 328.054 166.446 325.667 163.5 325.667C160.554 325.667 158.167 328.054 158.167 331ZM158.167 6C158.167 8.94552 160.554 11.3333 163.5 11.3333C166.446 11.3333 168.833 8.94552 168.833 6C168.833 3.05448 166.446 0.666667 163.5 0.666667C160.554 0.666667 158.167 3.05448 158.167 6ZM326 167.5H325C325 257.254 253.238 330 163.5 330V331V332C254.359 332 327 258.343 327 167.5H326ZM1 167.5H2C2 77.7618 73.7456 7 163.5 7V6V5C72.6572 5 0 76.6411 0 167.5H1Z" fill="#F20F10"/>
</svg>
