<svg width="17" height="17" viewBox="0 0 17 17" fill="none" xmlns="http://www.w3.org/2000/svg">
<path d="M16.4688 1.875C16.8021 2.22917 16.9688 2.63542 16.9688 3.09375C16.9688 3.57292 16.8021 3.98958 16.4688 4.34375L6.6875 14.125C6.33333 14.4792 5.91667 14.7292 5.4375 14.875L1.65625 15.9688C1.44792 16.0312 1.28125 15.9896 1.15625 15.8438C1.01042 15.7188 0.96875 15.5625 1.03125 15.375L2.125 11.5938C2.27083 11.0938 2.52083 10.6667 2.875 10.3125L12.6562 0.53125C13.0104 0.197917 13.4271 0.03125 13.9062 0.03125C14.3646 0.03125 14.7708 0.197917 15.125 0.53125L16.4688 1.875ZM11.6562 2.9375L14.0625 5.3125L15.75 3.625C16.0417 3.27083 16.0417 2.91667 15.75 2.5625L14.4375 1.25C14.0833 0.958333 13.7292 0.958333 13.375 1.25L11.6562 2.9375ZM10.9375 3.65625L3.59375 11C3.36458 11.25 3.19792 11.5417 3.09375 11.875L2.25 14.75L5.125 13.9062C5.45833 13.8021 5.75 13.6354 6 13.4062L13.3125 6.0625L10.9375 3.65625Z" fill="#93A5BE"/>
</svg>
