<svg width="17" height="17" viewBox="0 0 17 17" fill="none" xmlns="http://www.w3.org/2000/svg">
<path d="M15.125 11.3438L11.9375 9.96875C11.375 9.75 10.6875 9.90625 10.3125 10.4062L9.25 11.6562C7.625 10.75 6.25 9.375 5.34375 7.75L6.625 6.71875C7.09375 6.3125 7.25 5.625 7 5.0625L5.65625 1.875C5.375 1.25 4.6875 0.90625 4.03125 1.0625L1.09375 1.75C0.4375 1.875 0 2.4375 0 3.125C0 10.7812 6.21875 17 13.875 17C14.5625 17 15.125 16.5625 15.2812 15.9062L15.9375 12.9688C16.0938 12.3125 15.75 11.625 15.125 11.3438ZM14.2812 15.6875C14.25 15.875 14.0938 16.0312 13.875 16.0312C6.78125 16.0312 1 10.2188 1 3.125C1 2.90625 1.125 2.75 1.3125 2.71875L4.25 2.03125C4.28125 2.03125 4.3125 2 4.34375 2C4.5 2 4.65625 2.125 4.75 2.28125L6.09375 5.4375C6.15625 5.625 6.125 5.8125 5.96875 5.9375L4.40625 7.21875C4.21875 7.375 4.15625 7.625 4.28125 7.84375C5.3125 9.9375 7.0625 11.6875 9.1875 12.7188C9.375 12.8438 9.625 12.7812 9.78125 12.5938L11.0625 11.0312C11.1875 10.875 11.375 10.8438 11.5625 10.9062L14.7188 12.25C14.9062 12.3438 15.0312 12.5312 14.9688 12.75L14.2812 15.6875Z" fill="#93A5BE"/>
</svg>
