<svg width="244" height="717" viewBox="0 0 244 717" fill="none" xmlns="http://www.w3.org/2000/svg">
<path d="M109.83 10.6903C122.109 27.0223 136.794 42.5605 155.809 49.9478C174.827 57.3472 198.978 54.5697 211.97 38.8228C214.744 35.4661 216.979 31.4957 217.416 27.1552C217.963 21.704 215.654 16.3737 212.863 11.6542C194.558 -19.3231 156.889 -33.0464 133.093 -60.0047C112.373 -83.4843 93.9221 -119.712 69.6284 -134.912C52.832 -145.411 38.8365 -128.829 57.4036 -80.0166C70.0121 -46.8741 88.3516 -17.8707 109.83 10.6903Z" fill="url(#paint0_linear_241_55)"/>
<path d="M57.4023 -80.0163C70.0108 -46.8738 88.3503 -17.8705 109.828 10.6906C122.108 27.0225 136.792 42.5607 155.808 49.948C172.087 56.2793 192.119 55.1566 205.694 44.8383C179.176 30.4407 155.342 7.94634 135.098 -13.6663C91.0881 -60.6361 71.0662 -97.4144 53.9294 -135.444C46.9742 -129.23 45.5338 -111.201 57.4023 -80.0163Z" fill="url(#paint1_linear_241_55)"/>
<path d="M172.067 21.4742C171.005 36.7602 173.586 52.2896 179.54 66.4155" stroke="white" stroke-width="0.2717" stroke-miterlimit="10"/>
<path d="M199.871 -14.1849C191.613 -8.35548 183.006 -3.0316 174.119 1.74553C168.938 4.53023 163.543 7.16105 157.727 8.05237" stroke="white" stroke-width="0.2717" stroke-miterlimit="10"/>
<path d="M132.973 -17.2799C129.511 -0.142095 122.334 16.2328 112.097 30.3893" stroke="white" stroke-width="0.2717" stroke-miterlimit="10"/>
<path d="M129.018 -20.4231C126.087 -5.75843 120.126 8.28904 111.617 20.5597" stroke="white" stroke-width="0.2717" stroke-miterlimit="10"/>
<path d="M159.532 10.8445C176.002 8.1954 191.673 0.717372 204.112 -10.4195" stroke="white" stroke-width="0.2717" stroke-miterlimit="10"/>
<path d="M206.409 45.0022C170.432 24.1805 159.462 12.3413 135.1 -13.6546C75.77 -76.9707 60.0348 -121.762 36.189 -176.102" stroke="white" stroke-width="0.2717" stroke-miterlimit="10"/>
<path d="M150.491 120.967C153.449 122.584 157.09 123.849 160.1 122.314C161.479 121.607 162.54 120.363 163.292 118.999C167.4 111.475 162.162 102.147 155.777 96.4191C149.392 90.6912 141.417 86.0766 137.933 78.239C144.852 75.9531 152.23 81.5628 159.408 80.3267C164.539 79.4555 168.682 74.8589 169.478 69.7068C170.274 64.5547 167.93 59.1303 163.897 55.8125C154.974 48.4587 141.553 51.9756 130.512 48.6031C127.514 47.6849 124.562 46.1433 122.815 43.5403C121.069 40.9373 120.863 37.1179 122.994 34.831C127.564 29.9302 137.847 35.242 141.582 29.6688C143.191 27.2748 142.451 23.8485 140.563 21.6745C138.672 19.4883 135.904 18.2992 133.153 17.3996C126.682 15.2789 119.803 14.4153 113.005 14.8732C110.528 15.0327 107.99 15.3723 105.572 14.8033C103.154 14.2342 100.804 12.4875 100.394 10.0307C99.1609 2.64815 114.358 0.119018 112.396 -7.10539C111.264 -11.282 105.513 -11.5292 101.247 -10.8865C91.1983 -9.37297 81.1498 -7.8595 71.1043 -6.33392C65.642 -5.51277 59.5533 -4.31497 56.4058 0.226881C54.7829 2.56039 54.2098 5.45194 53.7465 8.26669C51.2116 23.6426 50.7908 39.3781 52.4985 54.8826C52.885 58.3278 53.4614 61.9838 55.7443 64.5887C58.0272 67.1935 62.5872 68.0774 64.8621 65.4761C66.3429 63.7886 67.7032 60.6615 69.677 61.7304C70.5982 62.2293 70.8093 63.4563 70.8995 64.4946C72.2842 80.8535 71.1747 98.9332 81.4075 111.762C82.3665 112.967 83.4708 114.138 84.9099 114.668C88.6398 116.041 92.4975 112.404 93.6177 108.58C94.7259 104.759 94.2381 100.61 95.2922 96.7761C96.3584 92.9393 100.079 89.2077 103.865 90.4389C104.598 101.513 108.544 112.357 115.078 121.33C117.654 124.862 122.493 128.348 125.921 125.655C127.784 124.185 128.145 121.534 128.199 119.147C128.329 113.986 127.726 108.804 126.404 103.816C125.755 101.377 124.348 95.81 128.236 96.277C130.351 96.5342 133.005 104.094 134.063 105.723C138.187 112.044 143.876 117.361 150.491 120.967Z" fill="url(#paint2_linear_241_55)"/>
<path d="M150.186 101.406C149.705 100.932 149.209 100.448 148.613 100.141C148.018 99.834 147.275 99.7146 146.662 99.986C146.523 100.044 146.392 100.139 146.321 100.27C146.215 100.474 146.287 100.725 146.374 100.934C147.106 102.805 148.488 104.345 149.844 105.827C150.242 106.269 150.666 106.719 151.196 106.965C151.738 107.208 152.441 107.209 152.869 106.802C153.492 106.197 153.219 105.138 152.753 104.404C152.072 103.351 151.066 102.272 150.186 101.406Z" fill="#97B4FB"/>
<path d="M153.236 110.879C152.998 110.679 152.594 110.646 152.41 110.894C152.351 110.971 152.323 111.067 152.307 111.16C152.078 112.146 152.279 113.222 152.846 114.059C153.002 114.291 153.234 114.517 153.503 114.467C153.675 114.439 153.807 114.293 153.897 114.132C154.107 113.776 154.144 113.334 154.086 112.926C154.01 112.382 153.671 111.262 153.236 110.879Z" fill="#97B4FB"/>
<path d="M149.572 97.1715C149.752 97.2314 150.003 97.1598 150.046 96.9584C150.058 96.9044 150.054 96.8289 150.039 96.7684C149.94 96.1279 149.56 95.5405 149.019 95.195C148.87 95.1023 148.672 95.021 148.529 95.1184C148.429 95.1802 148.394 95.3033 148.38 95.4086C148.34 95.6733 148.427 95.9339 148.559 96.1709C148.744 96.4721 149.212 97.0517 149.572 97.1715Z" fill="#97B4FB"/>
<path d="M137.935 87.6964C138.123 87.6268 138.264 87.4148 138.183 87.2297C138.156 87.1721 138.109 87.1322 138.061 87.0923C137.588 86.6543 136.925 86.4396 136.276 86.5024C136.101 86.5179 135.898 86.5782 135.848 86.7433C135.81 86.8543 135.85 86.9724 135.912 87.0728C136.041 87.2978 136.283 87.4581 136.523 87.5551C136.868 87.6656 137.595 87.827 137.935 87.6964Z" fill="#97B4FB"/>
<path d="M156.697 111.664C156.691 111.856 156.833 112.079 157.023 112.072C157.086 112.07 157.144 112.044 157.201 112.018C157.79 111.752 158.253 111.222 158.455 110.613C158.506 110.448 158.533 110.238 158.402 110.115C158.319 110.032 158.189 110.024 158.078 110.038C157.818 110.073 157.584 110.218 157.4 110.414C157.158 110.688 156.724 111.287 156.697 111.664Z" fill="#97B4FB"/>
<path d="M131.411 90.9643C131.037 90.9498 130.658 91.1281 130.434 91.4232C130.16 91.7809 130.108 92.2655 130.137 92.7181C130.167 93.3365 130.324 93.9508 130.63 94.4918C130.844 94.8627 131.153 95.1989 131.558 95.2953C131.964 95.3916 132.385 95.229 132.744 95.0172C133.112 94.7905 133.46 94.4791 133.596 94.0772C133.756 93.6183 133.637 93.1101 133.375 92.6993C133.019 92.1063 132.158 90.9933 131.411 90.9643Z" fill="#97B4FB"/>
<path d="M142.288 92.0632C141.701 92.0094 141.117 92.2993 140.737 92.7459C140.357 93.1925 140.161 93.7744 140.12 94.3586C140.084 94.7499 140.132 95.1727 140.369 95.4746C140.641 95.8192 141.13 95.947 141.554 95.8477C141.98 95.7605 142.352 95.4947 142.658 95.1676C142.983 94.8106 143.23 94.3952 143.391 93.9363C143.649 93.1353 143.173 92.1365 142.288 92.0632Z" fill="#97B4FB"/>
<path d="M142.957 99.2082C142.773 99.1874 142.603 99.2783 142.483 99.4213C142.364 99.5642 142.301 99.7321 142.292 99.9128C142.281 100.03 142.301 100.166 142.372 100.252C142.46 100.358 142.611 100.4 142.732 100.371C142.865 100.34 142.974 100.263 143.066 100.165C143.167 100.052 143.241 99.9328 143.286 99.7948C143.38 99.543 143.231 99.2333 142.957 99.2082Z" fill="#97B4FB"/>
<path d="M155.527 100.716C155.343 100.695 155.173 100.786 155.054 100.929C154.934 101.072 154.871 101.24 154.863 101.421C154.852 101.538 154.871 101.674 154.942 101.759C155.031 101.866 155.181 101.908 155.302 101.879C155.423 101.851 155.545 101.771 155.637 101.673C155.738 101.56 155.812 101.441 155.856 101.303C155.95 101.051 155.801 100.741 155.527 100.716Z" fill="#97B4FB"/>
<path d="M156.007 105.493C156.025 105.68 156.15 105.829 156.299 105.922C156.46 106.012 156.647 106.045 156.831 106.014C156.955 105.998 157.076 105.969 157.156 105.874C157.248 105.776 157.247 105.61 157.207 105.492C157.151 105.365 157.053 105.273 156.934 105.199C156.811 105.112 156.661 105.071 156.514 105.042C156.249 105.002 155.978 105.206 156.007 105.493Z" fill="#97B4FB"/>
<path d="M159.975 107.716C159.885 107.712 159.794 107.758 159.744 107.821C159.683 107.887 159.655 107.983 159.647 108.061C159.65 108.124 159.652 108.187 159.687 108.23C159.726 108.285 159.807 108.304 159.867 108.29C159.928 108.276 159.995 108.235 160.035 108.187C160.087 108.137 160.121 108.065 160.143 107.996C160.181 107.885 160.107 107.736 159.975 107.716Z" fill="#97B4FB"/>
<path d="M155.379 107.504C155.289 107.5 155.21 107.544 155.149 107.609C155.088 107.675 155.059 107.771 155.052 107.849C155.054 107.912 155.056 107.976 155.092 108.018C155.13 108.073 155.211 108.092 155.272 108.078C155.332 108.064 155.399 108.023 155.439 107.975C155.491 107.925 155.525 107.853 155.547 107.784C155.582 107.661 155.509 107.512 155.379 107.504Z" fill="#97B4FB"/>
<path d="M160.637 111.312C160.547 111.307 160.468 111.351 160.407 111.417C160.345 111.482 160.317 111.578 160.31 111.657C160.312 111.72 160.314 111.783 160.349 111.826C160.388 111.881 160.469 111.9 160.529 111.886C160.59 111.872 160.657 111.83 160.697 111.783C160.749 111.732 160.783 111.66 160.805 111.591C160.84 111.468 160.767 111.32 160.637 111.312Z" fill="#97B4FB"/>
<path d="M157.235 114.983C157.051 114.962 156.869 115.056 156.749 115.198C156.63 115.341 156.57 115.521 156.561 115.702C156.55 115.82 156.569 115.955 156.643 116.053C156.732 116.16 156.882 116.201 157.015 116.17C157.148 116.139 157.27 116.059 157.362 115.961C157.463 115.848 157.534 115.716 157.591 115.576C157.661 115.329 157.509 115.008 157.235 114.983Z" fill="#97B4FB"/>
<path d="M161.058 114.189C160.875 114.168 160.705 114.259 160.585 114.402C160.465 114.545 160.402 114.713 160.394 114.893C160.383 115.011 160.402 115.147 160.473 115.232C160.562 115.339 160.712 115.38 160.833 115.352C160.966 115.321 161.076 115.244 161.168 115.146C161.269 115.033 161.343 114.913 161.387 114.775C161.479 114.511 161.332 114.214 161.058 114.189Z" fill="#97B4FB"/>
<path d="M150.092 59.8638C149.459 59.6164 148.824 59.3569 148.149 59.3108C147.472 59.2526 146.749 59.4349 146.289 59.9256C146.188 60.0386 146.093 60.1759 146.088 60.3175C146.066 60.5523 146.238 60.7417 146.393 60.9098C147.788 62.3441 149.656 63.2336 151.474 64.0712C152.016 64.3143 152.576 64.5788 153.166 64.5935C153.757 64.6082 154.409 64.3404 154.637 63.7891C154.974 62.9952 154.321 62.1144 153.605 61.6186C152.59 60.9375 151.245 60.3209 150.092 59.8638Z" fill="#97B4FB"/>
<path d="M156.571 67.4201C156.28 67.3223 155.889 67.4523 155.818 67.7496C155.802 67.8429 155.813 67.9425 155.823 68.0421C155.992 69.0364 156.591 69.9555 157.448 70.5077C157.675 70.6587 157.984 70.7778 158.215 70.6215C158.37 70.5213 158.43 70.3413 158.451 70.1577C158.508 69.7485 158.373 69.3336 158.161 68.9748C157.857 68.497 157.123 67.597 156.571 67.4201Z" fill="#97B4FB"/>
<path d="M147.888 56.1934C148.087 56.1722 148.28 56.0122 148.246 55.8158C148.232 55.7553 148.206 55.6976 148.168 55.6428C147.823 55.0982 147.244 54.6978 146.619 54.5891C146.444 54.5534 146.242 54.5625 146.135 54.7026C146.067 54.7951 146.071 54.9217 146.109 55.0278C146.18 55.279 146.358 55.4927 146.576 55.6586C146.868 55.8709 147.514 56.2301 147.888 56.1934Z" fill="#97B4FB"/>
<path d="M133.495 51.9866C133.642 51.8501 133.685 51.5976 133.539 51.4658C133.491 51.4259 133.434 51.4009 133.377 51.376C132.766 51.162 132.075 51.2092 131.509 51.5204C131.351 51.6085 131.19 51.7358 131.205 51.9108C131.219 52.0226 131.292 52.1201 131.385 52.1878C131.6 52.3417 131.87 52.4059 132.133 52.3827C132.503 52.3851 133.223 52.2419 133.495 51.9866Z" fill="#97B4FB"/>
<path d="M160.075 66.7906C160.145 66.9785 160.356 67.1203 160.542 67.0386C160.599 67.0123 160.639 66.9647 160.682 66.9291C161.12 66.4562 161.347 65.7903 161.287 65.1534C161.271 64.9783 161.211 64.7755 161.046 64.7248C160.935 64.687 160.817 64.7275 160.716 64.7893C160.491 64.9186 160.328 65.1484 160.234 65.4002C160.115 65.7089 159.954 66.4361 160.075 66.7906Z" fill="#97B4FB"/>
<path d="M128.746 57.5306C128.395 57.6641 128.122 57.9705 128.014 58.3277C127.899 58.7631 128.034 59.2293 128.233 59.6422C128.505 60.2039 128.881 60.7158 129.376 61.0848C129.715 61.337 130.132 61.533 130.537 61.4636C130.954 61.3914 131.278 61.0856 131.518 60.7485C131.767 60.3965 131.975 59.9775 131.936 59.5398C131.901 59.063 131.594 58.6244 131.197 58.3473C130.672 57.9598 129.452 57.2756 128.746 57.5306Z" fill="#97B4FB"/>
<path d="M139.206 54.3242C138.648 54.5059 138.225 54.988 138.039 55.5551C137.862 56.1071 137.904 56.7227 138.086 57.28C138.21 57.6466 138.401 58.0232 138.751 58.2092C139.133 58.4258 139.638 58.3458 139.988 58.0978C140.351 57.8468 140.592 57.4585 140.736 57.0416C140.9 56.5949 140.964 56.1074 140.929 55.6306C140.884 54.7859 140.048 54.0502 139.206 54.3242Z" fill="#97B4FB"/>
<path d="M142.589 60.6528C142.422 60.7046 142.293 60.8625 142.231 61.0304C142.18 61.1954 142.186 61.3854 142.241 61.5641C142.281 61.6822 142.346 61.7947 142.448 61.8475C142.564 61.9095 142.713 61.8875 142.834 61.8079C142.944 61.7311 143.018 61.6117 143.065 61.4857C143.109 61.3477 143.139 61.2004 143.129 61.0496C143.108 60.7991 142.85 60.5662 142.589 60.6528Z" fill="#97B4FB"/>
<path d="M154.739 57.1665C154.573 57.2183 154.444 57.3761 154.381 57.544C154.33 57.7091 154.337 57.8991 154.391 58.0777C154.432 58.1959 154.497 58.3084 154.598 58.3611C154.715 58.4231 154.863 58.4012 154.985 58.3216C155.094 58.2448 155.168 58.1253 155.215 57.9994C155.26 57.8614 155.289 57.7141 155.279 57.5632C155.256 57.3006 155 57.0798 154.739 57.1665Z" fill="#97B4FB"/>
<path d="M157.038 61.3616C157.126 61.5197 157.303 61.6187 157.474 61.6423C157.658 61.6631 157.839 61.6206 157.997 61.5325C158.098 61.4706 158.207 61.3939 158.242 61.2708C158.289 61.1449 158.228 60.9932 158.13 60.9014C158.032 60.8095 157.903 60.7503 157.759 60.7331C157.612 60.7038 157.461 60.7137 157.318 60.7598C157.079 60.8287 156.906 61.1246 157.038 61.3616Z" fill="#97B4FB"/>
<path d="M161.556 61.8881C161.474 61.9201 161.401 61.9883 161.381 62.0694C161.35 62.1534 161.361 62.253 161.393 62.3349C161.407 62.3954 161.445 62.4502 161.49 62.478C161.55 62.515 161.622 62.498 161.677 62.4596C161.732 62.4212 161.769 62.3615 161.794 62.3046C161.816 62.2356 161.826 62.1694 161.821 62.094C161.814 61.9552 161.686 61.8448 161.556 61.8881Z" fill="#97B4FB"/>
<path d="M157.238 63.4715C157.156 63.5035 157.083 63.5717 157.064 63.6528C157.032 63.7368 157.043 63.8364 157.075 63.9183C157.089 63.9788 157.127 64.0336 157.172 64.0614C157.232 64.0984 157.305 64.0814 157.359 64.043C157.414 64.0046 157.451 63.9449 157.476 63.888C157.498 63.819 157.508 63.7528 157.503 63.6774C157.484 63.5414 157.368 63.4282 157.238 63.4715Z" fill="#97B4FB"/>
<path d="M163.558 64.9399C163.476 64.9718 163.403 65.0401 163.383 65.1212C163.352 65.2051 163.363 65.3048 163.395 65.3866C163.409 65.4471 163.447 65.5019 163.492 65.5297C163.552 65.5668 163.624 65.5498 163.679 65.5114C163.734 65.473 163.771 65.4132 163.796 65.3563C163.818 65.2873 163.828 65.2212 163.823 65.1457C163.816 65.0069 163.688 64.8966 163.558 64.9399Z" fill="#97B4FB"/>
<path d="M161.857 69.6537C161.678 69.7084 161.549 69.8663 161.498 70.0313C161.438 70.2113 161.457 70.3985 161.509 70.5651C161.549 70.6832 161.614 70.7957 161.715 70.8484C161.832 70.9104 161.992 70.8856 162.102 70.8089C162.211 70.7321 162.286 70.6126 162.333 70.4867C162.389 70.3459 162.403 70.1893 162.396 70.0505C162.373 69.7879 162.117 69.5671 161.857 69.6537Z" fill="#97B4FB"/>
<path d="M165.058 67.4223C164.891 67.4741 164.762 67.632 164.7 67.7999C164.649 67.9649 164.655 68.1549 164.71 68.3336C164.75 68.4518 164.815 68.5642 164.917 68.617C165.033 68.679 165.181 68.657 165.303 68.5774C165.413 68.5007 165.487 68.3812 165.534 68.2552C165.578 68.1172 165.607 67.97 165.598 67.8191C165.577 67.5686 165.318 67.3357 165.058 67.4223Z" fill="#97B4FB"/>
<path d="M125.06 23.1655C124.813 23.1468 124.557 23.1431 124.331 23.3237C124.105 23.5042 123.909 23.9204 123.864 24.5437C123.859 24.6853 123.857 24.839 123.879 24.9871C123.918 25.2077 124.012 25.3387 124.098 25.4334C124.833 26.2822 125.602 26.4593 126.366 26.6122C126.594 26.6608 126.82 26.6972 127.006 26.5131C127.205 26.3261 127.348 25.8459 127.311 25.2545C127.261 24.3856 126.868 23.801 126.54 23.5973C126.071 23.2859 125.512 23.1873 125.06 23.1655Z" fill="#97B4FB"/>
<path d="M130.52 27.7806C130.209 27.8152 129.916 28.0882 129.972 28.3815C129.995 28.4783 130.041 28.5694 130.098 28.6455C130.655 29.4978 131.572 30.087 132.567 30.2494C132.832 30.2894 133.16 30.2761 133.312 30.0492C133.404 29.8999 133.395 29.6978 133.343 29.5312C133.225 29.1376 132.941 28.7958 132.595 28.5707C132.138 28.2565 131.097 27.7348 130.52 27.7806Z" fill="#97B4FB"/>
<path d="M118.071 21.011C118.241 20.92 118.35 20.6775 118.25 20.5223C118.212 20.4675 118.164 20.4275 118.119 20.3998C117.588 20.0393 116.894 19.9085 116.277 20.0532C116.107 20.0929 115.91 20.1774 115.886 20.3489C115.861 20.457 115.925 20.5695 115.999 20.6671C116.162 20.8714 116.41 21.0047 116.678 21.0569C116.999 21.1219 117.74 21.1779 118.071 21.011Z" fill="#97B4FB"/>
<path d="M103.222 22.9476C103.294 22.7648 103.234 22.5107 103.054 22.4508C102.997 22.4258 102.934 22.4279 102.873 22.4421C102.234 22.49 101.611 22.8275 101.218 23.3281C101.11 23.4682 101.014 23.6568 101.102 23.8148C101.152 23.918 101.265 23.9679 101.386 23.9908C101.641 24.0458 101.922 23.9926 102.15 23.8754C102.466 23.6992 103.072 23.289 103.222 22.9476Z" fill="#97B4FB"/>
<path d="M133.478 25.7971C133.615 25.9438 133.867 25.9867 133.999 25.8409C134.039 25.7933 134.064 25.7363 134.089 25.6794C134.303 25.0676 134.241 24.3674 133.929 23.8021C133.841 23.644 133.714 23.4824 133.539 23.4979C133.427 23.5114 133.33 23.5853 133.262 23.6777C133.108 23.8925 133.056 24.1601 133.067 24.4255C133.077 24.7934 133.223 25.5251 133.478 25.7971Z" fill="#97B4FB"/>
<path d="M101.092 29.9336C100.823 30.201 100.697 30.588 100.746 30.9595C100.811 31.4036 101.128 31.776 101.48 32.0766C101.944 32.4783 102.503 32.794 103.101 32.9474C103.506 33.0438 103.97 33.0627 104.323 32.8267C104.679 32.6028 104.848 32.1803 104.93 31.7655C105.021 31.3357 105.027 30.8746 104.834 30.486C104.605 30.0545 104.16 29.7887 103.691 29.6944C103.033 29.5551 101.633 29.411 101.092 29.9336Z" fill="#97B4FB"/>
<path d="M109.374 22.7831C108.941 23.1656 108.742 23.7867 108.802 24.3724C108.863 24.9581 109.156 25.5019 109.539 25.9356C109.8 26.2319 110.128 26.4869 110.519 26.5228C110.95 26.5623 111.385 26.2943 111.616 25.9209C111.848 25.5475 111.906 25.0871 111.882 24.6587C111.847 24.1819 111.724 23.7128 111.495 23.2814C111.09 22.5339 110.04 22.1929 109.374 22.7831Z" fill="#97B4FB"/>
<path d="M119.308 28.3543C118.874 28.7368 118.675 29.3579 118.736 29.9436C118.797 30.5293 119.09 31.0732 119.473 31.5069C119.733 31.8031 120.061 32.0582 120.453 32.0941C120.883 32.1336 121.318 31.8656 121.55 31.4922C121.781 31.1188 121.839 30.6584 121.813 30.2179C121.777 29.7411 121.655 29.272 121.426 28.8406C121.036 28.1024 119.974 27.7642 119.308 28.3543Z" fill="#97B4FB"/>
<path d="M115.007 27.2205C114.87 27.3421 114.813 27.5342 114.828 27.7092C114.844 27.8843 114.935 28.0544 115.056 28.1919C115.139 28.2745 115.237 28.3664 115.355 28.3772C115.484 28.3851 115.618 28.3026 115.695 28.1952C115.769 28.0757 115.789 27.9434 115.77 27.8075C115.76 27.6566 115.714 27.5142 115.647 27.3897C115.539 27.1469 115.209 27.0456 115.007 27.2205Z" fill="#97B4FB"/>
<path d="M124.742 19.1287C124.604 19.2503 124.547 19.4424 124.562 19.6175C124.578 19.7925 124.669 19.9627 124.791 20.1001C124.874 20.1827 124.972 20.2746 125.089 20.2853C125.219 20.2933 125.353 20.2109 125.43 20.1035C125.504 19.984 125.524 19.8516 125.505 19.7157C125.495 19.5648 125.449 19.4225 125.381 19.2979C125.27 19.043 124.94 18.9417 124.742 19.1287Z" fill="#97B4FB"/>
<path d="M128.516 22.06C128.657 22.1676 128.855 22.1976 129.034 22.143C129.212 22.0883 129.35 21.9667 129.469 21.8238C129.549 21.7285 129.599 21.6147 129.595 21.488C129.576 21.3521 129.472 21.236 129.346 21.189C129.22 21.1419 129.081 21.1489 128.948 21.1801C128.803 21.2141 128.666 21.2845 128.547 21.3762C128.343 21.539 128.296 21.8819 128.516 22.06Z" fill="#97B4FB"/>
<path d="M132.862 20.7108C132.798 20.7641 132.769 20.8602 132.777 20.9477C132.785 21.0352 132.829 21.1142 132.885 21.1904C132.92 21.2331 132.968 21.273 133.034 21.2831C133.1 21.2931 133.167 21.2518 133.204 21.1921C133.241 21.1323 133.251 21.0662 133.249 21.0028C133.244 20.9274 133.227 20.8548 133.189 20.8C133.134 20.6726 132.968 20.6219 132.862 20.7108Z" fill="#97B4FB"/>
<path d="M129.547 23.8983C129.483 23.9516 129.455 24.0476 129.462 24.1352C129.47 24.2227 129.514 24.3017 129.57 24.3779C129.606 24.4206 129.654 24.4605 129.72 24.4705C129.786 24.4806 129.853 24.4394 129.89 24.3796C129.927 24.3199 129.937 24.2537 129.935 24.1904C129.93 24.1149 129.913 24.0423 129.875 23.9875C129.807 23.8629 129.642 23.8123 129.547 23.8983Z" fill="#97B4FB"/>
<path d="M135.918 22.6991C135.854 22.7524 135.826 22.8484 135.834 22.936C135.841 23.0235 135.885 23.1025 135.941 23.1787C135.977 23.2214 136.025 23.2613 136.091 23.2713C136.157 23.2814 136.224 23.2401 136.261 23.1804C136.298 23.1206 136.308 23.0545 136.306 22.9911C136.301 22.9157 136.284 22.8431 136.246 22.7883C136.178 22.6637 136.025 22.6102 135.918 22.6991Z" fill="#97B4FB"/>
<path d="M136.248 27.7025C136.11 27.8241 136.053 28.0161 136.072 28.2033C136.09 28.3905 136.178 28.5485 136.3 28.686C136.386 28.7807 136.481 28.8605 136.61 28.8684C136.74 28.8763 136.874 28.7939 136.948 28.6744C137.022 28.5549 137.039 28.4105 137.035 28.2838C137.025 28.1329 136.979 27.9905 136.909 27.8539C136.791 27.6261 136.459 27.5127 136.248 27.7025Z" fill="#97B4FB"/>
<path d="M138.286 24.367C138.149 24.4886 138.092 24.6806 138.107 24.8557C138.123 25.0308 138.214 25.2009 138.335 25.3384C138.419 25.421 138.517 25.5129 138.634 25.5236C138.764 25.5316 138.898 25.4491 138.974 25.3417C139.049 25.2222 139.069 25.0899 139.049 24.9539C139.04 24.8031 138.994 24.6607 138.926 24.5361C138.818 24.2934 138.5 24.1893 138.286 24.367Z" fill="#97B4FB"/>
<path d="M122.344 78.6003C94.2938 52.1162 70.3626 21.2583 51.6134 -12.4869" stroke="#CDDBFD" stroke-width="0.6622" stroke-miterlimit="10" stroke-linecap="round" stroke-linejoin="round"/>
<path d="M66.0475 46.6883C62.0387 35.3613 61.1548 24.7312 68.7578 15.4557C70.0285 13.9068 79.1105 9.84998 88.1357 10.8868" stroke="#CDDBFD" stroke-width="0.6622" stroke-miterlimit="10" stroke-linecap="round" stroke-linejoin="round"/>
<path d="M92.0866 76.3626C85.8303 64.5414 89.0075 48.5298 99.2913 40.0171C102.477 37.381 106.576 35.3733 110.641 36.1052" stroke="#CDDBFD" stroke-width="0.6622" stroke-miterlimit="10" stroke-linecap="round" stroke-linejoin="round"/>
<path d="M116.723 93.3977C114.795 88.7693 113.635 83.8206 113.319 78.8269C113.043 74.6538 113.536 70.0067 116.581 67.1484C118.702 65.1448 121.752 64.3787 124.678 64.4458C127.592 64.5157 130.441 65.3412 133.238 66.1661" stroke="#CDDBFD" stroke-width="0.6622" stroke-miterlimit="10" stroke-linecap="round" stroke-linejoin="round"/>
<path d="M18.2825 691.659C14.0953 690.132 9.0871 689.196 5.47461 691.774C3.79973 692.973 2.66675 694.795 1.96068 696.733C-1.94739 707.373 6.72258 718.539 16.1643 724.762C25.606 730.986 36.9361 735.452 43.0116 745.025C34.4238 749.36 23.6848 743.498 14.5551 746.519C8.01976 748.67 3.5042 755.485 3.45493 762.382C3.40567 769.278 7.52716 775.895 13.4385 779.442C26.5255 787.291 43.3729 780.066 58.4468 782.299C62.5355 782.907 66.6898 784.352 69.4813 787.39C72.2727 790.444 73.2744 795.386 70.9427 798.802C65.918 806.109 51.4517 801.183 47.6586 809.196C46.033 812.644 47.6586 816.963 50.5486 819.459C53.4386 821.938 57.2973 822.956 61.0576 823.58C69.9246 825.075 79.0872 824.845 87.8721 822.923C91.0741 822.217 94.3253 821.281 97.593 821.561C100.861 821.84 104.276 823.662 105.294 826.782C108.332 836.175 88.9723 842.48 92.9296 851.528C95.2284 856.766 102.782 855.961 108.233 854.286C121.058 850.329 133.898 846.372 146.739 842.414C153.718 840.263 161.435 837.505 164.67 830.937C166.329 827.57 166.526 823.679 166.575 819.919C166.903 799.311 164.391 778.671 159.137 758.736C157.971 754.303 156.493 749.656 153.012 746.684C149.531 743.712 143.389 743.465 140.926 747.324C139.334 749.82 138.151 754.188 135.376 753.17C134.079 752.693 133.57 751.15 133.242 749.787C128.25 728.687 126.181 704.844 110.335 690.066C108.857 688.687 107.182 687.373 105.196 686.963C100.056 685.895 95.7211 691.413 94.9986 696.634C94.2925 701.856 95.7375 707.176 95.0971 712.398C94.4567 717.62 90.3023 723.219 85.1299 722.365C82.01 708.03 74.7522 694.631 64.4731 684.204C60.4172 680.099 53.4221 676.486 49.4648 680.69C47.3138 682.973 47.363 686.519 47.7407 689.639C48.5781 696.404 50.368 703.055 53.0609 709.327C54.3745 712.398 57.3138 719.393 52.1414 719.541C49.3335 719.623 44.3909 710.263 42.6832 708.342C36.0822 700.904 27.6257 695.074 18.2825 691.659Z" fill="url(#paint3_linear_241_55)"/>
<path d="M22.4843 717.161C23.2068 717.686 23.9457 718.212 24.7831 718.507C25.6206 718.803 26.6058 718.803 27.3611 718.327C27.5253 718.212 27.6895 718.08 27.7552 717.883C27.8537 717.604 27.706 717.292 27.5582 717.029C26.2281 714.731 24.1427 712.99 22.0902 711.315C21.4826 710.822 20.8586 710.313 20.1033 710.1C19.348 709.887 18.4284 710.018 17.9522 710.642C17.2626 711.545 17.8209 712.891 18.5598 713.745C19.6271 714.993 21.1706 716.208 22.4843 717.161Z" fill="#97B4FB"/>
<path d="M16.6539 705.389C16.9988 705.602 17.5407 705.569 17.7213 705.208C17.787 705.093 17.8034 704.962 17.8034 704.83C17.9183 703.5 17.4422 702.121 16.539 701.152C16.2927 700.889 15.9315 700.627 15.6031 700.742C15.3732 700.824 15.2418 701.037 15.1433 701.251C14.9463 701.76 14.9627 702.334 15.1269 702.86C15.3568 703.582 15.9971 704.962 16.6539 705.389Z" fill="#97B4FB"/>
<path d="M11.963 705.043C11.9466 704.78 11.7167 704.517 11.454 704.567C11.3719 704.583 11.3062 704.632 11.2241 704.665C10.5016 705.125 10.009 705.897 9.86121 706.75C9.82837 706.98 9.82838 707.259 10.0254 707.391C10.1568 707.473 10.321 707.457 10.4688 707.424C10.7972 707.325 11.0763 707.079 11.2898 706.8C11.5689 706.406 12.0123 705.535 11.963 705.043Z" fill="#97B4FB"/>
<path d="M32.3537 718.624C32.5836 718.607 32.8135 718.459 32.9284 718.262C33.0598 718.065 33.0926 717.819 33.0762 717.573C33.0598 717.409 33.027 717.244 32.912 717.146C32.7806 717.031 32.5836 716.998 32.4194 717.064C32.2552 717.129 32.1238 717.261 32.0253 717.409C31.9104 717.573 31.8447 717.753 31.8118 717.95C31.7297 718.262 31.9924 718.64 32.3537 718.624Z" fill="#97B4FB"/>
<path d="M14.0966 712.973C14.0309 712.743 13.8503 712.546 13.6205 712.464C13.3906 712.382 13.1442 712.382 12.9143 712.431C12.7666 712.464 12.6024 712.546 12.5203 712.677C12.4218 712.825 12.4382 713.039 12.5367 713.186C12.6352 713.334 12.783 713.449 12.9472 713.515C13.1278 713.597 13.3248 713.63 13.5219 713.63C13.8503 713.646 14.1787 713.334 14.0966 712.973Z" fill="#97B4FB"/>
<path d="M8.46102 710.839C8.57596 710.839 8.69092 710.757 8.74018 710.659C8.80587 710.56 8.82227 710.445 8.82227 710.314C8.82227 710.232 8.78944 710.15 8.74018 710.1C8.6745 710.035 8.57594 710.035 8.49384 710.067C8.41174 710.1 8.34606 710.166 8.2968 710.232C8.24754 710.314 8.19827 710.396 8.18185 710.494C8.16543 710.659 8.28039 710.839 8.46102 710.839Z" fill="#97B4FB"/>
<path d="M14.5079 710.215C14.6228 710.215 14.7378 710.133 14.7871 710.035C14.8527 709.936 14.8691 709.821 14.8691 709.69C14.8691 709.608 14.8363 709.526 14.7871 709.476C14.7214 709.411 14.6229 709.411 14.5408 709.443C14.4587 709.476 14.3929 709.542 14.3437 709.608C14.2944 709.69 14.2452 709.772 14.2288 709.87C14.2124 710.051 14.3437 710.232 14.5079 710.215Z" fill="#97B4FB"/>
<path d="M6.90242 706.275C7.01736 706.275 7.13233 706.193 7.18159 706.094C7.24727 705.996 7.26367 705.881 7.26367 705.749C7.26367 705.667 7.23085 705.585 7.18159 705.536C7.11591 705.47 7.0174 705.47 6.93529 705.503C6.85319 705.536 6.78752 705.602 6.73826 705.667C6.689 705.749 6.63972 705.831 6.6233 705.93C6.60688 706.094 6.7218 706.291 6.90242 706.275Z" fill="#97B4FB"/>
<path d="M10.6283 700.807C10.8746 700.791 11.0881 700.643 11.2194 700.429C11.3508 700.232 11.3836 699.969 11.3672 699.74C11.3508 699.575 11.318 699.411 11.203 699.296C11.0717 699.181 10.8582 699.148 10.694 699.214C10.5298 699.28 10.3984 699.411 10.2835 699.559C10.1685 699.723 10.1028 699.904 10.0536 700.101C10.0043 700.446 10.2506 700.823 10.6283 700.807Z" fill="#97B4FB"/>
<path d="M5.78727 702.599C6.01715 702.583 6.24705 702.435 6.36199 702.238C6.49336 702.041 6.52619 701.795 6.50977 701.548C6.49335 701.384 6.4605 701.22 6.34556 701.121C6.21419 701.007 6.01717 700.974 5.85296 701.039C5.68876 701.105 5.55741 701.236 5.45889 701.384C5.34395 701.548 5.27826 701.729 5.24542 701.926C5.17974 702.254 5.42602 702.632 5.78727 702.599Z" fill="#97B4FB"/>
<path d="M207.38 693.614C197.544 666.323 183.784 638.835 159.81 622.579C148.25 614.73 132.355 610.083 120.598 617.653C110.861 623.909 107.232 636.635 107.528 648.211C107.905 662.858 113.209 676.914 119.17 690.297C138.152 732.924 164.392 772.218 180.418 816.044C183.538 824.566 186.674 833.844 194.096 839.066C201.042 843.959 211.058 843.959 218.004 839.066C236.641 825.929 230.648 797.85 228.168 779.164C224.326 750.001 217.347 721.266 207.38 693.614Z" fill="url(#paint4_linear_241_55)"/>
<path d="M123.902 616.469C154.46 651.083 175.314 693.448 189.288 737.487C203.261 781.526 210.601 827.389 216.496 873.218" stroke="#0A0940" stroke-width="0.4868" stroke-miterlimit="10" stroke-linecap="round" stroke-linejoin="round"/>
<path d="M253.931 797.866L203.275 783.236C203.275 783.236 172.486 677.373 198.004 648.851C198.004 648.851 186.821 565.156 211.074 561.166C235.327 557.176 244.326 626.339 244.326 626.339C244.326 626.339 293.899 638.933 253.931 797.866Z" fill="url(#paint5_linear_241_55)"/>
<path d="M211.076 561.168C211.076 561.168 238.367 681.217 228.071 790.397" stroke="#0A0940" stroke-width="0.4868" stroke-miterlimit="10" stroke-linecap="round" stroke-linejoin="round"/>
<defs>
<linearGradient id="paint0_linear_241_55" x1="197.933" y1="-60.0168" x2="67.6377" y2="-29.4678" gradientUnits="userSpaceOnUse">
<stop offset="0.2151" stop-color="#97B4FB"/>
<stop offset="1" stop-color="#CDDBFD"/>
</linearGradient>
<linearGradient id="paint1_linear_241_55" x1="45.9248" y1="-104.567" x2="172.292" y2="44.726" gradientUnits="userSpaceOnUse">
<stop stop-color="#667EBA"/>
<stop offset="0.4781" stop-color="#86A6FB"/>
</linearGradient>
<linearGradient id="paint2_linear_241_55" x1="146.72" y1="94.8084" x2="-123.425" y2="-137.469" gradientUnits="userSpaceOnUse">
<stop stop-color="#3E6AFA"/>
<stop offset="0.8585" stop-color="#0A0940"/>
</linearGradient>
<linearGradient id="paint3_linear_241_55" x1="28.2864" y1="725.108" x2="426.355" y2="975.606" gradientUnits="userSpaceOnUse">
<stop stop-color="#3E6AFA"/>
<stop offset="0.8585" stop-color="#0A0940"/>
</linearGradient>
<linearGradient id="paint4_linear_241_55" x1="231.092" y1="728.266" x2="107.519" y2="728.266" gradientUnits="userSpaceOnUse">
<stop offset="0.2151" stop-color="#97B4FB"/>
<stop offset="1" stop-color="#CDDBFD"/>
</linearGradient>
<linearGradient id="paint5_linear_241_55" x1="283.939" y1="693.734" x2="174.15" y2="662.097" gradientUnits="userSpaceOnUse">
<stop offset="0.0251" stop-color="#EEBE2D" stop-opacity="0.9078"/>
<stop offset="1" stop-color="#E48A20"/>
</linearGradient>
</defs>
</svg>
