<svg width="13" height="15" viewBox="0 0 13 15" fill="none" xmlns="http://www.w3.org/2000/svg">
<path d="M12.25 10.375C12.2135 10.9766 11.9219 11.3867 11.375 11.6055V13.4375H11.5938C11.9948 13.474 12.2135 13.6927 12.25 14.0938C12.2135 14.4948 11.9948 14.7135 11.5938 14.75H2.1875C1.56771 14.7318 1.04818 14.5221 0.628906 14.1211C0.227865 13.7018 0.0182292 13.1823 0 12.5625V2.9375C0.0182292 2.31771 0.227865 1.79818 0.628906 1.37891C1.04818 0.977865 1.56771 0.768229 2.1875 0.75H10.9375C11.3021 0.768229 11.612 0.895833 11.8672 1.13281C12.1042 1.38802 12.2318 1.69792 12.25 2.0625V10.375ZM10.0625 13.4375V11.6875H2.1875C1.93229 11.6875 1.72266 11.7695 1.55859 11.9336C1.39453 12.0977 1.3125 12.3073 1.3125 12.5625C1.3125 12.8177 1.39453 13.0273 1.55859 13.1914C1.72266 13.3555 1.93229 13.4375 2.1875 13.4375H10.0625ZM10.9375 10.375V2.0625H2.1875C1.93229 2.0625 1.72266 2.14453 1.55859 2.30859C1.39453 2.47266 1.3125 2.68229 1.3125 2.9375V10.5664C1.58594 10.4388 1.8776 10.375 2.1875 10.375H10.9375ZM4.15625 5.125C3.75521 5.08854 3.53646 4.86979 3.5 4.46875C3.53646 4.06771 3.75521 3.84896 4.15625 3.8125H8.96875C9.36979 3.84896 9.58854 4.06771 9.625 4.46875C9.58854 4.86979 9.36979 5.08854 8.96875 5.125H4.15625ZM4.15625 7.3125C3.75521 7.27604 3.53646 7.05729 3.5 6.65625C3.53646 6.25521 3.75521 6.03646 4.15625 6H8.96875C9.36979 6.03646 9.58854 6.25521 9.625 6.65625C9.58854 7.05729 9.36979 7.27604 8.96875 7.3125H4.15625Z" fill="#0D5EF4"/>
</svg>
