<svg width="11" height="15" viewBox="0 0 11 15" fill="none" xmlns="http://www.w3.org/2000/svg">
<path d="M9.1875 0.75C9.55208 0.768229 9.86198 0.895833 10.1172 1.13281C10.3542 1.38802 10.4818 1.69792 10.5 2.0625V13.875C10.4818 14.2214 10.3359 14.4674 10.0625 14.6133C9.78906 14.7773 9.4974 14.7865 9.1875 14.6406L5.25 12.3438L1.3125 14.6406C1.0026 14.7865 0.710938 14.7865 0.4375 14.6406C0.164062 14.4766 0.0182292 14.2214 0 13.875V2.0625C0.0182292 1.69792 0.145833 1.38802 0.382812 1.13281C0.638021 0.895833 0.947917 0.768229 1.3125 0.75H9.1875ZM9.1875 13.1094V2.22656C9.1875 2.11719 9.1237 2.0625 8.99609 2.0625H1.44922C1.3763 2.0625 1.33073 2.11719 1.3125 2.22656V13.1094L5.25 10.8125L9.1875 13.1094Z" fill="#0D5EF4"/>
</svg>
