<svg width="16" height="14" viewBox="0 0 16 14" fill="none" xmlns="http://www.w3.org/2000/svg">
<path d="M15.9375 6.09375V6.125C15.9792 6.14583 16 6.1875 16 6.25C16 6.29167 15.9896 6.33333 15.9688 6.375L15.5625 6.875C15.5417 6.91667 15.5 6.9375 15.4375 6.9375C15.3958 6.9375 15.3542 6.91667 15.3125 6.875L14 5.84375V13C14 13.2708 13.8958 13.5 13.6875 13.6875C13.5 13.8958 13.2708 14 13 14H9.375C9.27083 14 9.17708 13.9583 9.09375 13.875C9.03125 13.8125 9 13.7292 9 13.625V9.5H7V13.625C7 13.7292 6.95833 13.8125 6.875 13.875C6.8125 13.9583 6.72917 14 6.625 14H3C2.72917 14 2.48958 13.8958 2.28125 13.6875C2.09375 13.5 2 13.2708 2 13V5.84375L0.6875 6.875C0.645833 6.91667 0.59375 6.9375 0.53125 6.9375C0.489583 6.91667 0.458333 6.88542 0.4375 6.84375L0.03125 6.375C0.0104167 6.33333 0 6.29167 0 6.25C0 6.1875 0.0208333 6.13542 0.0625 6.09375L7.375 0.21875C7.5625 0.0729167 7.77083 0 8 0C8.22917 0 8.4375 0.0729167 8.625 0.21875L13 3.75V2.1875C13 2.125 13.0208 2.08333 13.0625 2.0625C13.1042 2.02083 13.1458 2 13.1875 2H13.8125C13.8542 2 13.8958 2.02083 13.9375 2.0625C13.9792 2.08333 14 2.125 14 2.1875V4.5625L15.9375 6.09375ZM13 13V5.03125L8.125 1.09375C8.04167 1.03125 7.95833 1.03125 7.875 1.09375L3 5.03125V13H6V8.875C6 8.77083 6.03125 8.6875 6.09375 8.625C6.17708 8.54167 6.27083 8.5 6.375 8.5H9.625C9.72917 8.5 9.8125 8.54167 9.875 8.625C9.95833 8.6875 10 8.77083 10 8.875V13H13Z" fill="#0D5EF4"/>
</svg>
