<svg width="12" height="16" viewBox="0 0 12 16" fill="none" xmlns="http://www.w3.org/2000/svg">
<path d="M11.5625 3.0625C11.8542 3.35417 12 3.70833 12 4.125V14.5C12 14.9167 11.8542 15.2708 11.5625 15.5625C11.2708 15.8542 10.9167 16 10.5 16H1.5C1.08333 16 0.729167 15.8542 0.4375 15.5625C0.145833 15.2708 0 14.9167 0 14.5V1.5C0 1.08333 0.145833 0.729167 0.4375 0.4375C0.729167 0.145833 1.08333 0 1.5 0H7.875C8.29167 0 8.64583 0.145833 8.9375 0.4375L11.5625 3.0625ZM10.8438 3.78125L8.21875 1.15625C8.15625 1.09375 8.08333 1.04167 8 1V4H11C10.9583 3.91667 10.9062 3.84375 10.8438 3.78125ZM10.5 15C10.6458 15 10.7604 14.9479 10.8438 14.8438C10.9479 14.7604 11 14.6458 11 14.5V5H7.75C7.54167 5 7.36458 4.92708 7.21875 4.78125C7.07292 4.63542 7 4.45833 7 4.25V1H1.5C1.35417 1 1.22917 1.05208 1.125 1.15625C1.04167 1.23958 1 1.35417 1 1.5V14.5C1 14.6458 1.04167 14.7604 1.125 14.8438C1.22917 14.9479 1.35417 15 1.5 15H10.5ZM9 7.375C9 7.27083 8.95833 7.1875 8.875 7.125C8.8125 7.04167 8.72917 7 8.625 7H3.375C3.27083 7 3.17708 7.04167 3.09375 7.125C3.03125 7.1875 3 7.27083 3 7.375V7.625C3 7.72917 3.03125 7.82292 3.09375 7.90625C3.17708 7.96875 3.27083 8 3.375 8H8.625C8.72917 8 8.8125 7.96875 8.875 7.90625C8.95833 7.82292 9 7.72917 9 7.625V7.375ZM9 9.375C9 9.27083 8.95833 9.1875 8.875 9.125C8.8125 9.04167 8.72917 9 8.625 9H3.375C3.27083 9 3.17708 9.04167 3.09375 9.125C3.03125 9.1875 3 9.27083 3 9.375V9.625C3 9.72917 3.03125 9.82292 3.09375 9.90625C3.17708 9.96875 3.27083 10 3.375 10H8.625C8.72917 10 8.8125 9.96875 8.875 9.90625C8.95833 9.82292 9 9.72917 9 9.625V9.375ZM9 11.375C9 11.2708 8.95833 11.1875 8.875 11.125C8.8125 11.0417 8.72917 11 8.625 11H3.375C3.27083 11 3.17708 11.0417 3.09375 11.125C3.03125 11.1875 3 11.2708 3 11.375V11.625C3 11.7292 3.03125 11.8229 3.09375 11.9062C3.17708 11.9688 3.27083 12 3.375 12H8.625C8.72917 12 8.8125 11.9688 8.875 11.9062C8.95833 11.8229 9 11.7292 9 11.625V11.375Z" fill="#0D5EF4"/>
</svg>
