<svg width="13" height="15" viewBox="0 0 13 15" fill="none" xmlns="http://www.w3.org/2000/svg">
<path d="M7.4375 9.0625C8.80469 9.09896 9.9349 9.57292 10.8281 10.4844C11.7396 11.3776 12.2135 12.5078 12.25 13.875C12.25 14.1302 12.168 14.3398 12.0039 14.5039C11.8398 14.668 11.6302 14.75 11.375 14.75H0.875C0.619792 14.75 0.410156 14.668 0.246094 14.5039C0.0820312 14.3398 0 14.1302 0 13.875C0.0364583 12.5078 0.510417 11.3776 1.42188 10.4844C2.3151 9.57292 3.44531 9.09896 4.8125 9.0625H7.4375ZM1.33984 13.4375H10.9102C10.7826 12.5625 10.3997 11.8333 9.76172 11.25C9.1237 10.6849 8.34896 10.3932 7.4375 10.375H4.8125C3.90104 10.3932 3.1263 10.6849 2.48828 11.25C1.85026 11.8333 1.46745 12.5625 1.33984 13.4375ZM6.125 7.75C5.14062 7.73177 4.3112 7.39453 3.63672 6.73828C2.98047 6.0638 2.64323 5.23438 2.625 4.25C2.64323 3.26562 2.98047 2.4362 3.63672 1.76172C4.3112 1.10547 5.14062 0.768229 6.125 0.75C7.10938 0.768229 7.9388 1.10547 8.61328 1.76172C9.26953 2.4362 9.60677 3.26562 9.625 4.25C9.60677 5.23438 9.26953 6.0638 8.61328 6.73828C7.9388 7.39453 7.10938 7.73177 6.125 7.75ZM6.125 2.0625C5.50521 2.08073 4.98568 2.29036 4.56641 2.69141C4.16536 3.11068 3.95573 3.63021 3.9375 4.25C3.95573 4.86979 4.16536 5.38932 4.56641 5.80859C4.98568 6.20964 5.50521 6.41927 6.125 6.4375C6.74479 6.41927 7.26432 6.20964 7.68359 5.80859C8.08464 5.38932 8.29427 4.86979 8.3125 4.25C8.29427 3.63021 8.08464 3.11068 7.68359 2.69141C7.26432 2.29036 6.74479 2.08073 6.125 2.0625Z" fill="#0D5EF4"/>
</svg>
