<svg width="11" height="13" viewBox="0 0 11 13" fill="none" xmlns="http://www.w3.org/2000/svg">
<path d="M5.25 6.5C4.40625 6.48438 3.69531 6.19531 3.11719 5.63281C2.55469 5.05469 2.26562 4.34375 2.25 3.5C2.26562 2.65625 2.55469 1.94531 3.11719 1.36719C3.69531 0.804688 4.40625 0.515625 5.25 0.5C6.09375 0.515625 6.80469 0.804688 7.38281 1.36719C7.94531 1.94531 8.23438 2.65625 8.25 3.5C8.23438 4.34375 7.94531 5.05469 7.38281 5.63281C6.80469 6.19531 6.09375 6.48438 5.25 6.5ZM5.25 1.25C4.60938 1.26563 4.07812 1.48438 3.65625 1.90625C3.23438 2.32812 3.01562 2.85938 3 3.5C3.01562 4.14062 3.23438 4.67188 3.65625 5.09375C4.07812 5.51562 4.60938 5.73438 5.25 5.75C5.89062 5.73438 6.42188 5.51562 6.84375 5.09375C7.26562 4.67188 7.48438 4.14062 7.5 3.5C7.48438 2.85938 7.26562 2.32812 6.84375 1.90625C6.42188 1.48438 5.89062 1.26563 5.25 1.25ZM6.44531 7.625C7.58594 7.65625 8.53906 8.05469 9.30469 8.82031C10.0703 9.58594 10.4688 10.5391 10.5 11.6797C10.5 11.9141 10.4219 12.1094 10.2656 12.2656C10.1094 12.4219 9.91406 12.5 9.67969 12.5H0.820312C0.585938 12.5 0.390625 12.4219 0.234375 12.2656C0.078125 12.1094 0 11.9141 0 11.6797C0.03125 10.5391 0.429687 9.58594 1.19531 8.82031C1.96094 8.05469 2.91406 7.65625 4.05469 7.625H6.44531ZM9.67969 11.75C9.72656 11.75 9.75 11.7266 9.75 11.6797C9.71875 10.7422 9.39844 9.96094 8.78906 9.33594C8.16406 8.72656 7.38281 8.40625 6.44531 8.375H4.05469C3.11719 8.40625 2.33594 8.72656 1.71094 9.33594C1.10156 9.96094 0.78125 10.7422 0.75 11.6797C0.75 11.7266 0.773438 11.75 0.820312 11.75H9.67969Z" fill="#0D5EF4"/>
</svg>
