<svg width="16" height="15" viewBox="0 0 16 15" fill="none" xmlns="http://www.w3.org/2000/svg">
<path d="M7.875 0.75C8.14844 0.768229 8.34896 0.895833 8.47656 1.13281L10.3359 4.98828L14.5195 5.61719C14.793 5.65365 14.9753 5.79948 15.0664 6.05469C15.1393 6.3099 15.0846 6.52865 14.9023 6.71094L11.8672 9.71875L12.5781 13.9844C12.6146 14.2396 12.5234 14.4492 12.3047 14.6133C12.0677 14.7591 11.8398 14.7773 11.6211 14.668L7.875 12.6719L4.10156 14.668C3.88281 14.7773 3.66406 14.7591 3.44531 14.6133C3.22656 14.4492 3.1263 14.2396 3.14453 13.9844L3.88281 9.71875L0.847656 6.71094C0.665365 6.52865 0.610677 6.3099 0.683594 6.05469C0.77474 5.79948 0.947917 5.65365 1.20312 5.61719L5.41406 4.98828L7.27344 1.13281C7.40104 0.895833 7.60156 0.768229 7.875 0.75ZM7.875 2.91016L6.42578 5.86328C6.33464 6.0638 6.17057 6.19141 5.93359 6.24609L2.70703 6.71094L5.05859 9.03516C5.20443 9.19922 5.26823 9.39062 5.25 9.60938L4.67578 12.8906L7.57422 11.3594C7.77474 11.25 7.97526 11.25 8.17578 11.3594L11.0469 12.8906L10.5 9.60938C10.4635 9.39062 10.5273 9.19922 10.6914 9.03516L13.043 6.71094L9.81641 6.24609C9.57943 6.19141 9.41536 6.0638 9.32422 5.86328L7.875 2.91016Z" fill="#0D5EF4"/>
</svg>
