<svg width="16" height="15" viewBox="0 0 16 15" fill="none" xmlns="http://www.w3.org/2000/svg">
<path d="M1.74969 13.875H8.09344C8.34865 14.2031 8.65855 14.4857 9.02313 14.7227C8.93199 14.7409 8.84084 14.75 8.74969 14.75H1.74969C1.25751 14.7318 0.847351 14.5586 0.519226 14.2305C0.191101 13.9023 0.017924 13.4922 -0.000305176 13V2.5C0.017924 2.00781 0.191101 1.59766 0.519226 1.26953C0.847351 0.941406 1.25751 0.768229 1.74969 0.75H6.01532C6.3799 0.75 6.6898 0.877604 6.94501 1.13281L10.1169 4.30469C10.3721 4.5599 10.4997 4.86979 10.4997 5.23438V6.19141C10.1898 6.26432 9.89813 6.3737 9.62469 6.51953V6H6.56219C6.19761 5.98177 5.88772 5.85417 5.63251 5.61719C5.39553 5.36198 5.26792 5.05208 5.24969 4.6875V1.625H1.74969C1.49449 1.625 1.28485 1.70703 1.12079 1.87109C0.956726 2.03516 0.874695 2.24479 0.874695 2.5V13C0.874695 13.2552 0.956726 13.4648 1.12079 13.6289C1.28485 13.793 1.49449 13.875 1.74969 13.875ZM9.48798 4.93359L6.3161 1.76172C6.26141 1.70703 6.19761 1.66146 6.12469 1.625V4.6875C6.14292 4.96094 6.28876 5.10677 6.56219 5.125H9.62469C9.58824 5.05208 9.54266 4.98828 9.48798 4.93359ZM13.6442 9.63672C13.8265 9.83724 13.8265 10.0378 13.6442 10.2383L11.6755 12.207C11.475 12.3893 11.2744 12.3893 11.0739 12.207L9.98016 11.1133C9.79787 10.9128 9.79787 10.7122 9.98016 10.5117C10.1807 10.3294 10.3812 10.3294 10.5817 10.5117L11.3747 11.2773L13.0427 9.63672C13.2432 9.45443 13.4437 9.45443 13.6442 9.63672ZM7.87469 10.8125C7.91115 9.70052 8.29397 8.77083 9.02313 8.02344C9.77053 7.29427 10.7002 6.91146 11.8122 6.875C12.9242 6.91146 13.8539 7.29427 14.6013 8.02344C15.3304 8.77083 15.7132 9.70052 15.7497 10.8125C15.7132 11.9245 15.3304 12.8542 14.6013 13.6016C13.8539 14.3307 12.9242 14.7135 11.8122 14.75C10.7002 14.7135 9.77053 14.3307 9.02313 13.6016C8.29397 12.8542 7.91115 11.9245 7.87469 10.8125ZM11.8122 13.875C12.6872 13.8568 13.4072 13.556 13.9724 12.9727C14.5557 12.4076 14.8565 11.6875 14.8747 10.8125C14.8565 9.9375 14.5557 9.21745 13.9724 8.65234C13.4072 8.06901 12.6872 7.76823 11.8122 7.75C10.9372 7.76823 10.2171 8.06901 9.65204 8.65234C9.06871 9.21745 8.76792 9.9375 8.74969 10.8125C8.76792 11.6875 9.06871 12.4076 9.65204 12.9727C10.2171 13.556 10.9372 13.8568 11.8122 13.875Z" fill="#0D5EF4"/>
</svg>
