<svg width="18" height="15" viewBox="0 0 18 15" fill="none" xmlns="http://www.w3.org/2000/svg">
<path d="M8.74969 9.5C7.94761 9.48177 7.27313 9.20833 6.72626 8.67969C6.19761 8.13281 5.93329 7.45833 5.93329 6.65625C5.95152 5.85417 6.22496 5.17969 6.7536 4.63281C7.28225 4.10417 7.94761 3.83073 8.74969 3.8125C9.53355 3.83073 10.1989 4.10417 10.7458 4.63281C11.2744 5.17969 11.5479 5.85417 11.5661 6.65625C11.5479 7.45833 11.2744 8.13281 10.7458 8.67969C10.2171 9.20833 9.55178 9.48177 8.74969 9.5ZM8.74969 4.6875C8.18459 4.70573 7.71975 4.89714 7.35516 5.26172C6.99058 5.6263 6.79917 6.09115 6.78094 6.65625C6.79917 7.22135 6.99058 7.6862 7.35516 8.05078C7.71975 8.41536 8.18459 8.60677 8.74969 8.625C9.29657 8.60677 9.76141 8.41536 10.1442 8.05078C10.5088 7.6862 10.7002 7.22135 10.7184 6.65625C10.7002 6.09115 10.5088 5.6263 10.1442 5.26172C9.76141 4.89714 9.29657 4.70573 8.74969 4.6875ZM10.1169 10.375C11.2106 10.3932 12.1221 10.7487 12.8513 11.4414C13.5804 12.1341 13.9632 12.9909 13.9997 14.0117C13.9997 14.2305 13.9268 14.4036 13.7809 14.5312C13.6351 14.6771 13.4528 14.75 13.2341 14.75H4.26532C4.04657 14.75 3.86428 14.6771 3.71844 14.5312C3.57261 14.4036 3.49969 14.2305 3.49969 14.0117C3.53615 12.9909 3.91897 12.1341 4.64813 11.4414C5.3773 10.7487 6.28876 10.3932 7.38251 10.375H10.1169ZM4.37469 13.875H13.0974C13.0427 13.1276 12.7419 12.5078 12.195 12.0156C11.6299 11.5234 10.9372 11.2682 10.1169 11.25H7.35516C6.55308 11.2682 5.86949 11.5234 5.30438 12.0156C4.75751 12.5078 4.44761 13.1276 4.37469 13.875ZM13.9997 5.125C13.3799 5.10677 12.8604 4.89714 12.4411 4.49609C12.0401 4.07682 11.8304 3.55729 11.8122 2.9375C11.8304 2.31771 12.0401 1.79818 12.4411 1.37891C12.8604 0.977865 13.3799 0.768229 13.9997 0.75C14.6195 0.768229 15.139 0.977865 15.5583 1.37891C15.9593 1.79818 16.169 2.31771 16.1872 2.9375C16.169 3.55729 15.9593 4.07682 15.5583 4.49609C15.139 4.89714 14.6195 5.10677 13.9997 5.125ZM13.9997 1.625C13.6351 1.64323 13.3252 1.77083 13.07 2.00781C12.833 2.26302 12.7054 2.57292 12.6872 2.9375C12.7054 3.30208 12.833 3.61198 13.07 3.86719C13.3252 4.10417 13.6351 4.23177 13.9997 4.25C14.3643 4.23177 14.6742 4.10417 14.9294 3.86719C15.1664 3.61198 15.294 3.30208 15.3122 2.9375C15.294 2.57292 15.1664 2.26302 14.9294 2.00781C14.6742 1.77083 14.3643 1.64323 13.9997 1.625ZM3.49969 5.125C2.8799 5.10677 2.36037 4.89714 1.9411 4.49609C1.54006 4.07682 1.33042 3.55729 1.31219 2.9375C1.33042 2.31771 1.54006 1.79818 1.9411 1.37891C2.36037 0.977865 2.8799 0.768229 3.49969 0.75C4.11949 0.768229 4.63902 0.977865 5.05829 1.37891C5.45933 1.79818 5.66897 2.31771 5.68719 2.9375C5.66897 3.55729 5.45933 4.07682 5.05829 4.49609C4.63902 4.89714 4.11949 5.10677 3.49969 5.125ZM3.49969 1.625C3.13511 1.64323 2.82522 1.77083 2.57001 2.00781C2.33303 2.26302 2.20542 2.57292 2.18719 2.9375C2.20542 3.30208 2.33303 3.61198 2.57001 3.86719C2.82522 4.10417 3.13511 4.23177 3.49969 4.25C3.86428 4.23177 4.17417 4.10417 4.42938 3.86719C4.66636 3.61198 4.79397 3.30208 4.81219 2.9375C4.79397 2.57292 4.66636 2.26302 4.42938 2.00781C4.17417 1.77083 3.86428 1.64323 3.49969 1.625ZM15.3395 6C15.9593 6.01823 16.4697 6.23698 16.8708 6.65625C17.2718 7.09375 17.4815 7.63151 17.4997 8.26953V8.625C17.4815 8.89844 17.3356 9.04427 17.0622 9.0625C16.7888 9.04427 16.6429 8.89844 16.6247 8.625V8.26953C16.6065 7.86849 16.4789 7.54036 16.2419 7.28516C15.9867 7.02995 15.6859 6.89323 15.3395 6.875H13.5622C13.3799 6.875 13.2067 6.91146 13.0427 6.98438C12.7875 7.07552 12.596 7.01172 12.4684 6.79297C12.3773 6.53776 12.4502 6.33724 12.6872 6.19141C12.9606 6.0638 13.2523 6 13.5622 6H15.3395ZM4.45673 6.98438C4.29266 6.91146 4.11949 6.875 3.93719 6.875H2.15985C1.79527 6.89323 1.49449 7.02995 1.25751 7.28516C1.02053 7.54036 0.892924 7.86849 0.874695 8.26953V8.625C0.856466 8.89844 0.710632 9.04427 0.437195 9.0625C0.163757 9.04427 0.017924 8.89844 -0.000305176 8.625V8.26953C0.017924 7.63151 0.227559 7.09375 0.628601 6.65625C1.02964 6.23698 1.54006 6.01823 2.15985 6H3.93719C4.24709 6 4.54787 6.0638 4.83954 6.19141C5.05829 6.33724 5.12209 6.53776 5.03094 6.79297C4.90334 7.01172 4.71193 7.07552 4.45673 6.98438Z" fill="#0D5EF4"/>
</svg>
