<svg width="195" height="260" viewBox="0 0 195 260" fill="none" xmlns="http://www.w3.org/2000/svg">
<path d="M4.62473 77.5791C12.4162 52.7468 35.2748 33.9512 60.8136 28.1355L60.815 28.1356C71.2302 25.758 81.9847 25.312 92.8934 24.9717C103.756 24.6328 114.787 24.3992 125.524 22.3837L126.166 22.263L126.515 21.7104C133.157 11.207 145.608 4.01144 158.368 2.5467L158.976 2.48133C176.245 0.74037 193.487 7.60943 208.302 17.2598L208.302 17.2605C212.497 19.9997 216.414 22.9235 218.642 26.9595L218.642 26.9617C221.996 33.0091 221.04 39.8382 219.295 47.4232C217.595 54.8139 215.109 62.9773 216.323 70.7889C218.251 83.2011 227.695 90.4093 238.309 96.4222C240.978 97.9339 243.749 99.3856 246.521 100.828C249.3 102.275 252.078 103.712 254.795 105.211C259.894 108.025 264.702 111.017 268.738 114.583L269.534 115.303C280.813 125.77 285.519 141.912 286.194 157.642C287.872 197.572 263.779 238.243 226.729 252.886C189.653 267.545 142.325 252.539 123.179 217.741C119.446 210.953 116.724 203.639 113.446 196.354C110.305 189.376 106.701 182.551 101.331 176.881L100.806 176.336C91.2658 166.595 78.419 162.475 65.449 159.05C52.3506 155.592 39.1756 152.844 28.2069 146.046C6.20808 132.406 -3.15592 102.437 4.62473 77.5791Z" stroke="#0D5EF4" stroke-width="3"/>
</svg>
