<svg width="63" height="58" viewBox="0 0 63 58" fill="none" xmlns="http://www.w3.org/2000/svg">
<path d="M35.6298 23.5317C36.7268 25.2448 36.9973 27.1533 36.4563 29.242C36.7268 28.8814 37.0123 28.5207 37.2828 28.1601C36.6366 28.5358 36.4563 28.6259 35.7951 28.8213C35.5096 28.9114 35.209 28.9866 34.9085 29.0467C34.9385 29.0467 34.3675 29.1369 34.623 29.1068C34.7732 29.0918 34.2323 29.1369 34.1571 29.1369C33.8716 29.1519 33.5711 29.1519 33.2855 29.1369C33.1653 29.1369 33.0601 29.1218 32.9399 29.1068C32.3989 29.0767 33.1353 29.1519 32.8197 29.0918C32.2336 28.9866 31.6476 28.8363 31.0915 28.6109C31.362 28.7161 30.7009 28.4155 30.5957 28.3705C30.3552 28.2352 30.1148 28.1 29.8743 27.9347C29.7842 27.8746 29.694 27.8145 29.6039 27.7393C29.9044 27.9497 29.4686 27.6341 29.4386 27.6041C29.2132 27.4087 28.9877 27.1983 28.7774 26.9729C28.1763 26.3268 27.6503 25.4101 27.4099 24.4934C27.3347 24.2079 27.2746 23.9224 27.2296 23.6369C27.2596 23.9224 27.2145 23.171 27.2145 23.0358C27.2145 22.2995 27.2296 22.1041 27.3949 21.4279C27.5451 20.7967 27.7555 20.2257 28.011 19.6847C28.1462 19.4292 28.2815 19.1588 28.4317 18.9183C28.5069 18.7981 28.582 18.6779 28.6571 18.5577C28.7022 18.4976 29.0328 18.0317 28.8224 18.3172C29.138 17.9115 29.4836 17.5508 29.8593 17.2202C29.9495 17.1451 30.4604 16.7544 30.1599 16.9648C30.4153 16.7845 30.6558 16.6192 30.9262 16.4689C31.1366 16.3487 31.362 16.2285 31.5875 16.1233C31.5875 16.1233 32.0383 15.9279 31.7828 16.0331C31.5273 16.1383 31.9932 15.958 31.9932 15.958C32.4891 15.7776 33 15.6424 33.526 15.5372C33.6462 15.5071 33.7814 15.4921 33.9017 15.4771C34.3825 15.3869 33.6462 15.5071 33.9618 15.4771C34.1872 15.462 34.4276 15.432 34.653 15.417C35.2241 15.3869 35.7951 15.402 36.3661 15.447C36.4863 15.4621 37.2377 15.5522 36.832 15.4921C37.1025 15.5372 37.3579 15.5823 37.6134 15.6274C38.1393 15.7325 38.6653 15.8678 39.1762 16.0181C40.4235 16.4088 40.8442 16.5891 41.9863 17.2202C42.4221 17.4607 42.8429 17.7312 43.2636 18.0017C43.459 18.1369 43.6393 18.2722 43.8347 18.4074C43.5041 18.167 43.9098 18.4675 43.9549 18.5126C44.0751 18.6028 44.1953 18.7079 44.3005 18.8131C44.6762 19.1437 45.0218 19.4894 45.3524 19.85C45.5177 20.0303 45.668 20.2107 45.8183 20.406C45.5478 20.0754 45.9986 20.6765 46.0737 20.7817C46.3142 21.1574 46.5095 21.5331 46.7049 21.9238C46.9152 22.3295 46.5696 21.5331 46.7349 22.0139C46.765 22.1041 46.8101 22.2093 46.8401 22.2995C46.9453 22.585 47.0355 22.8705 47.1256 23.156C47.2759 23.6218 47.3961 24.0877 47.5013 24.5686C47.5464 24.794 47.5915 25.0344 47.6366 25.2598C47.6516 25.35 47.6666 25.4401 47.6816 25.5303C47.6065 25.0645 47.6816 25.4852 47.6816 25.5904C47.7718 26.5221 47.7868 27.4388 47.7117 28.3705C47.6967 28.4606 47.6967 28.5358 47.6816 28.6259C47.6516 29.0617 47.7568 28.2202 47.6816 28.656C47.6516 28.8363 47.6215 29.0317 47.5764 29.227C47.4863 29.6628 47.3811 30.0836 47.2609 30.5194C47.1407 30.9251 46.9904 31.3158 46.8401 31.6915C46.7199 31.992 46.8551 31.6464 46.8702 31.6013C46.8251 31.7216 46.765 31.8267 46.7199 31.947C46.6297 32.1573 46.5246 32.3527 46.4194 32.5631C46.239 32.9087 46.0286 33.2543 45.8183 33.5849C45.7131 33.7652 45.5929 33.9306 45.4726 34.1109C45.3975 34.2161 44.9317 34.8472 45.2322 34.4565C44.7062 35.1177 44.1502 35.7338 43.5341 36.3199C43.2185 36.6054 42.903 36.8909 42.5724 37.1614C42.4822 37.2215 42.4071 37.2967 42.3169 37.3568C42.1065 37.5221 42.6776 37.1013 42.3319 37.3417C42.1216 37.492 41.9112 37.6423 41.7008 37.7926C40.9795 38.2885 40.2432 38.7243 39.4617 39.115C39.071 39.3103 38.6803 39.4906 38.2746 39.671C38.7254 39.4756 38.0792 39.7461 37.974 39.7912C37.7486 39.8813 37.5232 39.9565 37.2978 40.0466C36.4413 40.3472 35.5697 40.5726 34.6831 40.7529C34.4727 40.798 34.2473 40.8431 34.0369 40.8731C33.9167 40.8882 33.1954 40.9934 33.7364 40.9182C33.3006 40.9633 32.8648 41.0084 32.414 41.0384C31.4823 41.0986 30.5656 41.0835 29.6339 41.0084C29.4085 40.9934 29.1981 40.9633 28.9727 40.9332C29.4235 40.9783 28.8976 40.9182 28.7323 40.8882C28.2664 40.813 27.8156 40.7229 27.3648 40.6026C26.929 40.4975 26.5083 40.3772 26.0875 40.227C25.8771 40.1518 25.6667 40.0767 25.4563 40.0016C25.3662 39.9715 25.291 39.9414 25.2009 39.8964C24.8552 39.7761 25.5014 40.0466 25.0806 39.8363C24.2241 39.4456 23.4126 39.0098 22.6312 38.4838C22.4359 38.3486 22.2555 38.2133 22.0602 38.0781C21.7897 37.8977 22.0452 38.0631 22.0902 38.1081C21.985 38.018 21.8648 37.9278 21.7596 37.8376C21.384 37.5371 21.0383 37.2065 20.6927 36.8759C20.3471 36.5303 20.0014 36.1696 19.6859 35.7939C19.5206 35.5986 19.3553 35.4032 19.205 35.2079C19.4304 35.4934 19.22 35.2229 19.1599 35.1478C19.0547 34.9975 18.9495 34.8472 18.8443 34.712C18.2282 33.8103 17.6722 32.8636 17.2064 31.8869C16.8908 31.2257 16.8758 31.1806 16.6353 30.5344C16.4099 29.9183 16.1995 29.3022 16.0192 28.671C15.8689 28.115 15.7337 27.559 15.6435 26.988C15.6135 26.8076 15.5834 26.6423 15.5534 26.462C15.5383 26.4019 15.5083 26.1014 15.5534 26.4169C15.5083 26.0713 15.4782 25.7257 15.4632 25.3801C15.3881 24.253 15.4181 23.126 15.5834 21.9989C15.5384 22.3746 15.6586 21.6082 15.6736 21.488C15.7187 21.2175 15.7788 20.947 15.8389 20.6765C15.9741 20.0905 16.1394 19.5044 16.3348 18.9333C16.425 18.6779 16.5151 18.4074 16.6203 18.1519C16.6654 18.0468 16.6955 17.9415 16.7405 17.8514C16.6203 18.167 16.7556 17.8213 16.7856 17.7462C17.0261 17.2203 17.2815 16.6943 17.552 16.1834C18.0629 15.2517 18.8143 14.1096 19.3403 13.4334C19.8662 12.7421 20.7979 11.7203 21.5793 10.9689C21.9851 10.5782 22.4208 10.1875 22.8416 9.81182C23.067 9.63149 23.2774 9.43614 23.5028 9.27084C23.593 9.1957 23.6831 9.12057 23.7733 9.06046C23.5178 9.25581 23.9085 8.95527 23.9536 8.92522C24.9304 8.20391 25.9522 7.54269 27.0192 6.95663C27.5 6.68614 27.9959 6.43068 28.4918 6.19025C28.7473 6.07003 29.0178 5.93478 29.2883 5.81457C29.4235 5.75446 29.5588 5.69436 29.694 5.63425C30.22 5.40884 29.3785 5.75447 29.9044 5.54409C31.0014 5.1083 32.1284 4.71759 33.2855 4.41704C33.8115 4.2818 34.3525 4.14655 34.8784 4.04136C35.1639 3.98125 35.4344 3.93616 35.7199 3.89108C35.8852 3.86103 36.0656 3.83097 36.2309 3.81594C36.6216 3.75583 35.9904 3.83096 36.4262 3.78588C37.5533 3.65063 38.6803 3.59053 39.8224 3.60556C40.3784 3.62059 40.9494 3.65064 41.5054 3.69572C41.6407 3.71075 41.791 3.72577 41.9262 3.7408C42.0164 3.75583 42.377 3.80092 42.0314 3.75584C42.362 3.80092 42.6926 3.86103 43.0232 3.92114C44.1202 4.13152 45.2022 4.41703 46.2541 4.80774C46.3442 4.8378 47.0355 5.12332 46.765 5.0031C47.0204 5.10829 47.2759 5.22851 47.5314 5.34872C48.1024 5.61922 48.6584 5.93479 49.1994 6.26539C49.7253 6.58096 50.2363 6.91156 50.7322 7.27221C51.3182 7.69297 51.5286 7.85827 52.1147 8.36919C53.0163 9.13558 53.8428 9.99215 54.5942 10.8938C55.1201 11.5249 55.8715 12.6069 56.4275 13.6137C56.683 14.0796 56.9234 14.5454 57.1488 15.0263C57.2089 15.1465 57.269 15.2817 57.3141 15.402C57.5395 15.8828 57.239 15.2066 57.3592 15.5071C57.4794 15.7927 57.5846 16.0782 57.6898 16.3637C58.0805 17.4306 58.3811 18.5276 58.6065 19.6396C58.6666 19.9101 58.7116 20.1806 58.7567 20.4661C58.7717 20.5713 58.8769 21.2626 58.8319 20.9019C58.907 21.518 58.9671 22.1342 58.9972 22.7503C59.0573 23.8773 59.0573 25.0194 58.9821 26.1464C58.9521 26.7175 58.892 27.2885 58.8168 27.8595C58.7567 28.4005 58.8469 27.6492 58.8018 27.9798C58.7868 28.115 58.7567 28.2653 58.7417 28.4005C58.6816 28.7461 58.6365 29.0768 58.5614 29.4224C57.6748 34.171 56.0067 38.1382 53.3469 42.1354C51.0478 45.5767 47.9521 48.7925 44.2705 50.8212C43.8497 51.0616 43.4139 51.272 42.9781 51.4824C42.7527 51.5876 42.5423 51.6928 42.3169 51.7829C42.2267 51.828 42.1366 51.8581 42.0464 51.9031C42.4371 51.7378 42.0164 51.9182 41.9412 51.9482C40.9795 52.3239 40.0027 52.6695 38.9959 52.94C38.0342 53.2105 37.0423 53.4209 36.0505 53.6012C35.7951 53.6463 35.5546 53.6914 35.2992 53.7214C35.2992 53.7214 34.8033 53.7966 35.0888 53.7515C35.3743 53.7214 34.8784 53.7815 34.8784 53.7815C34.3525 53.8417 33.8115 53.8867 33.2705 53.9318C31.1817 54.0821 29.0779 54.022 26.9891 53.7815C26.8388 53.7665 26.6735 53.7515 26.5233 53.7214C26.899 53.7665 26.6134 53.7365 26.5383 53.7214C26.2828 53.6764 26.0274 53.6463 25.7719 53.6012C25.2009 53.5111 24.6449 53.4059 24.0889 53.2856C23.067 53.0602 22.0602 52.8048 21.0684 52.4892C20.5725 52.3389 20.0766 52.1586 19.5957 51.9933C19.3553 51.9031 19.1148 51.813 18.8744 51.7228C18.7842 51.6777 18.6791 51.6477 18.5889 51.6026C18.4987 51.5575 18.3935 51.5275 18.3034 51.4824C18.4687 51.5575 18.4987 51.5575 18.3785 51.5124C17.4017 51.0917 16.455 50.6258 15.5384 50.0999C14.6367 49.604 13.7802 49.048 12.9386 48.4469C12.7283 48.2966 12.5329 48.1463 12.3225 47.9961C11.9168 47.6955 12.593 48.2215 12.2023 47.9059C12.1272 47.8458 12.037 47.7857 11.9619 47.7105C11.5261 47.3499 11.1053 46.9892 10.6846 46.6135C9.00151 45.0657 8.0097 43.8636 6.91271 42.0903C6.34167 41.1887 5.84577 40.227 5.40998 39.2502C5.3649 39.16 5.31982 39.0548 5.28976 38.9647C5.45506 39.3404 5.24469 38.8445 5.22966 38.7994C5.12447 38.5439 5.0343 38.3035 4.94414 38.048C4.76381 37.5371 4.59851 37.0111 4.44824 36.4852C4.29797 35.9442 4.16273 35.4032 4.05754 34.8622C3.99743 34.5918 3.95234 34.3062 3.90726 34.0207C3.8772 33.8855 3.86217 33.7352 3.83212 33.6C3.81709 33.5098 3.77202 33.1491 3.8171 33.4797C3.66683 32.2926 3.60672 31.0904 3.60672 29.9032C3.60672 27.5891 0.000186234 27.574 0.000186234 29.9032C-0.014841 35.0426 1.32258 40.1819 4.17776 44.4797C6.82256 48.4469 10.5643 51.6176 14.802 53.7815C23.1271 58.0192 33.556 58.9659 42.362 55.6299C51.9644 51.9933 58.6515 42.9319 61.3715 33.2393C62.784 28.1901 63.1296 22.7503 61.8523 17.626C60.5299 12.3063 57.3892 7.73805 53.0013 4.47714C48.6584 1.24628 43.3538 -0.286492 37.944 0.0441072C32.6243 0.374707 27.3798 2.20803 22.9768 5.2285C18.6039 8.21893 15.0124 12.3063 13.1039 17.2804C11.1053 22.4798 11.6012 28.115 13.8403 33.1491C15.7036 37.3417 18.9646 41.0234 23.2022 42.9169C27.1694 44.7051 31.5424 45.0507 35.7801 44.1641C43.7445 42.4961 51.0477 36.0644 51.3633 27.559C51.4385 25.335 51.0177 23.0809 50.2062 21.0071C49.3046 18.6779 47.7267 16.8446 45.7582 15.3418C41.8811 12.3965 36.3511 10.8487 31.5875 12.2462C26.0875 13.8541 22.2255 20.1055 23.9987 25.7407C25.8621 31.6314 32.7295 34.186 38.1995 31.6614C38.485 31.5262 38.8005 31.3909 39.056 31.2106C39.7022 30.7898 39.8975 30.1737 40.0478 29.4675C40.2432 28.5358 40.3484 27.559 40.2882 26.6123C40.183 24.8541 39.6421 23.141 38.6954 21.6533C38.1694 20.8268 37.0874 20.4962 36.2309 21.0071C35.4495 21.5331 35.1038 22.7052 35.6298 23.5317Z" fill="#D0DBE9"/>
</svg>
