<svg width="222" height="301" viewBox="0 0 222 301" fill="none" xmlns="http://www.w3.org/2000/svg">
<path d="M67.6928 117.54C67.7803 115.542 66.1656 113.248 63.8948 113.767C55.2534 115.69 47.3527 121.548 41.5818 129.061C40.5736 130.273 39.6723 131.594 38.8698 132.963C35.1285 138.959 32.671 145.691 32.1405 152.212C32.0227 153.752 32.7983 154.833 33.8461 155.417C34.3112 157.403 36.1446 158.913 38.376 157.984C46.8205 154.471 55.7178 151.467 61.1206 143.618C66.3571 136.022 67.2564 126.496 67.6928 117.54Z" fill="#DDE8FB"/>
<path d="M103.567 187.939C112.012 184.425 120.909 181.421 126.312 173.573C131.562 165.96 132.478 156.447 132.914 147.491C133.002 145.493 131.387 143.199 129.116 143.718C120.475 145.641 112.574 151.498 106.803 159.011C105.795 160.224 104.894 161.545 104.091 162.914C100.35 168.909 97.8927 175.641 97.3621 182.162C97.2443 183.702 98.0199 184.784 99.0677 185.368C99.5197 187.37 101.336 188.868 103.567 187.939Z" fill="#DDE8FB"/>
<path d="M175.826 46.7327C175.931 44.7482 174.299 42.4413 172.028 42.9599C163.387 44.8829 155.486 50.7405 149.715 58.2536C148.707 59.4657 147.806 60.7868 147.003 62.1563C143.262 68.1514 140.804 74.8835 140.274 81.4047C140.156 82.9445 140.932 84.0264 141.979 84.6101C142.444 86.5955 144.278 88.1057 146.509 87.1768C154.954 83.6635 163.851 80.6595 169.254 72.8108C174.49 65.2151 175.39 55.689 175.826 46.7327Z" fill="#DDE8FB"/>
<path d="M155.436 125.457C151.695 131.452 149.237 138.184 148.707 144.705C148.589 146.245 149.365 147.327 150.412 147.911C150.878 149.896 152.711 151.407 154.942 150.478C163.387 146.964 172.284 143.96 177.687 136.112C182.937 128.499 183.853 118.986 184.289 110.029C184.377 108.032 182.762 105.738 180.491 106.257C171.85 108.18 163.949 114.037 158.178 121.55C157.144 122.797 156.239 124.088 155.436 125.457Z" fill="#DDE8FB"/>
<path d="M86.146 74.1436C86.0282 75.6834 86.8037 76.7652 87.8514 77.349C88.3166 79.3344 90.15 80.8447 92.3813 79.9157C100.826 76.4025 109.723 73.3985 115.126 65.5497C120.376 57.9369 121.292 48.4238 121.728 39.4675C121.816 37.4699 120.201 35.1762 117.931 35.6948C109.289 37.6179 101.388 43.4754 95.6174 50.9884C94.6092 52.2006 93.708 53.5217 92.9055 54.8911C89.1038 60.8944 86.6594 67.6094 86.146 74.1436Z" fill="#DDE8FB"/>
<path d="M10.8394 162.166C10.9268 160.169 9.31207 157.875 7.04131 158.393C-1.60009 160.317 -9.50077 166.174 -15.2717 173.687C-16.2799 174.899 -17.1812 176.22 -17.9837 177.59C-21.725 183.585 -24.1825 190.317 -24.713 196.838C-24.8308 198.378 -24.0552 199.46 -23.0074 200.044C-22.5423 202.029 -20.709 203.539 -18.4776 202.61C-10.0331 199.097 -1.13564 196.093 4.26715 188.244C9.50359 180.649 10.4029 171.123 10.8394 162.166Z" fill="#DDE8FB"/>
<path d="M91.5525 223.871C91.64 221.874 90.0252 219.58 87.7544 220.099C79.113 222.022 71.2124 227.879 65.4415 235.392C64.4333 236.604 63.5319 237.925 62.7294 239.295C58.9882 245.29 56.5307 252.022 56.0001 258.543C55.8823 260.083 56.6578 261.165 57.7056 261.749C58.1707 263.734 60.0041 265.244 62.2355 264.315C70.6801 260.802 79.5775 257.798 84.9803 249.949C90.2167 242.354 91.116 232.828 91.5525 223.871Z" fill="#DDE8FB"/>
<path d="M27.926 217.879C28.0135 215.882 26.3988 213.588 24.1281 214.106C15.4867 216.029 7.58586 221.887 1.81497 229.4C0.806771 230.612 -0.0944863 231.933 -0.896965 233.303C-4.63822 239.298 -7.0957 246.03 -7.62627 252.551C-7.74405 254.091 -6.96855 255.173 -5.92078 255.757C-5.45567 257.742 -3.62223 259.252 -1.39085 258.323C7.05371 254.81 15.9511 251.806 21.3539 243.957C26.6035 236.344 27.4895 226.835 27.926 217.879Z" fill="#DDE8FB"/>
<path d="M83.8131 159.556C65.2832 157.749 54.3837 180.356 51.4302 195.483C51.0906 197.206 51.9821 198.349 53.2204 198.862C53.7036 200.29 55.1306 201.408 56.8458 201.226C64.9377 200.377 72.1763 197.055 77.419 190.659C83.9451 182.691 82.8024 173.207 86.5413 164.195C87.3669 162.191 85.9952 159.757 83.8131 159.556ZM78.4265 167.987C77.9687 167.556 77.4018 167.231 76.7817 167.083C77.427 166.843 78.0804 166.663 78.7378 166.514C78.634 167.005 78.5172 167.513 78.4265 167.987ZM72.0418 186.358C73.1659 184.746 74.0663 183.071 74.8334 181.321C75.0734 181.043 75.2619 180.725 75.4847 180.434C74.5835 182.679 73.4301 184.649 72.0418 186.358Z" fill="#DDE8FB"/>
<path d="M90.4803 138.789C90.9638 142.527 96.0368 142.358 97.0347 139.454C107.612 139.12 112.506 134.957 119.595 127.283C127.556 118.646 126.252 108.414 128.304 97.4869C128.731 95.1515 126.531 93.6594 124.506 93.7142C113.665 94.0372 106.598 99.337 101.004 108.289C94.2793 119.039 88.829 125.955 90.4803 138.789Z" fill="#DDE8FB"/>
</svg>
