<svg width="106" height="52" viewBox="0 0 106 52" fill="none" xmlns="http://www.w3.org/2000/svg">
<path d="M105.148 31.4376C103.728 29.9576 101.288 29.6376 99.3583 29.4276C96.4683 29.1076 93.5284 29.1976 90.6384 29.3976C87.6384 29.5976 84.6383 29.9576 81.6683 30.4176C80.0883 30.6576 78.4983 30.9176 76.9383 31.2776C78.0883 29.6776 79.0384 27.9276 79.8884 26.1476C81.2283 23.3376 82.3083 20.4076 83.1883 17.4276C83.9983 14.6876 84.6284 11.8776 84.9684 9.03756C85.1884 7.13756 85.3984 4.95756 84.7684 3.09756C84.1284 1.19756 82.1383 0.467568 80.2483 0.547568C77.5983 0.657568 75.0883 2.02756 72.9383 3.47756C70.7183 4.96756 68.6683 6.72756 66.7983 8.63756C65.0083 10.4676 63.5884 12.5876 62.2084 14.7376C60.2484 17.7976 58.4484 20.9576 56.7684 24.1676C55.8584 25.8976 54.9484 27.6476 54.1484 29.4276C53.7684 27.2376 53.1283 25.0876 52.3483 23.0176C51.0983 19.6676 49.4884 16.4476 47.6084 13.4076C45.7984 10.4876 43.7283 7.69756 41.3083 5.25756C39.3783 3.30756 37.1583 1.47757 34.5683 0.517569C32.5283 -0.242431 30.1984 -0.242442 28.3584 1.03756C26.6684 2.21756 26.1883 4.03756 26.0583 6.00756C25.8983 8.57756 26.2984 11.1975 26.7684 13.7176C27.3184 16.6776 28.0783 19.5976 28.9083 22.4876C29.6383 25.0076 30.4383 27.5175 31.2883 29.9975C31.4983 30.6175 31.6983 31.2476 31.9083 31.8776C30.5583 31.0376 29.0684 30.3976 27.6084 29.8376C24.7284 28.7476 21.6983 28.0176 18.6583 27.5576C15.6583 27.0976 12.5883 26.8676 9.55834 27.1276C7.25834 27.3276 4.71836 27.7676 2.82836 29.1976C0.478357 30.9776 -0.591644 34.4976 0.328356 37.2776C1.49836 40.8076 4.96835 43.1276 8.16835 44.6476C11.3884 46.1776 14.8484 47.2076 18.2984 48.0576C22.1484 49.0076 26.0583 49.7176 29.9883 50.2576C37.6383 51.3176 45.4483 51.8776 53.1683 51.4476C53.9583 51.4076 54.7384 51.3476 55.5284 51.2776C55.5684 51.2776 55.6084 51.2676 55.6384 51.2576C59.0784 51.3076 62.5184 51.1876 65.9084 51.0276C71.4484 50.7676 77.0283 50.5876 82.4783 49.5076C86.8283 48.6476 91.0284 47.0176 95.0784 45.2276C98.4684 43.7276 101.948 41.8076 104.138 38.7076C105.168 37.2476 105.878 35.4476 105.968 33.6576C106.038 32.8176 105.728 32.0376 105.148 31.4376Z" fill="#0D5EF4"/>
</svg>
