<svg width="65" height="98" viewBox="0 0 65 98" fill="none" xmlns="http://www.w3.org/2000/svg">
<path d="M64.9948 71.1818C64.9448 68.9518 63.7848 66.9618 61.9248 65.7818C59.1648 64.0418 55.4648 64.0218 52.3848 64.6918C48.7748 65.4718 45.5148 67.2918 42.0548 68.5318C41.3048 68.8018 35.2148 71.5018 35.3348 68.3118C35.6148 61.0918 33.9848 51.3918 35.0448 51.1618C36.8748 50.7518 40.5848 55.2418 41.8148 56.6818C43.1848 58.2718 44.9048 59.4818 47.0048 59.7918C49.0048 60.0918 51.1448 59.8317 52.8448 58.6417C54.3948 57.5617 55.3948 55.8918 55.9348 54.0918C56.5448 52.0618 56.7148 49.7517 56.5348 47.6417C56.4048 46.1517 56.0448 44.6218 55.1448 43.4018C53.5248 41.2218 50.6948 40.9018 48.1948 41.1518C44.9648 41.4818 35.4748 47.7718 34.9848 44.4918C34.8248 43.4418 34.2748 33.8418 34.4848 30.4218C34.6148 28.3118 37.6948 28.7118 39.8848 29.0318C46.0048 29.9318 47.3548 28.9217 47.9848 26.6417C49.5148 21.1017 44.3748 20.7418 40.3348 22.7818C35.3348 25.3118 34.1748 29.0318 33.4048 26.2918C32.7048 23.7818 34.7948 21.4618 36.3748 19.5218C38.1648 17.3118 40.2448 15.2218 41.4248 12.5818C42.5948 9.95177 42.5448 6.79176 41.2048 4.23176C39.9948 1.92176 37.7148 0.44176 35.1748 0.0917597C32.3748 -0.29824 29.5148 0.581765 27.2248 2.22176C25.9248 3.15176 24.7348 4.34176 24.1948 5.89176C23.7248 7.22176 23.8348 8.65177 24.2148 9.99177C25.0948 13.1518 29.7648 22.6618 30.5348 26.1718C31.1648 29.0718 31.0348 45.7618 29.6848 44.7218C27.0048 42.6418 23.6248 37.6617 20.7548 35.8917C17.8548 34.1017 14.4148 33.1418 11.1048 34.3018C8.45478 35.2318 6.72478 37.4618 6.47478 40.2818C6.34478 41.7918 6.61478 43.3218 7.10478 44.7418C7.65478 46.3418 8.45478 47.8418 9.68478 49.0218C10.9048 50.1818 12.4048 50.9917 13.9748 51.5518C15.3348 52.0317 16.8048 52.4517 18.2548 52.3617C19.6748 52.2717 21.0748 51.9618 22.4648 51.6918C23.7648 51.4418 29.4048 49.8918 29.8048 50.6018C30.2648 51.4318 29.5648 63.2518 29.2548 67.7318C29.1948 68.6218 20.0048 63.2718 18.9148 62.7518C18.1848 62.4018 17.3748 62.1918 16.6048 61.9818C15.6948 61.7418 14.7748 61.5418 13.8448 61.4318C11.3948 61.1518 8.77478 61.5018 6.40478 62.1218C4.18478 62.7018 1.46478 63.7318 0.384778 65.9618C-0.715222 68.2318 0.744778 70.4218 2.23478 72.0918C4.06478 74.1518 6.38478 76.0018 8.86478 77.2018C11.9648 78.7118 15.3948 77.8118 18.4548 76.6718C20.2748 75.9918 22.0748 75.2018 23.9748 74.7618C25.1848 74.4818 26.4648 74.3418 27.6848 74.6117C29.6348 75.0518 28.0248 93.8618 28.0148 94.9118C27.9848 98.9318 35.6248 98.1818 36.9648 94.7918C37.3148 93.9218 36.9848 80.0218 36.7648 77.5817C36.1148 70.4617 43.7148 76.1318 44.6748 76.3718C48.3048 77.2818 51.5348 79.7218 55.3348 79.9318C57.9948 80.0818 60.7248 79.0117 62.5848 77.0817C64.0848 75.5417 65.0448 73.3818 64.9948 71.1818Z" fill="#0D5EF4"/>
</svg>
